<?xml version="1.0" encoding="UTF-8" standalone="no"?>
<!DOCTYPE svg PUBLIC "-//W3C//DTD SVG 1.1//EN"
 "http://www.w3.org/Graphics/SVG/1.1/DTD/svg11.dtd">
<!-- Generated by graphviz version 2.43.0 (0)
 -->
<!-- Title: %3 Pages: 1 -->
<svg width="134pt" height="188pt"
 viewBox="0.00 0.00 134.00 188.00" xmlns="http://www.w3.org/2000/svg" xmlns:xlink="http://www.w3.org/1999/xlink">
<g id="graph0" class="graph" transform="scale(1 1) rotate(0) translate(4 184)">
<title>%3</title>
<polygon fill="white" stroke="transparent" points="-4,4 -4,-184 130,-184 130,4 -4,4"/>
<!-- W -->
<g id="node1" class="node">
<title>W</title>
<ellipse fill="none" stroke="black" cx="54" cy="-162" rx="27" ry="18"/>
<text text-anchor="middle" x="54" y="-158.3" font-family="Times,serif" font-size="14.00">W</text>
</g>
<!-- X -->
<g id="node2" class="node">
<title>X</title>
<ellipse fill="none" stroke="black" cx="82" cy="-90" rx="27" ry="18"/>
<text text-anchor="middle" x="82" y="-86.3" font-family="Times,serif" font-size="14.00">X</text>
</g>
<!-- W&#45;&#45;X -->
<g id="edge1" class="edge">
<title>W&#45;&#45;X</title>
<path fill="none" stroke="black" d="M60.64,-144.41C65.1,-133.25 70.96,-118.6 75.41,-107.47"/>
</g>
<!-- Y -->
<g id="node3" class="node">
<title>Y</title>
<ellipse fill="none" stroke="black" cx="27" cy="-18" rx="27" ry="18"/>
<text text-anchor="middle" x="27" y="-14.3" font-family="Times,serif" font-size="14.00">Y</text>
</g>
<!-- W&#45;&#45;Y -->
<g id="edge2" class="edge">
<title>W&#45;&#45;Y</title>
<path fill="none" stroke="black" d="M50.74,-143.87C45.55,-116.58 35.47,-63.52 30.27,-36.19"/>
</g>
<!-- X&#45;&#45;Y -->
<g id="edge4" class="edge">
<title>X&#45;&#45;Y</title>
<path fill="none" stroke="black" d="M70.07,-73.81C60.84,-62.07 48.13,-45.89 38.91,-34.16"/>
</g>
<!-- Z -->
<g id="node4" class="node">
<title>Z</title>
<ellipse fill="none" stroke="black" cx="99" cy="-18" rx="27" ry="18"/>
<text text-anchor="middle" x="99" y="-14.3" font-family="Times,serif" font-size="14.00">Z</text>
</g>
<!-- X&#45;&#45;Z -->
<g id="edge3" class="edge">
<title>X&#45;&#45;Z</title>
<path fill="none" stroke="black" d="M86.12,-72.05C88.75,-61.21 92.16,-47.18 94.8,-36.28"/>
</g>
</g>
</svg>
