<?xml version="1.0" encoding="UTF-8" standalone="no"?>
<!DOCTYPE svg PUBLIC "-//W3C//DTD SVG 1.1//EN"
 "http://www.w3.org/Graphics/SVG/1.1/DTD/svg11.dtd">
<!-- Generated by graphviz version 2.43.0 (0)
 -->
<!-- Title: %3 Pages: 1 -->
<svg width="206pt" height="116pt"
 viewBox="0.00 0.00 206.00 116.00" xmlns="http://www.w3.org/2000/svg" xmlns:xlink="http://www.w3.org/1999/xlink">
<g id="graph0" class="graph" transform="scale(1 1) rotate(0) translate(4 112)">
<title>%3</title>
<polygon fill="white" stroke="transparent" points="-4,4 -4,-112 202,-112 202,4 -4,4"/>
<!-- X1 -->
<g id="node1" class="node">
<title>X1</title>
<ellipse fill="none" stroke="black" cx="27" cy="-90" rx="27" ry="18"/>
<text text-anchor="middle" x="27" y="-86.3" font-family="Times,serif" font-size="14.00">X1</text>
</g>
<!-- X4 -->
<g id="node2" class="node">
<title>X4</title>
<ellipse fill="none" stroke="black" cx="99" cy="-18" rx="27" ry="18"/>
<text text-anchor="middle" x="99" y="-14.3" font-family="Times,serif" font-size="14.00">X4</text>
</g>
<!-- X1&#45;&#45;X4 -->
<g id="edge1" class="edge">
<title>X1&#45;&#45;X4</title>
<path fill="none" stroke="black" d="M41.57,-74.83C53.98,-62.77 71.73,-45.51 84.2,-33.38"/>
</g>
<!-- X2 -->
<g id="node3" class="node">
<title>X2</title>
<ellipse fill="none" stroke="black" cx="99" cy="-90" rx="27" ry="18"/>
<text text-anchor="middle" x="99" y="-86.3" font-family="Times,serif" font-size="14.00">X2</text>
</g>
<!-- X2&#45;&#45;X4 -->
<g id="edge2" class="edge">
<title>X2&#45;&#45;X4</title>
<path fill="none" stroke="black" d="M99,-71.7C99,-60.85 99,-46.92 99,-36.1"/>
</g>
<!-- X3 -->
<g id="node4" class="node">
<title>X3</title>
<ellipse fill="none" stroke="black" cx="171" cy="-90" rx="27" ry="18"/>
<text text-anchor="middle" x="171" y="-86.3" font-family="Times,serif" font-size="14.00">X3</text>
</g>
<!-- X3&#45;&#45;X4 -->
<g id="edge3" class="edge">
<title>X3&#45;&#45;X4</title>
<path fill="none" stroke="black" d="M156.43,-74.83C144.02,-62.77 126.27,-45.51 113.8,-33.38"/>
</g>
</g>
</svg>
