<?xml version="1.0" encoding="UTF-8" standalone="no"?>
<!DOCTYPE svg PUBLIC "-//W3C//DTD SVG 1.1//EN"
 "http://www.w3.org/Graphics/SVG/1.1/DTD/svg11.dtd">
<!-- Generated by graphviz version 2.43.0 (0)
 -->
<!-- Title: %3 Pages: 1 -->
<svg width="147pt" height="332pt"
 viewBox="0.00 0.00 146.88 332.00" xmlns="http://www.w3.org/2000/svg" xmlns:xlink="http://www.w3.org/1999/xlink">
<g id="graph0" class="graph" transform="scale(1 1) rotate(0) translate(4 328)">
<title>%3</title>
<polygon fill="white" stroke="transparent" points="-4,4 -4,-328 142.88,-328 142.88,4 -4,4"/>
<!-- X1 -->
<g id="node1" class="node">
<title>X1</title>
<ellipse fill="none" stroke="black" cx="62" cy="-306" rx="27" ry="18"/>
<text text-anchor="middle" x="62" y="-302.3" font-family="Times,serif" font-size="14.00">X1</text>
</g>
<!-- X2 -->
<g id="node2" class="node">
<title>X2</title>
<ellipse fill="none" stroke="black" cx="94" cy="-234" rx="27" ry="18"/>
<text text-anchor="middle" x="94" y="-230.3" font-family="Times,serif" font-size="14.00">X2</text>
</g>
<!-- X1&#45;&#45;X2 -->
<g id="edge1" class="edge">
<title>X1&#45;&#45;X2</title>
<path fill="none" stroke="black" d="M69.58,-288.41C74.68,-277.25 81.38,-262.6 86.47,-251.47"/>
</g>
<!-- X3 -->
<g id="node3" class="node">
<title>X3</title>
<ellipse fill="none" stroke="black" cx="27" cy="-162" rx="27" ry="18"/>
<text text-anchor="middle" x="27" y="-158.3" font-family="Times,serif" font-size="14.00">X3</text>
</g>
<!-- X2&#45;&#45;X3 -->
<g id="edge2" class="edge">
<title>X2&#45;&#45;X3</title>
<path fill="none" stroke="black" d="M80.12,-218.5C68.62,-206.48 52.36,-189.49 40.86,-177.49"/>
</g>
<!-- X4 -->
<g id="node4" class="node">
<title>X4</title>
<ellipse fill="none" stroke="black" cx="99" cy="-162" rx="27" ry="18"/>
<text text-anchor="middle" x="99" y="-158.3" font-family="Times,serif" font-size="14.00">X4</text>
</g>
<!-- X2&#45;&#45;X4 -->
<g id="edge4" class="edge">
<title>X2&#45;&#45;X4</title>
<path fill="none" stroke="black" d="M95.24,-215.7C96.01,-204.85 97.01,-190.92 97.78,-180.1"/>
</g>
<!-- X3&#45;&#45;X1 -->
<g id="edge3" class="edge">
<title>X3&#45;&#45;X1</title>
<path fill="none" stroke="black" d="M31.15,-179.82C37.88,-207.14 51.11,-260.82 57.85,-288.15"/>
</g>
<!-- X5 -->
<g id="node5" class="node">
<title>X5</title>
<ellipse fill="none" stroke="black" cx="94" cy="-90" rx="27" ry="18"/>
<text text-anchor="middle" x="94" y="-86.3" font-family="Times,serif" font-size="14.00">X5</text>
</g>
<!-- X3&#45;&#45;X5 -->
<g id="edge7" class="edge">
<title>X3&#45;&#45;X5</title>
<path fill="none" stroke="black" d="M40.88,-146.5C52.38,-134.48 68.64,-117.49 80.14,-105.49"/>
</g>
<!-- X4&#45;&#45;X5 -->
<g id="edge5" class="edge">
<title>X4&#45;&#45;X5</title>
<path fill="none" stroke="black" d="M97.76,-143.7C96.99,-132.85 95.99,-118.92 95.22,-108.1"/>
</g>
<!-- X5&#45;&#45;X2 -->
<g id="edge6" class="edge">
<title>X5&#45;&#45;X2</title>
<path fill="none" stroke="black" d="M109.21,-105.15C118.63,-115.01 129.89,-129.03 135,-144 140.17,-159.14 140.17,-164.86 135,-180 129.89,-194.97 118.63,-208.99 109.21,-218.85"/>
</g>
<!-- X6 -->
<g id="node6" class="node">
<title>X6</title>
<ellipse fill="none" stroke="black" cx="62" cy="-18" rx="27" ry="18"/>
<text text-anchor="middle" x="62" y="-14.3" font-family="Times,serif" font-size="14.00">X6</text>
</g>
<!-- X5&#45;&#45;X6 -->
<g id="edge8" class="edge">
<title>X5&#45;&#45;X6</title>
<path fill="none" stroke="black" d="M86.42,-72.41C81.32,-61.25 74.62,-46.6 69.53,-35.47"/>
</g>
<!-- X6&#45;&#45;X3 -->
<g id="edge9" class="edge">
<title>X6&#45;&#45;X3</title>
<path fill="none" stroke="black" d="M57.85,-35.82C51.12,-63.14 37.89,-116.82 31.15,-144.15"/>
</g>
</g>
</svg>
