<?xml version="1.0" encoding="UTF-8" standalone="no"?>
<!DOCTYPE svg PUBLIC "-//W3C//DTD SVG 1.1//EN"
 "http://www.w3.org/Graphics/SVG/1.1/DTD/svg11.dtd">
<!-- Generated by graphviz version 2.43.0 (0)
 -->
<!-- Title: %3 Pages: 1 -->
<svg width="89pt" height="260pt"
 viewBox="0.00 0.00 89.00 260.00" xmlns="http://www.w3.org/2000/svg" xmlns:xlink="http://www.w3.org/1999/xlink">
<g id="graph0" class="graph" transform="scale(1 1) rotate(0) translate(4 256)">
<title>%3</title>
<polygon fill="white" stroke="transparent" points="-4,4 -4,-256 85,-256 85,4 -4,4"/>
<!-- X1 -->
<g id="node1" class="node">
<title>X1</title>
<ellipse fill="none" stroke="black" cx="54" cy="-234" rx="27" ry="18"/>
<text text-anchor="middle" x="54" y="-230.3" font-family="Times,serif" font-size="14.00">X1</text>
</g>
<!-- X2 -->
<g id="node2" class="node">
<title>X2</title>
<ellipse fill="none" stroke="black" cx="27" cy="-162" rx="27" ry="18"/>
<text text-anchor="middle" x="27" y="-158.3" font-family="Times,serif" font-size="14.00">X2</text>
</g>
<!-- X1&#45;&#45;X2 -->
<g id="edge1" class="edge">
<title>X1&#45;&#45;X2</title>
<path fill="none" stroke="black" d="M47.6,-216.41C43.36,-205.41 37.81,-191.03 33.54,-179.96"/>
</g>
<!-- X4 -->
<g id="node4" class="node">
<title>X4</title>
<ellipse fill="none" stroke="black" cx="54" cy="-18" rx="27" ry="18"/>
<text text-anchor="middle" x="54" y="-14.3" font-family="Times,serif" font-size="14.00">X4</text>
</g>
<!-- X1&#45;&#45;X4 -->
<g id="edge4" class="edge">
<title>X1&#45;&#45;X4</title>
<path fill="none" stroke="black" d="M57.65,-215.91C59.68,-205.57 61.98,-192.09 63,-180 67.03,-132.17 67.03,-119.83 63,-72 61.98,-59.91 59.68,-46.43 57.65,-36.09"/>
</g>
<!-- X3 -->
<g id="node3" class="node">
<title>X3</title>
<ellipse fill="none" stroke="black" cx="27" cy="-90" rx="27" ry="18"/>
<text text-anchor="middle" x="27" y="-86.3" font-family="Times,serif" font-size="14.00">X3</text>
</g>
<!-- X2&#45;&#45;X3 -->
<g id="edge2" class="edge">
<title>X2&#45;&#45;X3</title>
<path fill="none" stroke="black" d="M27,-143.7C27,-132.85 27,-118.92 27,-108.1"/>
</g>
<!-- X3&#45;&#45;X4 -->
<g id="edge3" class="edge">
<title>X3&#45;&#45;X4</title>
<path fill="none" stroke="black" d="M33.4,-72.41C37.64,-61.41 43.19,-47.03 47.46,-35.96"/>
</g>
</g>
</svg>
