<?xml version="1.0" encoding="UTF-8" standalone="no"?>
<!DOCTYPE svg PUBLIC "-//W3C//DTD SVG 1.1//EN"
 "http://www.w3.org/Graphics/SVG/1.1/DTD/svg11.dtd">
<!-- Generated by graphviz version 2.43.0 (0)
 -->
<!-- Title: %3 Pages: 1 -->
<svg width="89pt" height="260pt"
 viewBox="0.00 0.00 89.00 260.00" xmlns="http://www.w3.org/2000/svg" xmlns:xlink="http://www.w3.org/1999/xlink">
<g id="graph0" class="graph" transform="scale(1 1) rotate(0) translate(4 256)">
<title>%3</title>
<polygon fill="white" stroke="transparent" points="-4,4 -4,-256 85,-256 85,4 -4,4"/>
<!-- Y -->
<g id="node1" class="node">
<title>Y</title>
<ellipse fill="none" stroke="black" cx="54" cy="-162" rx="27" ry="18"/>
<text text-anchor="middle" x="54" y="-158.3" font-family="Times,serif" font-size="14.00">Y</text>
</g>
<!-- W -->
<g id="node2" class="node">
<title>W</title>
<ellipse fill="none" stroke="black" cx="27" cy="-90" rx="27" ry="18"/>
<text text-anchor="middle" x="27" y="-86.3" font-family="Times,serif" font-size="14.00">W</text>
</g>
<!-- Y&#45;&#45;W -->
<g id="edge1" class="edge">
<title>Y&#45;&#45;W</title>
<path fill="none" stroke="black" d="M47.6,-144.41C43.36,-133.41 37.81,-119.03 33.54,-107.96"/>
</g>
<!-- Z -->
<g id="node3" class="node">
<title>Z</title>
<ellipse fill="none" stroke="black" cx="54" cy="-18" rx="27" ry="18"/>
<text text-anchor="middle" x="54" y="-14.3" font-family="Times,serif" font-size="14.00">Z</text>
</g>
<!-- W&#45;&#45;Z -->
<g id="edge2" class="edge">
<title>W&#45;&#45;Z</title>
<path fill="none" stroke="black" d="M33.4,-72.41C37.64,-61.41 43.19,-47.03 47.46,-35.96"/>
</g>
<!-- Z&#45;&#45;Y -->
<g id="edge3" class="edge">
<title>Z&#45;&#45;Y</title>
<path fill="none" stroke="black" d="M57.65,-36.09C59.68,-46.43 61.98,-59.91 63,-72 64.34,-87.94 64.34,-92.06 63,-108 61.98,-120.09 59.68,-133.57 57.65,-143.91"/>
</g>
<!-- X -->
<g id="node4" class="node">
<title>X</title>
<ellipse fill="none" stroke="black" cx="54" cy="-234" rx="27" ry="18"/>
<text text-anchor="middle" x="54" y="-230.3" font-family="Times,serif" font-size="14.00">X</text>
</g>
<!-- X&#45;&#45;Y -->
<g id="edge4" class="edge">
<title>X&#45;&#45;Y</title>
<path fill="none" stroke="black" d="M54,-215.7C54,-204.85 54,-190.92 54,-180.1"/>
</g>
</g>
</svg>
