<?xml version="1.0" encoding="UTF-8" standalone="no"?>
<!DOCTYPE svg PUBLIC "-//W3C//DTD SVG 1.1//EN"
 "http://www.w3.org/Graphics/SVG/1.1/DTD/svg11.dtd">
<!-- Generated by graphviz version 2.43.0 (0)
 -->
<!-- Title: Tree Pages: 1 -->
<svg width="532pt" height="269pt"
 viewBox="0.00 0.00 532.00 269.00" xmlns="http://www.w3.org/2000/svg" xmlns:xlink="http://www.w3.org/1999/xlink">
<g id="graph0" class="graph" transform="scale(1 1) rotate(0) translate(4 265)">
<title>Tree</title>
<polygon fill="white" stroke="transparent" points="-4,4 -4,-265 528,-265 528,4 -4,4"/>
<!-- 0 -->
<g id="node1" class="node">
<title>0</title>
<path fill="#f6d6be" stroke="black" d="M309,-261C309,-261 211,-261 211,-261 205,-261 199,-255 199,-249 199,-249 199,-205 199,-205 199,-199 205,-193 211,-193 211,-193 309,-193 309,-193 315,-193 321,-199 321,-205 321,-205 321,-249 321,-249 321,-255 315,-261 309,-261"/>
<text text-anchor="middle" x="260" y="-245.8" font-family="Helvetica,sans-Serif" font-size="14.00">x1 &lt;= 0.197</text>
<text text-anchor="middle" x="260" y="-230.8" font-family="Helvetica,sans-Serif" font-size="14.00">mse = 0.098</text>
<text text-anchor="middle" x="260" y="-215.8" font-family="Helvetica,sans-Serif" font-size="14.00">samples = 200</text>
<text text-anchor="middle" x="260" y="-200.8" font-family="Helvetica,sans-Serif" font-size="14.00">value = 0.354</text>
</g>
<!-- 1 -->
<g id="node2" class="node">
<title>1</title>
<path fill="#eb9d65" stroke="black" d="M238,-157C238,-157 146,-157 146,-157 140,-157 134,-151 134,-145 134,-145 134,-101 134,-101 134,-95 140,-89 146,-89 146,-89 238,-89 238,-89 244,-89 250,-95 250,-101 250,-101 250,-145 250,-145 250,-151 244,-157 238,-157"/>
<text text-anchor="middle" x="192" y="-141.8" font-family="Helvetica,sans-Serif" font-size="14.00">x1 &lt;= 0.092</text>
<text text-anchor="middle" x="192" y="-126.8" font-family="Helvetica,sans-Serif" font-size="14.00">mse = 0.038</text>
<text text-anchor="middle" x="192" y="-111.8" font-family="Helvetica,sans-Serif" font-size="14.00">samples = 44</text>
<text text-anchor="middle" x="192" y="-96.8" font-family="Helvetica,sans-Serif" font-size="14.00">value = 0.689</text>
</g>
<!-- 0&#45;&gt;1 -->
<g id="edge1" class="edge">
<title>0&#45;&gt;1</title>
<path fill="none" stroke="black" d="M237.92,-192.88C232.16,-184.24 225.88,-174.82 219.86,-165.79"/>
<polygon fill="black" stroke="black" points="222.66,-163.68 214.2,-157.3 216.83,-167.56 222.66,-163.68"/>
<text text-anchor="middle" x="209.3" y="-178.11" font-family="Helvetica,sans-Serif" font-size="14.00">True</text>
</g>
<!-- 4 -->
<g id="node5" class="node">
<title>4</title>
<path fill="#fae6d7" stroke="black" d="M378,-157C378,-157 280,-157 280,-157 274,-157 268,-151 268,-145 268,-145 268,-101 268,-101 268,-95 274,-89 280,-89 280,-89 378,-89 378,-89 384,-89 390,-95 390,-101 390,-101 390,-145 390,-145 390,-151 384,-157 378,-157"/>
<text text-anchor="middle" x="329" y="-141.8" font-family="Helvetica,sans-Serif" font-size="14.00">x1 &lt;= 0.772</text>
<text text-anchor="middle" x="329" y="-126.8" font-family="Helvetica,sans-Serif" font-size="14.00">mse = 0.074</text>
<text text-anchor="middle" x="329" y="-111.8" font-family="Helvetica,sans-Serif" font-size="14.00">samples = 156</text>
<text text-anchor="middle" x="329" y="-96.8" font-family="Helvetica,sans-Serif" font-size="14.00">value = 0.259</text>
</g>
<!-- 0&#45;&gt;4 -->
<g id="edge4" class="edge">
<title>0&#45;&gt;4</title>
<path fill="none" stroke="black" d="M282.4,-192.88C288.25,-184.24 294.62,-174.82 300.73,-165.79"/>
<polygon fill="black" stroke="black" points="303.77,-167.54 306.47,-157.3 297.97,-163.62 303.77,-167.54"/>
<text text-anchor="middle" x="311.21" y="-178.15" font-family="Helvetica,sans-Serif" font-size="14.00">False</text>
</g>
<!-- 2 -->
<g id="node3" class="node">
<title>2</title>
<path fill="#e58139" stroke="black" d="M104,-53C104,-53 12,-53 12,-53 6,-53 0,-47 0,-41 0,-41 0,-12 0,-12 0,-6 6,0 12,0 12,0 104,0 104,0 110,0 116,-6 116,-12 116,-12 116,-41 116,-41 116,-47 110,-53 104,-53"/>
<text text-anchor="middle" x="58" y="-37.8" font-family="Helvetica,sans-Serif" font-size="14.00">mse = 0.018</text>
<text text-anchor="middle" x="58" y="-22.8" font-family="Helvetica,sans-Serif" font-size="14.00">samples = 20</text>
<text text-anchor="middle" x="58" y="-7.8" font-family="Helvetica,sans-Serif" font-size="14.00">value = 0.854</text>
</g>
<!-- 1&#45;&gt;2 -->
<g id="edge2" class="edge">
<title>1&#45;&gt;2</title>
<path fill="none" stroke="black" d="M145.13,-88.95C131.38,-79.25 116.39,-68.68 102.77,-59.07"/>
<polygon fill="black" stroke="black" points="104.68,-56.14 94.49,-53.24 100.65,-61.86 104.68,-56.14"/>
</g>
<!-- 3 -->
<g id="node4" class="node">
<title>3</title>
<path fill="#f0b489" stroke="black" d="M238,-53C238,-53 146,-53 146,-53 140,-53 134,-47 134,-41 134,-41 134,-12 134,-12 134,-6 140,0 146,0 146,0 238,0 238,0 244,0 250,-6 250,-12 250,-12 250,-41 250,-41 250,-47 244,-53 238,-53"/>
<text text-anchor="middle" x="192" y="-37.8" font-family="Helvetica,sans-Serif" font-size="14.00">mse = 0.013</text>
<text text-anchor="middle" x="192" y="-22.8" font-family="Helvetica,sans-Serif" font-size="14.00">samples = 24</text>
<text text-anchor="middle" x="192" y="-7.8" font-family="Helvetica,sans-Serif" font-size="14.00">value = 0.552</text>
</g>
<!-- 1&#45;&gt;3 -->
<g id="edge3" class="edge">
<title>1&#45;&gt;3</title>
<path fill="none" stroke="black" d="M192,-88.95C192,-80.72 192,-71.85 192,-63.48"/>
<polygon fill="black" stroke="black" points="195.5,-63.24 192,-53.24 188.5,-63.24 195.5,-63.24"/>
</g>
<!-- 5 -->
<g id="node6" class="node">
<title>5</title>
<path fill="#ffffff" stroke="black" d="M378,-53C378,-53 280,-53 280,-53 274,-53 268,-47 268,-41 268,-41 268,-12 268,-12 268,-6 274,0 280,0 280,0 378,0 378,0 384,0 390,-6 390,-12 390,-12 390,-41 390,-41 390,-47 384,-53 378,-53"/>
<text text-anchor="middle" x="329" y="-37.8" font-family="Helvetica,sans-Serif" font-size="14.00">mse = 0.015</text>
<text text-anchor="middle" x="329" y="-22.8" font-family="Helvetica,sans-Serif" font-size="14.00">samples = 110</text>
<text text-anchor="middle" x="329" y="-7.8" font-family="Helvetica,sans-Serif" font-size="14.00">value = 0.111</text>
</g>
<!-- 4&#45;&gt;5 -->
<g id="edge5" class="edge">
<title>4&#45;&gt;5</title>
<path fill="none" stroke="black" d="M329,-88.95C329,-80.72 329,-71.85 329,-63.48"/>
<polygon fill="black" stroke="black" points="332.5,-63.24 329,-53.24 325.5,-63.24 332.5,-63.24"/>
</g>
<!-- 6 -->
<g id="node7" class="node">
<title>6</title>
<path fill="#edaa79" stroke="black" d="M512,-53C512,-53 420,-53 420,-53 414,-53 408,-47 408,-41 408,-41 408,-12 408,-12 408,-6 414,0 420,0 420,0 512,0 512,0 518,0 524,-6 524,-12 524,-12 524,-41 524,-41 524,-47 518,-53 512,-53"/>
<text text-anchor="middle" x="466" y="-37.8" font-family="Helvetica,sans-Serif" font-size="14.00">mse = 0.036</text>
<text text-anchor="middle" x="466" y="-22.8" font-family="Helvetica,sans-Serif" font-size="14.00">samples = 46</text>
<text text-anchor="middle" x="466" y="-7.8" font-family="Helvetica,sans-Serif" font-size="14.00">value = 0.615</text>
</g>
<!-- 4&#45;&gt;6 -->
<g id="edge6" class="edge">
<title>4&#45;&gt;6</title>
<path fill="none" stroke="black" d="M376.92,-88.95C390.97,-79.25 406.31,-68.68 420.23,-59.07"/>
<polygon fill="black" stroke="black" points="422.44,-61.8 428.69,-53.24 418.47,-56.03 422.44,-61.8"/>
</g>
</g>
</svg>
