<?xml version="1.0" encoding="UTF-8" standalone="no"?>
<!DOCTYPE svg PUBLIC "-//W3C//DTD SVG 1.1//EN"
 "http://www.w3.org/Graphics/SVG/1.1/DTD/svg11.dtd">
<!-- Generated by graphviz version 2.43.0 (0)
 -->
<!-- Title: %3 Pages: 1 -->
<svg width="368pt" height="548pt"
 viewBox="0.00 0.00 367.89 548.00" xmlns="http://www.w3.org/2000/svg" xmlns:xlink="http://www.w3.org/1999/xlink">
<g id="graph0" class="graph" transform="scale(1 1) rotate(0) translate(4 544)">
<title>%3</title>
<polygon fill="white" stroke="transparent" points="-4,4 -4,-544 363.89,-544 363.89,4 -4,4"/>
<!-- 1.2.3 -->
<g id="node1" class="node">
<title>1.2.3</title>
<ellipse fill="none" stroke="black" cx="179.95" cy="-522" rx="34.39" ry="18"/>
<text text-anchor="middle" x="179.95" y="-518.3" font-family="Times,serif" font-size="14.00">1.2.3</text>
</g>
<!-- 1.2 + 1.3 + 2.3 -->
<g id="node2" class="node">
<title>1.2 + 1.3 + 2.3</title>
<ellipse fill="none" stroke="black" cx="179.95" cy="-450" rx="81.79" ry="18"/>
<text text-anchor="middle" x="179.95" y="-446.3" font-family="Times,serif" font-size="14.00">1.2 + 1.3 + 2.3</text>
</g>
<!-- 1.2.3&#45;&gt;1.2 + 1.3 + 2.3 -->
<g id="edge1" class="edge">
<title>1.2.3&#45;&gt;1.2 + 1.3 + 2.3</title>
<path fill="none" stroke="black" d="M179.95,-503.7C179.95,-495.98 179.95,-486.71 179.95,-478.11"/>
<polygon fill="black" stroke="black" points="183.45,-478.1 179.95,-468.1 176.45,-478.1 183.45,-478.1"/>
</g>
<!-- 1.2 + 1.3 -->
<g id="node3" class="node">
<title>1.2 + 1.3</title>
<ellipse fill="none" stroke="black" cx="53.95" cy="-378" rx="53.89" ry="18"/>
<text text-anchor="middle" x="53.95" y="-374.3" font-family="Times,serif" font-size="14.00">1.2 + 1.3</text>
</g>
<!-- 1.2 + 1.3 + 2.3&#45;&gt;1.2 + 1.3 -->
<g id="edge2" class="edge">
<title>1.2 + 1.3 + 2.3&#45;&gt;1.2 + 1.3</title>
<path fill="none" stroke="black" d="M151.35,-433.12C133.05,-422.95 109.16,-409.67 89.62,-398.82"/>
<polygon fill="black" stroke="black" points="91.14,-395.66 80.7,-393.86 87.74,-401.78 91.14,-395.66"/>
</g>
<!-- 1.2 + 2.3 -->
<g id="node4" class="node">
<title>1.2 + 2.3</title>
<ellipse fill="none" stroke="black" cx="179.95" cy="-378" rx="53.89" ry="18"/>
<text text-anchor="middle" x="179.95" y="-374.3" font-family="Times,serif" font-size="14.00">1.2 + 2.3</text>
</g>
<!-- 1.2 + 1.3 + 2.3&#45;&gt;1.2 + 2.3 -->
<g id="edge3" class="edge">
<title>1.2 + 1.3 + 2.3&#45;&gt;1.2 + 2.3</title>
<path fill="none" stroke="black" d="M179.95,-431.7C179.95,-423.98 179.95,-414.71 179.95,-406.11"/>
<polygon fill="black" stroke="black" points="183.45,-406.1 179.95,-396.1 176.45,-406.1 183.45,-406.1"/>
</g>
<!-- 1.3 + 2.3 -->
<g id="node5" class="node">
<title>1.3 + 2.3</title>
<ellipse fill="none" stroke="black" cx="305.95" cy="-378" rx="53.89" ry="18"/>
<text text-anchor="middle" x="305.95" y="-374.3" font-family="Times,serif" font-size="14.00">1.3 + 2.3</text>
</g>
<!-- 1.2 + 1.3 + 2.3&#45;&gt;1.3 + 2.3 -->
<g id="edge4" class="edge">
<title>1.2 + 1.3 + 2.3&#45;&gt;1.3 + 2.3</title>
<path fill="none" stroke="black" d="M208.54,-433.12C226.84,-422.95 250.73,-409.67 270.27,-398.82"/>
<polygon fill="black" stroke="black" points="272.15,-401.78 279.19,-393.86 268.75,-395.66 272.15,-401.78"/>
</g>
<!-- 1.2 + 3 -->
<g id="node6" class="node">
<title>1.2 + 3</title>
<ellipse fill="none" stroke="black" cx="71.95" cy="-306" rx="44.69" ry="18"/>
<text text-anchor="middle" x="71.95" y="-302.3" font-family="Times,serif" font-size="14.00">1.2 + 3</text>
</g>
<!-- 1.2 + 1.3&#45;&gt;1.2 + 3 -->
<g id="edge5" class="edge">
<title>1.2 + 1.3&#45;&gt;1.2 + 3</title>
<path fill="none" stroke="black" d="M58.3,-360.05C60.31,-352.26 62.73,-342.82 64.98,-334.08"/>
<polygon fill="black" stroke="black" points="68.4,-334.83 67.5,-324.28 61.62,-333.09 68.4,-334.83"/>
</g>
<!-- 1.3 + 2 -->
<g id="node7" class="node">
<title>1.3 + 2</title>
<ellipse fill="none" stroke="black" cx="188.95" cy="-306" rx="44.69" ry="18"/>
<text text-anchor="middle" x="188.95" y="-302.3" font-family="Times,serif" font-size="14.00">1.3 + 2</text>
</g>
<!-- 1.2 + 1.3&#45;&gt;1.3 + 2 -->
<g id="edge7" class="edge">
<title>1.2 + 1.3&#45;&gt;1.3 + 2</title>
<path fill="none" stroke="black" d="M81.92,-362.5C102.6,-351.77 130.92,-337.09 153.23,-325.52"/>
<polygon fill="black" stroke="black" points="155.12,-328.48 162.39,-320.77 151.9,-322.27 155.12,-328.48"/>
</g>
<!-- 1.2 + 2.3&#45;&gt;1.2 + 3 -->
<g id="edge6" class="edge">
<title>1.2 + 2.3&#45;&gt;1.2 + 3</title>
<path fill="none" stroke="black" d="M156.24,-361.64C140.59,-351.49 119.92,-338.1 102.96,-327.11"/>
<polygon fill="black" stroke="black" points="104.78,-324.11 94.48,-321.61 100.97,-329.98 104.78,-324.11"/>
</g>
<!-- 2.3 + 1 -->
<g id="node8" class="node">
<title>2.3 + 1</title>
<ellipse fill="none" stroke="black" cx="300.95" cy="-306" rx="44.69" ry="18"/>
<text text-anchor="middle" x="300.95" y="-302.3" font-family="Times,serif" font-size="14.00">2.3 + 1</text>
</g>
<!-- 1.2 + 2.3&#45;&gt;2.3 + 1 -->
<g id="edge9" class="edge">
<title>1.2 + 2.3&#45;&gt;2.3 + 1</title>
<path fill="none" stroke="black" d="M205.61,-362.15C223.69,-351.69 248.08,-337.58 267.66,-326.26"/>
<polygon fill="black" stroke="black" points="269.66,-329.14 276.56,-321.11 266.15,-323.09 269.66,-329.14"/>
</g>
<!-- 1.3 + 2.3&#45;&gt;1.3 + 2 -->
<g id="edge8" class="edge">
<title>1.3 + 2.3&#45;&gt;1.3 + 2</title>
<path fill="none" stroke="black" d="M280.85,-361.98C263.53,-351.63 240.36,-337.76 221.61,-326.54"/>
<polygon fill="black" stroke="black" points="223.18,-323.41 212.8,-321.27 219.59,-329.41 223.18,-323.41"/>
</g>
<!-- 1.3 + 2.3&#45;&gt;2.3 + 1 -->
<g id="edge10" class="edge">
<title>1.3 + 2.3&#45;&gt;2.3 + 1</title>
<path fill="none" stroke="black" d="M304.71,-359.7C304.16,-351.98 303.5,-342.71 302.88,-334.11"/>
<polygon fill="black" stroke="black" points="306.37,-333.83 302.17,-324.1 299.39,-334.33 306.37,-333.83"/>
</g>
<!-- 1 + 2 + 3 -->
<g id="node9" class="node">
<title>1 + 2 + 3</title>
<ellipse fill="none" stroke="black" cx="143.95" cy="-234" rx="55.79" ry="18"/>
<text text-anchor="middle" x="143.95" y="-230.3" font-family="Times,serif" font-size="14.00">1 + 2 + 3</text>
</g>
<!-- 1.2 + 3&#45;&gt;1 + 2 + 3 -->
<g id="edge11" class="edge">
<title>1.2 + 3&#45;&gt;1 + 2 + 3</title>
<path fill="none" stroke="black" d="M88.28,-289.12C97.63,-280.03 109.53,-268.46 119.93,-258.35"/>
<polygon fill="black" stroke="black" points="122.44,-260.79 127.17,-251.31 117.56,-255.77 122.44,-260.79"/>
</g>
<!-- 1.2 -->
<g id="node10" class="node">
<title>1.2</title>
<ellipse fill="none" stroke="black" cx="42.95" cy="-234" rx="27" ry="18"/>
<text text-anchor="middle" x="42.95" y="-230.3" font-family="Times,serif" font-size="14.00">1.2</text>
</g>
<!-- 1.2 + 3&#45;&gt;1.2 -->
<g id="edge14" class="edge">
<title>1.2 + 3&#45;&gt;1.2</title>
<path fill="none" stroke="black" d="M64.93,-288.05C61.58,-279.97 57.5,-270.12 53.76,-261.11"/>
<polygon fill="black" stroke="black" points="56.96,-259.69 49.9,-251.79 50.49,-262.37 56.96,-259.69"/>
</g>
<!-- 1.3 + 2&#45;&gt;1 + 2 + 3 -->
<g id="edge12" class="edge">
<title>1.3 + 2&#45;&gt;1 + 2 + 3</title>
<path fill="none" stroke="black" d="M178.28,-288.41C172.92,-280.08 166.31,-269.8 160.33,-260.49"/>
<polygon fill="black" stroke="black" points="163.2,-258.48 154.85,-251.96 157.31,-262.26 163.2,-258.48"/>
</g>
<!-- 1.3 -->
<g id="node11" class="node">
<title>1.3</title>
<ellipse fill="none" stroke="black" cx="244.95" cy="-234" rx="27" ry="18"/>
<text text-anchor="middle" x="244.95" y="-230.3" font-family="Times,serif" font-size="14.00">1.3</text>
</g>
<!-- 1.3 + 2&#45;&gt;1.3 -->
<g id="edge15" class="edge">
<title>1.3 + 2&#45;&gt;1.3</title>
<path fill="none" stroke="black" d="M201.93,-288.76C209.2,-279.68 218.39,-268.19 226.4,-258.18"/>
<polygon fill="black" stroke="black" points="229.28,-260.18 232.79,-250.19 223.81,-255.81 229.28,-260.18"/>
</g>
<!-- 2.3 + 1&#45;&gt;1 + 2 + 3 -->
<g id="edge13" class="edge">
<title>2.3 + 1&#45;&gt;1 + 2 + 3</title>
<path fill="none" stroke="black" d="M272.15,-292.16C247.6,-281.22 212.04,-265.36 184.59,-253.12"/>
<polygon fill="black" stroke="black" points="185.81,-249.83 175.25,-248.96 182.96,-256.23 185.81,-249.83"/>
</g>
<!-- 2.3 -->
<g id="node12" class="node">
<title>2.3</title>
<ellipse fill="none" stroke="black" cx="316.95" cy="-234" rx="27" ry="18"/>
<text text-anchor="middle" x="316.95" y="-230.3" font-family="Times,serif" font-size="14.00">2.3</text>
</g>
<!-- 2.3 + 1&#45;&gt;2.3 -->
<g id="edge16" class="edge">
<title>2.3 + 1&#45;&gt;2.3</title>
<path fill="none" stroke="black" d="M304.82,-288.05C306.6,-280.26 308.76,-270.82 310.76,-262.08"/>
<polygon fill="black" stroke="black" points="314.18,-262.8 313,-252.28 307.36,-261.24 314.18,-262.8"/>
</g>
<!-- 1 + 2 -->
<g id="node13" class="node">
<title>1 + 2</title>
<ellipse fill="none" stroke="black" cx="93.95" cy="-162" rx="36.29" ry="18"/>
<text text-anchor="middle" x="93.95" y="-158.3" font-family="Times,serif" font-size="14.00">1 + 2</text>
</g>
<!-- 1 + 2 + 3&#45;&gt;1 + 2 -->
<g id="edge20" class="edge">
<title>1 + 2 + 3&#45;&gt;1 + 2</title>
<path fill="none" stroke="black" d="M131.84,-216.05C125.73,-207.5 118.21,-196.97 111.49,-187.56"/>
<polygon fill="black" stroke="black" points="114.25,-185.41 105.59,-179.31 108.56,-189.48 114.25,-185.41"/>
</g>
<!-- 1 + 3 -->
<g id="node14" class="node">
<title>1 + 3</title>
<ellipse fill="none" stroke="black" cx="184.95" cy="-162" rx="36.29" ry="18"/>
<text text-anchor="middle" x="184.95" y="-158.3" font-family="Times,serif" font-size="14.00">1 + 3</text>
</g>
<!-- 1 + 2 + 3&#45;&gt;1 + 3 -->
<g id="edge21" class="edge">
<title>1 + 2 + 3&#45;&gt;1 + 3</title>
<path fill="none" stroke="black" d="M153.87,-216.05C158.7,-207.8 164.62,-197.7 169.99,-188.54"/>
<polygon fill="black" stroke="black" points="173.08,-190.19 175.11,-179.79 167.04,-186.65 173.08,-190.19"/>
</g>
<!-- 2 + 3 -->
<g id="node15" class="node">
<title>2 + 3</title>
<ellipse fill="none" stroke="black" cx="275.95" cy="-162" rx="36.29" ry="18"/>
<text text-anchor="middle" x="275.95" y="-158.3" font-family="Times,serif" font-size="14.00">2 + 3</text>
</g>
<!-- 1 + 2 + 3&#45;&gt;2 + 3 -->
<g id="edge22" class="edge">
<title>1 + 2 + 3&#45;&gt;2 + 3</title>
<path fill="none" stroke="black" d="M171.62,-218.33C192.39,-207.31 220.91,-192.19 242.88,-180.53"/>
<polygon fill="black" stroke="black" points="244.66,-183.55 251.86,-175.77 241.38,-177.37 244.66,-183.55"/>
</g>
<!-- 1.2&#45;&gt;1 + 2 -->
<g id="edge17" class="edge">
<title>1.2&#45;&gt;1 + 2</title>
<path fill="none" stroke="black" d="M54.26,-217.46C60.62,-208.74 68.7,-197.65 75.9,-187.76"/>
<polygon fill="black" stroke="black" points="78.89,-189.61 81.95,-179.47 73.23,-185.49 78.89,-189.61"/>
</g>
<!-- 1.3&#45;&gt;1 + 3 -->
<g id="edge18" class="edge">
<title>1.3&#45;&gt;1 + 3</title>
<path fill="none" stroke="black" d="M231.93,-217.81C224.2,-208.8 214.24,-197.18 205.48,-186.95"/>
<polygon fill="black" stroke="black" points="207.94,-184.45 198.77,-179.13 202.62,-189 207.94,-184.45"/>
</g>
<!-- 2.3&#45;&gt;2 + 3 -->
<g id="edge19" class="edge">
<title>2.3&#45;&gt;2 + 3</title>
<path fill="none" stroke="black" d="M307.44,-216.76C302.49,-208.32 296.33,-197.8 290.77,-188.31"/>
<polygon fill="black" stroke="black" points="293.76,-186.49 285.69,-179.63 287.72,-190.03 293.76,-186.49"/>
</g>
<!-- 1 -->
<g id="node16" class="node">
<title>1</title>
<ellipse fill="none" stroke="black" cx="112.95" cy="-90" rx="27" ry="18"/>
<text text-anchor="middle" x="112.95" y="-86.3" font-family="Times,serif" font-size="14.00">1</text>
</g>
<!-- 1 + 2&#45;&gt;1 -->
<g id="edge23" class="edge">
<title>1 + 2&#45;&gt;1</title>
<path fill="none" stroke="black" d="M98.54,-144.05C100.69,-136.14 103.3,-126.54 105.7,-117.69"/>
<polygon fill="black" stroke="black" points="109.15,-118.36 108.39,-107.79 102.39,-116.52 109.15,-118.36"/>
</g>
<!-- 2 -->
<g id="node17" class="node">
<title>2</title>
<ellipse fill="none" stroke="black" cx="184.95" cy="-90" rx="27" ry="18"/>
<text text-anchor="middle" x="184.95" y="-86.3" font-family="Times,serif" font-size="14.00">2</text>
</g>
<!-- 1 + 2&#45;&gt;2 -->
<g id="edge24" class="edge">
<title>1 + 2&#45;&gt;2</title>
<path fill="none" stroke="black" d="M112.8,-146.5C126.38,-136.05 144.84,-121.85 159.69,-110.42"/>
<polygon fill="black" stroke="black" points="162.16,-112.94 167.96,-104.07 157.9,-107.39 162.16,-112.94"/>
</g>
<!-- 1 + 3&#45;&gt;1 -->
<g id="edge25" class="edge">
<title>1 + 3&#45;&gt;1</title>
<path fill="none" stroke="black" d="M168.97,-145.46C159,-135.78 146.04,-123.17 135.09,-112.53"/>
<polygon fill="black" stroke="black" points="137.51,-110 127.9,-105.54 132.63,-115.02 137.51,-110"/>
</g>
<!-- 3 -->
<g id="node18" class="node">
<title>3</title>
<ellipse fill="none" stroke="black" cx="256.95" cy="-90" rx="27" ry="18"/>
<text text-anchor="middle" x="256.95" y="-86.3" font-family="Times,serif" font-size="14.00">3</text>
</g>
<!-- 1 + 3&#45;&gt;3 -->
<g id="edge26" class="edge">
<title>1 + 3&#45;&gt;3</title>
<path fill="none" stroke="black" d="M200.92,-145.46C210.89,-135.78 223.85,-123.17 234.8,-112.53"/>
<polygon fill="black" stroke="black" points="237.26,-115.02 241.99,-105.54 232.38,-110 237.26,-115.02"/>
</g>
<!-- 2 + 3&#45;&gt;2 -->
<g id="edge27" class="edge">
<title>2 + 3&#45;&gt;2</title>
<path fill="none" stroke="black" d="M257.09,-146.5C243.51,-136.05 225.05,-121.85 210.2,-110.42"/>
<polygon fill="black" stroke="black" points="212,-107.39 201.93,-104.07 207.73,-112.94 212,-107.39"/>
</g>
<!-- 2 + 3&#45;&gt;3 -->
<g id="edge28" class="edge">
<title>2 + 3&#45;&gt;3</title>
<path fill="none" stroke="black" d="M271.35,-144.05C269.2,-136.14 266.59,-126.54 264.19,-117.69"/>
<polygon fill="black" stroke="black" points="267.5,-116.52 261.5,-107.79 260.74,-118.36 267.5,-116.52"/>
</g>
<!-- 0 -->
<g id="node19" class="node">
<title>0</title>
<ellipse fill="none" stroke="black" cx="184.95" cy="-18" rx="27" ry="18"/>
<text text-anchor="middle" x="184.95" y="-14.3" font-family="Times,serif" font-size="14.00">0</text>
</g>
<!-- 1&#45;&gt;0 -->
<g id="edge29" class="edge">
<title>1&#45;&gt;0</title>
<path fill="none" stroke="black" d="M127.52,-74.83C137.7,-64.94 151.47,-51.55 162.98,-40.36"/>
<polygon fill="black" stroke="black" points="165.42,-42.87 170.15,-33.38 160.54,-37.85 165.42,-42.87"/>
</g>
<!-- 2&#45;&gt;0 -->
<g id="edge30" class="edge">
<title>2&#45;&gt;0</title>
<path fill="none" stroke="black" d="M184.95,-71.7C184.95,-63.98 184.95,-54.71 184.95,-46.11"/>
<polygon fill="black" stroke="black" points="188.45,-46.1 184.95,-36.1 181.45,-46.1 188.45,-46.1"/>
</g>
<!-- 3&#45;&gt;0 -->
<g id="edge31" class="edge">
<title>3&#45;&gt;0</title>
<path fill="none" stroke="black" d="M242.37,-74.83C232.2,-64.94 218.42,-51.55 206.91,-40.36"/>
<polygon fill="black" stroke="black" points="209.35,-37.85 199.74,-33.38 204.47,-42.87 209.35,-37.85"/>
</g>
</g>
</svg>
