<?xml version="1.0" encoding="UTF-8" standalone="no"?>
<!DOCTYPE svg PUBLIC "-//W3C//DTD SVG 1.1//EN"
 "http://www.w3.org/Graphics/SVG/1.1/DTD/svg11.dtd">
<!-- Generated by graphviz version 2.43.0 (0)
 -->
<!-- Title: %3 Pages: 1 -->
<svg width="134pt" height="188pt"
 viewBox="0.00 0.00 134.00 188.00" xmlns="http://www.w3.org/2000/svg" xmlns:xlink="http://www.w3.org/1999/xlink">
<g id="graph0" class="graph" transform="scale(1 1) rotate(0) translate(4 184)">
<title>%3</title>
<polygon fill="white" stroke="transparent" points="-4,4 -4,-184 130,-184 130,4 -4,4"/>
<!-- X1 -->
<g id="node1" class="node">
<title>X1</title>
<ellipse fill="none" stroke="black" cx="27" cy="-162" rx="27" ry="18"/>
<text text-anchor="middle" x="27" y="-158.3" font-family="Times,serif" font-size="14.00">X1</text>
</g>
<!-- X2 -->
<g id="node2" class="node">
<title>X2</title>
<ellipse fill="none" stroke="black" cx="99" cy="-162" rx="27" ry="18"/>
<text text-anchor="middle" x="99" y="-158.3" font-family="Times,serif" font-size="14.00">X2</text>
</g>
<!-- X3 -->
<g id="node3" class="node">
<title>X3</title>
<ellipse fill="none" stroke="black" cx="71" cy="-90" rx="27" ry="18"/>
<text text-anchor="middle" x="71" y="-86.3" font-family="Times,serif" font-size="14.00">X3</text>
</g>
<!-- X2&#45;&#45;X3 -->
<g id="edge1" class="edge">
<title>X2&#45;&#45;X3</title>
<path fill="none" stroke="black" d="M92.36,-144.41C87.9,-133.25 82.04,-118.6 77.59,-107.47"/>
</g>
<!-- X4 -->
<g id="node4" class="node">
<title>X4</title>
<ellipse fill="none" stroke="black" cx="98" cy="-18" rx="27" ry="18"/>
<text text-anchor="middle" x="98" y="-14.3" font-family="Times,serif" font-size="14.00">X4</text>
</g>
<!-- X3&#45;&#45;X4 -->
<g id="edge2" class="edge">
<title>X3&#45;&#45;X4</title>
<path fill="none" stroke="black" d="M77.4,-72.41C81.64,-61.41 87.19,-47.03 91.46,-35.96"/>
</g>
<!-- X4&#45;&#45;X2 -->
<g id="edge3" class="edge">
<title>X4&#45;&#45;X2</title>
<path fill="none" stroke="black" d="M101.65,-36.09C103.68,-46.43 105.98,-59.91 107,-72 108.34,-87.94 108.2,-92.04 107,-108 106.09,-120.06 104.05,-133.54 102.25,-143.89"/>
</g>
</g>
</svg>
