<?xml version="1.0" encoding="UTF-8" standalone="no"?>
<!DOCTYPE svg PUBLIC "-//W3C//DTD SVG 1.1//EN"
 "http://www.w3.org/Graphics/SVG/1.1/DTD/svg11.dtd">
<!-- Generated by graphviz version 2.43.0 (0)
 -->
<!-- Title: %3 Pages: 1 -->
<svg width="255pt" height="392pt"
 viewBox="0.00 0.00 254.87 392.00" xmlns="http://www.w3.org/2000/svg" xmlns:xlink="http://www.w3.org/1999/xlink">
<g id="graph0" class="graph" transform="scale(1 1) rotate(0) translate(4 388)">
<title>%3</title>
<polygon fill="white" stroke="transparent" points="-4,4 -4,-388 250.87,-388 250.87,4 -4,4"/>
<!-- 1 -->
<g id="node1" class="node">
<title>1</title>
<ellipse fill="none" stroke="black" cx="108.87" cy="-192" rx="27" ry="18"/>
<text text-anchor="middle" x="108.87" y="-188.3" font-family="Times,serif" font-size="14.00">1</text>
</g>
<!-- 1&#45;&gt;1 -->
<g id="edge1" class="edge">
<title>1&#45;&gt;1</title>
<path fill="none" stroke="black" d="M133.4,-199.75C144.37,-200.49 153.87,-197.91 153.87,-192 153.87,-188.03 149.58,-185.56 143.44,-184.59"/>
<polygon fill="black" stroke="black" points="143.51,-181.09 133.4,-184.25 143.27,-188.09 143.51,-181.09"/>
<text text-anchor="middle" x="165.37" y="-188.3" font-family="Times,serif" font-size="14.00">1/3</text>
</g>
<!-- 3 -->
<g id="node2" class="node">
<title>3</title>
<ellipse fill="none" stroke="black" cx="40.87" cy="-105" rx="27" ry="18"/>
<text text-anchor="middle" x="40.87" y="-101.3" font-family="Times,serif" font-size="14.00">3</text>
</g>
<!-- 1&#45;&gt;3 -->
<g id="edge2" class="edge">
<title>1&#45;&gt;3</title>
<path fill="none" stroke="black" d="M96.71,-175.8C86.43,-162.95 71.52,-144.32 59.69,-129.54"/>
<polygon fill="black" stroke="black" points="62.13,-126.97 53.15,-121.35 56.66,-131.35 62.13,-126.97"/>
<text text-anchor="middle" x="90.37" y="-144.8" font-family="Times,serif" font-size="14.00">1/3</text>
</g>
<!-- 6 -->
<g id="node3" class="node">
<title>6</title>
<ellipse fill="none" stroke="black" cx="191.87" cy="-105" rx="27" ry="18"/>
<text text-anchor="middle" x="191.87" y="-101.3" font-family="Times,serif" font-size="14.00">6</text>
</g>
<!-- 1&#45;&gt;6 -->
<g id="edge3" class="edge">
<title>1&#45;&gt;6</title>
<path fill="none" stroke="black" d="M122.94,-176.58C135.94,-163.27 155.43,-143.31 170.38,-128.01"/>
<polygon fill="black" stroke="black" points="173.23,-130.09 177.72,-120.49 168.23,-125.2 173.23,-130.09"/>
<text text-anchor="middle" x="166.37" y="-144.8" font-family="Times,serif" font-size="14.00">1/3</text>
</g>
<!-- 5 -->
<g id="node5" class="node">
<title>5</title>
<ellipse fill="none" stroke="black" cx="40.87" cy="-18" rx="27" ry="18"/>
<text text-anchor="middle" x="40.87" y="-14.3" font-family="Times,serif" font-size="14.00">5</text>
</g>
<!-- 3&#45;&gt;5 -->
<g id="edge7" class="edge">
<title>3&#45;&gt;5</title>
<path fill="none" stroke="black" d="M32.27,-87.71C29.67,-81.96 27.17,-75.35 25.87,-69 24.2,-60.89 25.64,-52.19 28.17,-44.37"/>
<polygon fill="black" stroke="black" points="31.44,-45.61 31.82,-35.03 24.92,-43.07 31.44,-45.61"/>
<text text-anchor="middle" x="30.87" y="-57.8" font-family="Times,serif" font-size="14.00">1</text>
</g>
<!-- 6&#45;&gt;6 -->
<g id="edge13" class="edge">
<title>6&#45;&gt;6</title>
<path fill="none" stroke="black" d="M216.4,-112.75C227.37,-113.49 236.87,-110.91 236.87,-105 236.87,-101.03 232.58,-98.56 226.44,-97.59"/>
<polygon fill="black" stroke="black" points="226.51,-94.09 216.4,-97.25 226.27,-101.09 226.51,-94.09"/>
<text text-anchor="middle" x="241.87" y="-101.3" font-family="Times,serif" font-size="14.00">1</text>
</g>
<!-- 2 -->
<g id="node4" class="node">
<title>2</title>
<ellipse fill="none" stroke="black" cx="49.87" cy="-279" rx="27" ry="18"/>
<text text-anchor="middle" x="49.87" y="-275.3" font-family="Times,serif" font-size="14.00">2</text>
</g>
<!-- 2&#45;&gt;1 -->
<g id="edge4" class="edge">
<title>2&#45;&gt;1</title>
<path fill="none" stroke="black" d="M60.69,-262.41C69.45,-249.79 81.94,-231.79 92.01,-217.28"/>
<polygon fill="black" stroke="black" points="95.09,-218.99 97.91,-208.78 89.33,-215 95.09,-218.99"/>
<text text-anchor="middle" x="94.37" y="-231.8" font-family="Times,serif" font-size="14.00">1/2</text>
</g>
<!-- 2&#45;&gt;3 -->
<g id="edge6" class="edge">
<title>2&#45;&gt;3</title>
<path fill="none" stroke="black" d="M48.97,-260.88C47.41,-231 44.17,-169.11 42.29,-133.27"/>
<polygon fill="black" stroke="black" points="45.78,-132.86 41.76,-123.05 38.78,-133.22 45.78,-132.86"/>
<text text-anchor="middle" x="58.37" y="-188.3" font-family="Times,serif" font-size="14.00">1/4</text>
</g>
<!-- 2&#45;&gt;2 -->
<g id="edge5" class="edge">
<title>2&#45;&gt;2</title>
<path fill="none" stroke="black" d="M74.4,-286.75C85.37,-287.49 94.87,-284.91 94.87,-279 94.87,-275.03 90.58,-272.56 84.44,-271.59"/>
<polygon fill="black" stroke="black" points="84.51,-268.09 74.4,-271.25 84.27,-275.09 84.51,-268.09"/>
<text text-anchor="middle" x="106.37" y="-275.3" font-family="Times,serif" font-size="14.00">1/4</text>
</g>
<!-- 5&#45;&gt;3 -->
<g id="edge12" class="edge">
<title>5&#45;&gt;3</title>
<path fill="none" stroke="black" d="M40.87,-36.18C40.87,-47.81 40.87,-63.42 40.87,-76.73"/>
<polygon fill="black" stroke="black" points="37.37,-76.8 40.87,-86.8 44.37,-76.8 37.37,-76.8"/>
<text text-anchor="middle" x="45.87" y="-57.8" font-family="Times,serif" font-size="14.00">1</text>
</g>
<!-- 4 -->
<g id="node6" class="node">
<title>4</title>
<ellipse fill="none" stroke="black" cx="127.87" cy="-366" rx="27" ry="18"/>
<text text-anchor="middle" x="127.87" y="-362.3" font-family="Times,serif" font-size="14.00">4</text>
</g>
<!-- 4&#45;&gt;1 -->
<g id="edge8" class="edge">
<title>4&#45;&gt;1</title>
<path fill="none" stroke="black" d="M128.99,-347.97C130.07,-327.3 130.97,-291.42 126.87,-261 124.99,-247.1 121.17,-231.99 117.54,-219.55"/>
<polygon fill="black" stroke="black" points="120.83,-218.36 114.57,-209.81 114.14,-220.4 120.83,-218.36"/>
<text text-anchor="middle" x="140.37" y="-275.3" font-family="Times,serif" font-size="14.00">1/4</text>
</g>
<!-- 4&#45;&gt;3 -->
<g id="edge10" class="edge">
<title>4&#45;&gt;3</title>
<path fill="none" stroke="black" d="M103,-358.19C75.59,-349.21 32.87,-330.47 13.87,-297 -16.19,-244.07 10.04,-170.02 27.79,-131.52"/>
<polygon fill="black" stroke="black" points="31.14,-132.62 32.29,-122.09 24.82,-129.6 31.14,-132.62"/>
<text text-anchor="middle" x="12.37" y="-231.8" font-family="Times,serif" font-size="14.00">1/4</text>
</g>
<!-- 4&#45;&gt;6 -->
<g id="edge11" class="edge">
<title>4&#45;&gt;6</title>
<path fill="none" stroke="black" d="M135.12,-348.37C140.98,-334.68 149.32,-314.73 155.87,-297 170.03,-258.63 177.95,-250.13 185.87,-210 190.93,-184.31 192.19,-154.42 192.32,-133.29"/>
<polygon fill="black" stroke="black" points="195.82,-133.11 192.3,-123.11 188.82,-133.12 195.82,-133.11"/>
<text text-anchor="middle" x="192.37" y="-231.8" font-family="Times,serif" font-size="14.00">1/4</text>
</g>
<!-- 4&#45;&gt;2 -->
<g id="edge9" class="edge">
<title>4&#45;&gt;2</title>
<path fill="none" stroke="black" d="M114.28,-350.19C102.09,-336.91 84.03,-317.23 70.13,-302.08"/>
<polygon fill="black" stroke="black" points="72.64,-299.64 63.3,-294.64 67.48,-304.37 72.64,-299.64"/>
<text text-anchor="middle" x="104.37" y="-318.8" font-family="Times,serif" font-size="14.00">1/4</text>
</g>
</g>
</svg>
