<?xml version="1.0" encoding="utf-8" standalone="no"?>
<!DOCTYPE svg PUBLIC "-//W3C//DTD SVG 1.1//EN"
  "http://www.w3.org/Graphics/SVG/1.1/DTD/svg11.dtd">
<!-- Created with matplotlib (https://matplotlib.org/) -->
<svg height="432pt" version="1.1" viewBox="0 0 432 432" width="432pt" xmlns="http://www.w3.org/2000/svg" xmlns:xlink="http://www.w3.org/1999/xlink">
 <metadata>
  <rdf:RDF xmlns:cc="http://creativecommons.org/ns#" xmlns:dc="http://purl.org/dc/elements/1.1/" xmlns:rdf="http://www.w3.org/1999/02/22-rdf-syntax-ns#">
   <cc:Work>
    <dc:type rdf:resource="http://purl.org/dc/dcmitype/StillImage"/>
    <dc:date>2020-09-29T10:48:27.283429</dc:date>
    <dc:format>image/svg+xml</dc:format>
    <dc:creator>
     <cc:Agent>
      <dc:title>Matplotlib v3.3.1, https://matplotlib.org/</dc:title>
     </cc:Agent>
    </dc:creator>
   </cc:Work>
  </rdf:RDF>
 </metadata>
 <defs>
  <style type="text/css">*{stroke-linecap:butt;stroke-linejoin:round;}</style>
 </defs>
 <g id="figure_1">
  <g id="patch_1">
   <path d="M 0 432 
L 432 432 
L 432 0 
L 0 0 
z
" style="fill:#ffffff;"/>
  </g>
  <g id="axes_1">
   <g id="patch_2">
    <path d="M 54 384.48 
L 388.8 384.48 
L 388.8 51.84 
L 54 51.84 
z
" style="fill:#ffffff;"/>
   </g>
   <g id="matplotlib.axis_1">
    <g id="xtick_1">
     <g id="line2d_1">
      <defs>
       <path d="M 0 0 
L 0 3.5 
" id="m0828b57032" style="stroke:#000000;stroke-width:0.8;"/>
      </defs>
      <g>
       <use style="stroke:#000000;stroke-width:0.8;" x="99.758383" xlink:href="#m0828b57032" y="384.48"/>
      </g>
     </g>
     <g id="text_1">
      <!-- −1 -->
      <g transform="translate(92.387289 399.078438)scale(0.1 -0.1)">
       <defs>
        <path d="M 10.59375 35.5 
L 73.1875 35.5 
L 73.1875 27.203125 
L 10.59375 27.203125 
z
" id="DejaVuSans-8722"/>
        <path d="M 12.40625 8.296875 
L 28.515625 8.296875 
L 28.515625 63.921875 
L 10.984375 60.40625 
L 10.984375 69.390625 
L 28.421875 72.90625 
L 38.28125 72.90625 
L 38.28125 8.296875 
L 54.390625 8.296875 
L 54.390625 0 
L 12.40625 0 
z
" id="DejaVuSans-49"/>
       </defs>
       <use xlink:href="#DejaVuSans-8722"/>
       <use x="83.789062" xlink:href="#DejaVuSans-49"/>
      </g>
     </g>
    </g>
    <g id="xtick_2">
     <g id="line2d_2">
      <g>
       <use style="stroke:#000000;stroke-width:0.8;" x="155.668153" xlink:href="#m0828b57032" y="384.48"/>
      </g>
     </g>
     <g id="text_2">
      <!-- 0 -->
      <g transform="translate(152.486903 399.078438)scale(0.1 -0.1)">
       <defs>
        <path d="M 31.78125 66.40625 
Q 24.171875 66.40625 20.328125 58.90625 
Q 16.5 51.421875 16.5 36.375 
Q 16.5 21.390625 20.328125 13.890625 
Q 24.171875 6.390625 31.78125 6.390625 
Q 39.453125 6.390625 43.28125 13.890625 
Q 47.125 21.390625 47.125 36.375 
Q 47.125 51.421875 43.28125 58.90625 
Q 39.453125 66.40625 31.78125 66.40625 
z
M 31.78125 74.21875 
Q 44.046875 74.21875 50.515625 64.515625 
Q 56.984375 54.828125 56.984375 36.375 
Q 56.984375 17.96875 50.515625 8.265625 
Q 44.046875 -1.421875 31.78125 -1.421875 
Q 19.53125 -1.421875 13.0625 8.265625 
Q 6.59375 17.96875 6.59375 36.375 
Q 6.59375 54.828125 13.0625 64.515625 
Q 19.53125 74.21875 31.78125 74.21875 
z
" id="DejaVuSans-48"/>
       </defs>
       <use xlink:href="#DejaVuSans-48"/>
      </g>
     </g>
    </g>
    <g id="xtick_3">
     <g id="line2d_3">
      <g>
       <use style="stroke:#000000;stroke-width:0.8;" x="211.577923" xlink:href="#m0828b57032" y="384.48"/>
      </g>
     </g>
     <g id="text_3">
      <!-- 1 -->
      <g transform="translate(208.396673 399.078438)scale(0.1 -0.1)">
       <use xlink:href="#DejaVuSans-49"/>
      </g>
     </g>
    </g>
    <g id="xtick_4">
     <g id="line2d_4">
      <g>
       <use style="stroke:#000000;stroke-width:0.8;" x="267.487693" xlink:href="#m0828b57032" y="384.48"/>
      </g>
     </g>
     <g id="text_4">
      <!-- 2 -->
      <g transform="translate(264.306443 399.078438)scale(0.1 -0.1)">
       <defs>
        <path d="M 19.1875 8.296875 
L 53.609375 8.296875 
L 53.609375 0 
L 7.328125 0 
L 7.328125 8.296875 
Q 12.9375 14.109375 22.625 23.890625 
Q 32.328125 33.6875 34.8125 36.53125 
Q 39.546875 41.84375 41.421875 45.53125 
Q 43.3125 49.21875 43.3125 52.78125 
Q 43.3125 58.59375 39.234375 62.25 
Q 35.15625 65.921875 28.609375 65.921875 
Q 23.96875 65.921875 18.8125 64.3125 
Q 13.671875 62.703125 7.8125 59.421875 
L 7.8125 69.390625 
Q 13.765625 71.78125 18.9375 73 
Q 24.125 74.21875 28.421875 74.21875 
Q 39.75 74.21875 46.484375 68.546875 
Q 53.21875 62.890625 53.21875 53.421875 
Q 53.21875 48.921875 51.53125 44.890625 
Q 49.859375 40.875 45.40625 35.40625 
Q 44.1875 33.984375 37.640625 27.21875 
Q 31.109375 20.453125 19.1875 8.296875 
z
" id="DejaVuSans-50"/>
       </defs>
       <use xlink:href="#DejaVuSans-50"/>
      </g>
     </g>
    </g>
    <g id="xtick_5">
     <g id="line2d_5">
      <g>
       <use style="stroke:#000000;stroke-width:0.8;" x="323.397464" xlink:href="#m0828b57032" y="384.48"/>
      </g>
     </g>
     <g id="text_5">
      <!-- 3 -->
      <g transform="translate(320.216214 399.078438)scale(0.1 -0.1)">
       <defs>
        <path d="M 40.578125 39.3125 
Q 47.65625 37.796875 51.625 33 
Q 55.609375 28.21875 55.609375 21.1875 
Q 55.609375 10.40625 48.1875 4.484375 
Q 40.765625 -1.421875 27.09375 -1.421875 
Q 22.515625 -1.421875 17.65625 -0.515625 
Q 12.796875 0.390625 7.625 2.203125 
L 7.625 11.71875 
Q 11.71875 9.328125 16.59375 8.109375 
Q 21.484375 6.890625 26.8125 6.890625 
Q 36.078125 6.890625 40.9375 10.546875 
Q 45.796875 14.203125 45.796875 21.1875 
Q 45.796875 27.640625 41.28125 31.265625 
Q 36.765625 34.90625 28.71875 34.90625 
L 20.21875 34.90625 
L 20.21875 43.015625 
L 29.109375 43.015625 
Q 36.375 43.015625 40.234375 45.921875 
Q 44.09375 48.828125 44.09375 54.296875 
Q 44.09375 59.90625 40.109375 62.90625 
Q 36.140625 65.921875 28.71875 65.921875 
Q 24.65625 65.921875 20.015625 65.03125 
Q 15.375 64.15625 9.8125 62.3125 
L 9.8125 71.09375 
Q 15.4375 72.65625 20.34375 73.4375 
Q 25.25 74.21875 29.59375 74.21875 
Q 40.828125 74.21875 47.359375 69.109375 
Q 53.90625 64.015625 53.90625 55.328125 
Q 53.90625 49.265625 50.4375 45.09375 
Q 46.96875 40.921875 40.578125 39.3125 
z
" id="DejaVuSans-51"/>
       </defs>
       <use xlink:href="#DejaVuSans-51"/>
      </g>
     </g>
    </g>
    <g id="xtick_6">
     <g id="line2d_6">
      <g>
       <use style="stroke:#000000;stroke-width:0.8;" x="379.307234" xlink:href="#m0828b57032" y="384.48"/>
      </g>
     </g>
     <g id="text_6">
      <!-- 4 -->
      <g transform="translate(376.125984 399.078438)scale(0.1 -0.1)">
       <defs>
        <path d="M 37.796875 64.3125 
L 12.890625 25.390625 
L 37.796875 25.390625 
z
M 35.203125 72.90625 
L 47.609375 72.90625 
L 47.609375 25.390625 
L 58.015625 25.390625 
L 58.015625 17.1875 
L 47.609375 17.1875 
L 47.609375 0 
L 37.796875 0 
L 37.796875 17.1875 
L 4.890625 17.1875 
L 4.890625 26.703125 
z
" id="DejaVuSans-52"/>
       </defs>
       <use xlink:href="#DejaVuSans-52"/>
      </g>
     </g>
    </g>
   </g>
   <g id="matplotlib.axis_2">
    <g id="ytick_1">
     <g id="line2d_7">
      <defs>
       <path d="M 0 0 
L -3.5 0 
" id="mb172c9b083" style="stroke:#000000;stroke-width:0.8;"/>
      </defs>
      <g>
       <use style="stroke:#000000;stroke-width:0.8;" x="54" xlink:href="#mb172c9b083" y="354.705394"/>
      </g>
     </g>
     <g id="text_7">
      <!-- −2 -->
      <g transform="translate(32.257812 358.504613)scale(0.1 -0.1)">
       <use xlink:href="#DejaVuSans-8722"/>
       <use x="83.789062" xlink:href="#DejaVuSans-50"/>
      </g>
     </g>
    </g>
    <g id="ytick_2">
     <g id="line2d_8">
      <g>
       <use style="stroke:#000000;stroke-width:0.8;" x="54" xlink:href="#mb172c9b083" y="300.830274"/>
      </g>
     </g>
     <g id="text_8">
      <!-- −1 -->
      <g transform="translate(32.257812 304.629493)scale(0.1 -0.1)">
       <use xlink:href="#DejaVuSans-8722"/>
       <use x="83.789062" xlink:href="#DejaVuSans-49"/>
      </g>
     </g>
    </g>
    <g id="ytick_3">
     <g id="line2d_9">
      <g>
       <use style="stroke:#000000;stroke-width:0.8;" x="54" xlink:href="#mb172c9b083" y="246.955154"/>
      </g>
     </g>
     <g id="text_9">
      <!-- 0 -->
      <g transform="translate(40.6375 250.754373)scale(0.1 -0.1)">
       <use xlink:href="#DejaVuSans-48"/>
      </g>
     </g>
    </g>
    <g id="ytick_4">
     <g id="line2d_10">
      <g>
       <use style="stroke:#000000;stroke-width:0.8;" x="54" xlink:href="#mb172c9b083" y="193.080035"/>
      </g>
     </g>
     <g id="text_10">
      <!-- 1 -->
      <g transform="translate(40.6375 196.879253)scale(0.1 -0.1)">
       <use xlink:href="#DejaVuSans-49"/>
      </g>
     </g>
    </g>
    <g id="ytick_5">
     <g id="line2d_11">
      <g>
       <use style="stroke:#000000;stroke-width:0.8;" x="54" xlink:href="#mb172c9b083" y="139.204915"/>
      </g>
     </g>
     <g id="text_11">
      <!-- 2 -->
      <g transform="translate(40.6375 143.004133)scale(0.1 -0.1)">
       <use xlink:href="#DejaVuSans-50"/>
      </g>
     </g>
    </g>
    <g id="ytick_6">
     <g id="line2d_12">
      <g>
       <use style="stroke:#000000;stroke-width:0.8;" x="54" xlink:href="#mb172c9b083" y="85.329795"/>
      </g>
     </g>
     <g id="text_12">
      <!-- 3 -->
      <g transform="translate(40.6375 89.129014)scale(0.1 -0.1)">
       <use xlink:href="#DejaVuSans-51"/>
      </g>
     </g>
    </g>
   </g>
   <g id="line2d_13">
    <defs>
     <path d="M 0 3 
C 0.795609 3 1.55874 2.683901 2.12132 2.12132 
C 2.683901 1.55874 3 0.795609 3 0 
C 3 -0.795609 2.683901 -1.55874 2.12132 -2.12132 
C 1.55874 -2.683901 0.795609 -3 0 -3 
C -0.795609 -3 -1.55874 -2.683901 -2.12132 -2.12132 
C -2.683901 -1.55874 -3 -0.795609 -3 0 
C -3 0.795609 -2.683901 1.55874 -2.12132 2.12132 
C -1.55874 2.683901 -0.795609 3 0 3 
z
" id="m0c0aecfdb1" style="stroke:#1f77b4;"/>
    </defs>
    <g clip-path="url(#p42d6e0ca05)">
     <use style="fill:#1f77b4;stroke:#1f77b4;" x="325.923628" xlink:href="#m0c0aecfdb1" y="198.541268"/>
     <use style="fill:#1f77b4;stroke:#1f77b4;" x="264.00192" xlink:href="#m0c0aecfdb1" y="242.300026"/>
     <use style="fill:#1f77b4;stroke:#1f77b4;" x="298.373226" xlink:href="#m0c0aecfdb1" y="269.390027"/>
     <use style="fill:#1f77b4;stroke:#1f77b4;" x="154.579135" xlink:href="#m0c0aecfdb1" y="305.321501"/>
     <use style="fill:#1f77b4;stroke:#1f77b4;" x="305.262832" xlink:href="#m0c0aecfdb1" y="259.575388"/>
     <use style="fill:#1f77b4;stroke:#1f77b4;" x="312.363294" xlink:href="#m0c0aecfdb1" y="198.902218"/>
     <use style="fill:#1f77b4;stroke:#1f77b4;" x="195.340984" xlink:href="#m0c0aecfdb1" y="228.175293"/>
     <use style="fill:#1f77b4;stroke:#1f77b4;" x="276.130216" xlink:href="#m0c0aecfdb1" y="199.936346"/>
     <use style="fill:#1f77b4;stroke:#1f77b4;" x="186.300049" xlink:href="#m0c0aecfdb1" y="221.524296"/>
     <use style="fill:#1f77b4;stroke:#1f77b4;" x="350.315519" xlink:href="#m0c0aecfdb1" y="169.851886"/>
     <use style="fill:#1f77b4;stroke:#1f77b4;" x="299.439136" xlink:href="#m0c0aecfdb1" y="257.723205"/>
     <use style="fill:#1f77b4;stroke:#1f77b4;" x="172.383218" xlink:href="#m0c0aecfdb1" y="259.119299"/>
     <use style="fill:#1f77b4;stroke:#1f77b4;" x="145.517308" xlink:href="#m0c0aecfdb1" y="241.153308"/>
     <use style="fill:#1f77b4;stroke:#1f77b4;" x="120.730494" xlink:href="#m0c0aecfdb1" y="347.213685"/>
     <use style="fill:#1f77b4;stroke:#1f77b4;" x="158.227866" xlink:href="#m0c0aecfdb1" y="200.504879"/>
     <use style="fill:#1f77b4;stroke:#1f77b4;" x="371.383412" xlink:href="#m0c0aecfdb1" y="204.548958"/>
     <use style="fill:#1f77b4;stroke:#1f77b4;" x="152.270067" xlink:href="#m0c0aecfdb1" y="303.177389"/>
     <use style="fill:#1f77b4;stroke:#1f77b4;" x="287.032733" xlink:href="#m0c0aecfdb1" y="238.627019"/>
     <use style="fill:#1f77b4;stroke:#1f77b4;" x="142.020691" xlink:href="#m0c0aecfdb1" y="369.36"/>
     <use style="fill:#1f77b4;stroke:#1f77b4;" x="191.235525" xlink:href="#m0c0aecfdb1" y="281.94725"/>
     <use style="fill:#1f77b4;stroke:#1f77b4;" x="362.841206" xlink:href="#m0c0aecfdb1" y="162.207059"/>
     <use style="fill:#1f77b4;stroke:#1f77b4;" x="187.703497" xlink:href="#m0c0aecfdb1" y="278.419348"/>
     <use style="fill:#1f77b4;stroke:#1f77b4;" x="146.440037" xlink:href="#m0c0aecfdb1" y="234.182162"/>
     <use style="fill:#1f77b4;stroke:#1f77b4;" x="84.817596" xlink:href="#m0c0aecfdb1" y="311.226947"/>
     <use style="fill:#1f77b4;stroke:#1f77b4;" x="287.813919" xlink:href="#m0c0aecfdb1" y="184.872231"/>
     <use style="fill:#1f77b4;stroke:#1f77b4;" x="281.346497" xlink:href="#m0c0aecfdb1" y="180.984065"/>
     <use style="fill:#1f77b4;stroke:#1f77b4;" x="373.581818" xlink:href="#m0c0aecfdb1" y="235.390471"/>
     <use style="fill:#1f77b4;stroke:#1f77b4;" x="206.775741" xlink:href="#m0c0aecfdb1" y="216.439428"/>
     <use style="fill:#1f77b4;stroke:#1f77b4;" x="319.919394" xlink:href="#m0c0aecfdb1" y="286.473457"/>
     <use style="fill:#1f77b4;stroke:#1f77b4;" x="175.804854" xlink:href="#m0c0aecfdb1" y="197.345599"/>
     <use style="fill:#1f77b4;stroke:#1f77b4;" x="278.574708" xlink:href="#m0c0aecfdb1" y="249.498443"/>
     <use style="fill:#1f77b4;stroke:#1f77b4;" x="104.857772" xlink:href="#m0c0aecfdb1" y="330.486987"/>
     <use style="fill:#1f77b4;stroke:#1f77b4;" x="69.218182" xlink:href="#m0c0aecfdb1" y="307.371825"/>
     <use style="fill:#1f77b4;stroke:#1f77b4;" x="151.057335" xlink:href="#m0c0aecfdb1" y="230.464095"/>
     <use style="fill:#1f77b4;stroke:#1f77b4;" x="197.003321" xlink:href="#m0c0aecfdb1" y="231.189831"/>
     <use style="fill:#1f77b4;stroke:#1f77b4;" x="177.17557" xlink:href="#m0c0aecfdb1" y="224.727122"/>
     <use style="fill:#1f77b4;stroke:#1f77b4;" x="208.260179" xlink:href="#m0c0aecfdb1" y="270.870316"/>
     <use style="fill:#1f77b4;stroke:#1f77b4;" x="304.636291" xlink:href="#m0c0aecfdb1" y="248.119648"/>
     <use style="fill:#1f77b4;stroke:#1f77b4;" x="345.435698" xlink:href="#m0c0aecfdb1" y="173.028136"/>
     <use style="fill:#1f77b4;stroke:#1f77b4;" x="178.718294" xlink:href="#m0c0aecfdb1" y="282.859164"/>
     <use style="fill:#1f77b4;stroke:#1f77b4;" x="87.595151" xlink:href="#m0c0aecfdb1" y="309.736292"/>
     <use style="fill:#1f77b4;stroke:#1f77b4;" x="329.579275" xlink:href="#m0c0aecfdb1" y="208.641325"/>
     <use style="fill:#1f77b4;stroke:#1f77b4;" x="142.15996" xlink:href="#m0c0aecfdb1" y="244.079831"/>
     <use style="fill:#1f77b4;stroke:#1f77b4;" x="317.327667" xlink:href="#m0c0aecfdb1" y="233.978072"/>
     <use style="fill:#1f77b4;stroke:#1f77b4;" x="155.390123" xlink:href="#m0c0aecfdb1" y="291.722061"/>
     <use style="fill:#1f77b4;stroke:#1f77b4;" x="212.442857" xlink:href="#m0c0aecfdb1" y="267.07735"/>
     <use style="fill:#1f77b4;stroke:#1f77b4;" x="308.913026" xlink:href="#m0c0aecfdb1" y="289.170595"/>
     <use style="fill:#1f77b4;stroke:#1f77b4;" x="143.688487" xlink:href="#m0c0aecfdb1" y="266.729214"/>
     <use style="fill:#1f77b4;stroke:#1f77b4;" x="93.505589" xlink:href="#m0c0aecfdb1" y="333.906225"/>
     <use style="fill:#1f77b4;stroke:#1f77b4;" x="113.378664" xlink:href="#m0c0aecfdb1" y="322.993102"/>
     <use style="fill:#1f77b4;stroke:#1f77b4;" x="273.027097" xlink:href="#m0c0aecfdb1" y="266.495725"/>
     <use style="fill:#1f77b4;stroke:#1f77b4;" x="191.999466" xlink:href="#m0c0aecfdb1" y="261.663893"/>
     <use style="fill:#1f77b4;stroke:#1f77b4;" x="95.962967" xlink:href="#m0c0aecfdb1" y="279.237321"/>
     <use style="fill:#1f77b4;stroke:#1f77b4;" x="187.289522" xlink:href="#m0c0aecfdb1" y="185.598041"/>
     <use style="fill:#1f77b4;stroke:#1f77b4;" x="346.740427" xlink:href="#m0c0aecfdb1" y="238.125736"/>
     <use style="fill:#1f77b4;stroke:#1f77b4;" x="200.168078" xlink:href="#m0c0aecfdb1" y="263.0995"/>
     <use style="fill:#1f77b4;stroke:#1f77b4;" x="358.894876" xlink:href="#m0c0aecfdb1" y="184.804064"/>
     <use style="fill:#1f77b4;stroke:#1f77b4;" x="152.928714" xlink:href="#m0c0aecfdb1" y="219.750615"/>
     <use style="fill:#1f77b4;stroke:#1f77b4;" x="182.554191" xlink:href="#m0c0aecfdb1" y="346.340289"/>
     <use style="fill:#1f77b4;stroke:#1f77b4;" x="186.126026" xlink:href="#m0c0aecfdb1" y="211.193662"/>
     <use style="fill:#1f77b4;stroke:#1f77b4;" x="328.618931" xlink:href="#m0c0aecfdb1" y="212.349427"/>
     <use style="fill:#1f77b4;stroke:#1f77b4;" x="141.28754" xlink:href="#m0c0aecfdb1" y="365.472755"/>
     <use style="fill:#1f77b4;stroke:#1f77b4;" x="350.409974" xlink:href="#m0c0aecfdb1" y="202.466445"/>
     <use style="fill:#1f77b4;stroke:#1f77b4;" x="193.611294" xlink:href="#m0c0aecfdb1" y="287.017614"/>
     <use style="fill:#1f77b4;stroke:#1f77b4;" x="187.294724" xlink:href="#m0c0aecfdb1" y="243.667394"/>
     <use style="fill:#1f77b4;stroke:#1f77b4;" x="162.064408" xlink:href="#m0c0aecfdb1" y="251.880523"/>
     <use style="fill:#1f77b4;stroke:#1f77b4;" x="300.504053" xlink:href="#m0c0aecfdb1" y="179.027294"/>
     <use style="fill:#1f77b4;stroke:#1f77b4;" x="156.04826" xlink:href="#m0c0aecfdb1" y="234.355991"/>
     <use style="fill:#1f77b4;stroke:#1f77b4;" x="184.190498" xlink:href="#m0c0aecfdb1" y="280.262139"/>
     <use style="fill:#1f77b4;stroke:#1f77b4;" x="106.935509" xlink:href="#m0c0aecfdb1" y="309.391283"/>
     <use style="fill:#1f77b4;stroke:#1f77b4;" x="339.744011" xlink:href="#m0c0aecfdb1" y="194.832424"/>
     <use style="fill:#1f77b4;stroke:#1f77b4;" x="341.796926" xlink:href="#m0c0aecfdb1" y="220.539945"/>
     <use style="fill:#1f77b4;stroke:#1f77b4;" x="206.85801" xlink:href="#m0c0aecfdb1" y="262.449761"/>
     <use style="fill:#1f77b4;stroke:#1f77b4;" x="265.68195" xlink:href="#m0c0aecfdb1" y="222.374797"/>
     <use style="fill:#1f77b4;stroke:#1f77b4;" x="316.082905" xlink:href="#m0c0aecfdb1" y="204.114812"/>
     <use style="fill:#1f77b4;stroke:#1f77b4;" x="173.678895" xlink:href="#m0c0aecfdb1" y="237.57507"/>
     <use style="fill:#1f77b4;stroke:#1f77b4;" x="169.963298" xlink:href="#m0c0aecfdb1" y="234.170311"/>
     <use style="fill:#1f77b4;stroke:#1f77b4;" x="147.474731" xlink:href="#m0c0aecfdb1" y="298.056077"/>
     <use style="fill:#1f77b4;stroke:#1f77b4;" x="222.117876" xlink:href="#m0c0aecfdb1" y="228.719017"/>
     <use style="fill:#1f77b4;stroke:#1f77b4;" x="232.743337" xlink:href="#m0c0aecfdb1" y="177.319322"/>
     <use style="fill:#1f77b4;stroke:#1f77b4;" x="91.259811" xlink:href="#m0c0aecfdb1" y="330.165588"/>
     <use style="fill:#1f77b4;stroke:#1f77b4;" x="237.536496" xlink:href="#m0c0aecfdb1" y="265.961047"/>
     <use style="fill:#1f77b4;stroke:#1f77b4;" x="171.338225" xlink:href="#m0c0aecfdb1" y="330.372556"/>
     <use style="fill:#1f77b4;stroke:#1f77b4;" x="303.941835" xlink:href="#m0c0aecfdb1" y="192.709826"/>
     <use style="fill:#1f77b4;stroke:#1f77b4;" x="147.702631" xlink:href="#m0c0aecfdb1" y="271.988144"/>
     <use style="fill:#1f77b4;stroke:#1f77b4;" x="349.705949" xlink:href="#m0c0aecfdb1" y="196.946429"/>
     <use style="fill:#1f77b4;stroke:#1f77b4;" x="203.534766" xlink:href="#m0c0aecfdb1" y="266.990682"/>
     <use style="fill:#1f77b4;stroke:#1f77b4;" x="186.642224" xlink:href="#m0c0aecfdb1" y="239.813638"/>
     <use style="fill:#1f77b4;stroke:#1f77b4;" x="195.655668" xlink:href="#m0c0aecfdb1" y="249.666912"/>
     <use style="fill:#1f77b4;stroke:#1f77b4;" x="95.083172" xlink:href="#m0c0aecfdb1" y="330.755281"/>
     <use style="fill:#1f77b4;stroke:#1f77b4;" x="294.230268" xlink:href="#m0c0aecfdb1" y="257.430874"/>
     <use style="fill:#1f77b4;stroke:#1f77b4;" x="162.977955" xlink:href="#m0c0aecfdb1" y="268.260716"/>
     <use style="fill:#1f77b4;stroke:#1f77b4;" x="194.096508" xlink:href="#m0c0aecfdb1" y="282.929777"/>
     <use style="fill:#1f77b4;stroke:#1f77b4;" x="360.887282" xlink:href="#m0c0aecfdb1" y="165.829533"/>
     <use style="fill:#1f77b4;stroke:#1f77b4;" x="192.688525" xlink:href="#m0c0aecfdb1" y="209.488115"/>
     <use style="fill:#1f77b4;stroke:#1f77b4;" x="252.781463" xlink:href="#m0c0aecfdb1" y="258.858457"/>
     <use style="fill:#1f77b4;stroke:#1f77b4;" x="248.498115" xlink:href="#m0c0aecfdb1" y="223.638929"/>
     <use style="fill:#1f77b4;stroke:#1f77b4;" x="342.005351" xlink:href="#m0c0aecfdb1" y="206.828267"/>
     <use style="fill:#1f77b4;stroke:#1f77b4;" x="230.726267" xlink:href="#m0c0aecfdb1" y="233.840986"/>
     <use style="fill:#1f77b4;stroke:#1f77b4;" x="333.513289" xlink:href="#m0c0aecfdb1" y="208.377577"/>
    </g>
   </g>
   <g id="line2d_14">
    <defs>
     <path d="M 0 3 
C 0.795609 3 1.55874 2.683901 2.12132 2.12132 
C 2.683901 1.55874 3 0.795609 3 0 
C 3 -0.795609 2.683901 -1.55874 2.12132 -2.12132 
C 1.55874 -2.683901 0.795609 -3 0 -3 
C -0.795609 -3 -1.55874 -2.683901 -2.12132 -2.12132 
C -2.683901 -1.55874 -3 -0.795609 -3 0 
C -3 0.795609 -2.683901 1.55874 -2.12132 2.12132 
C -1.55874 2.683901 -0.795609 3 0 3 
z
" id="mc8896797b7" style="stroke:#ffa500;"/>
    </defs>
    <g clip-path="url(#p42d6e0ca05)">
     <use style="fill:#ffa500;stroke:#ffa500;" x="179.679623" xlink:href="#mc8896797b7" y="199.232078"/>
     <use style="fill:#ffa500;stroke:#ffa500;" x="194.940316" xlink:href="#mc8896797b7" y="222.941634"/>
     <use style="fill:#ffa500;stroke:#ffa500;" x="120.681573" xlink:href="#mc8896797b7" y="172.777501"/>
     <use style="fill:#ffa500;stroke:#ffa500;" x="180.550775" xlink:href="#mc8896797b7" y="281.290236"/>
     <use style="fill:#ffa500;stroke:#ffa500;" x="119.187286" xlink:href="#mc8896797b7" y="251.780469"/>
     <use style="fill:#ffa500;stroke:#ffa500;" x="127.701766" xlink:href="#mc8896797b7" y="214.98981"/>
     <use style="fill:#ffa500;stroke:#ffa500;" x="130.434825" xlink:href="#mc8896797b7" y="240.369191"/>
     <use style="fill:#ffa500;stroke:#ffa500;" x="187.332831" xlink:href="#mc8896797b7" y="201.018985"/>
     <use style="fill:#ffa500;stroke:#ffa500;" x="218.012229" xlink:href="#mc8896797b7" y="110.142866"/>
     <use style="fill:#ffa500;stroke:#ffa500;" x="168.107375" xlink:href="#mc8896797b7" y="115.378787"/>
     <use style="fill:#ffa500;stroke:#ffa500;" x="171.280704" xlink:href="#mc8896797b7" y="233.819012"/>
     <use style="fill:#ffa500;stroke:#ffa500;" x="154.934995" xlink:href="#mc8896797b7" y="66.96"/>
     <use style="fill:#ffa500;stroke:#ffa500;" x="142.838128" xlink:href="#mc8896797b7" y="131.87337"/>
     <use style="fill:#ffa500;stroke:#ffa500;" x="151.807159" xlink:href="#mc8896797b7" y="168.671303"/>
     <use style="fill:#ffa500;stroke:#ffa500;" x="152.716359" xlink:href="#mc8896797b7" y="241.574897"/>
     <use style="fill:#ffa500;stroke:#ffa500;" x="170.380691" xlink:href="#mc8896797b7" y="216.821526"/>
     <use style="fill:#ffa500;stroke:#ffa500;" x="109.929502" xlink:href="#mc8896797b7" y="122.246531"/>
     <use style="fill:#ffa500;stroke:#ffa500;" x="177.741811" xlink:href="#mc8896797b7" y="253.232698"/>
     <use style="fill:#ffa500;stroke:#ffa500;" x="208.181362" xlink:href="#mc8896797b7" y="219.440963"/>
     <use style="fill:#ffa500;stroke:#ffa500;" x="205.15615" xlink:href="#mc8896797b7" y="184.31473"/>
     <use style="fill:#ffa500;stroke:#ffa500;" x="186.734667" xlink:href="#mc8896797b7" y="215.758036"/>
     <use style="fill:#ffa500;stroke:#ffa500;" x="164.990496" xlink:href="#mc8896797b7" y="198.476123"/>
     <use style="fill:#ffa500;stroke:#ffa500;" x="149.628103" xlink:href="#mc8896797b7" y="240.062528"/>
     <use style="fill:#ffa500;stroke:#ffa500;" x="193.693329" xlink:href="#mc8896797b7" y="177.961451"/>
     <use style="fill:#ffa500;stroke:#ffa500;" x="141.226993" xlink:href="#mc8896797b7" y="242.28225"/>
     <use style="fill:#ffa500;stroke:#ffa500;" x="154.296781" xlink:href="#mc8896797b7" y="203.264276"/>
     <use style="fill:#ffa500;stroke:#ffa500;" x="193.448124" xlink:href="#mc8896797b7" y="245.139388"/>
     <use style="fill:#ffa500;stroke:#ffa500;" x="226.206121" xlink:href="#mc8896797b7" y="212.805524"/>
     <use style="fill:#ffa500;stroke:#ffa500;" x="169.124552" xlink:href="#mc8896797b7" y="147.677564"/>
     <use style="fill:#ffa500;stroke:#ffa500;" x="148.691056" xlink:href="#mc8896797b7" y="189.159909"/>
     <use style="fill:#ffa500;stroke:#ffa500;" x="155.906472" xlink:href="#mc8896797b7" y="94.693895"/>
     <use style="fill:#ffa500;stroke:#ffa500;" x="111.949923" xlink:href="#mc8896797b7" y="216.04042"/>
     <use style="fill:#ffa500;stroke:#ffa500;" x="165.162391" xlink:href="#mc8896797b7" y="188.496217"/>
     <use style="fill:#ffa500;stroke:#ffa500;" x="82.933673" xlink:href="#mc8896797b7" y="83.080383"/>
     <use style="fill:#ffa500;stroke:#ffa500;" x="136.841743" xlink:href="#mc8896797b7" y="99.576021"/>
     <use style="fill:#ffa500;stroke:#ffa500;" x="222.14349" xlink:href="#mc8896797b7" y="190.654138"/>
     <use style="fill:#ffa500;stroke:#ffa500;" x="102.302897" xlink:href="#mc8896797b7" y="205.639362"/>
     <use style="fill:#ffa500;stroke:#ffa500;" x="166.063426" xlink:href="#mc8896797b7" y="116.655085"/>
     <use style="fill:#ffa500;stroke:#ffa500;" x="170.232738" xlink:href="#mc8896797b7" y="227.678996"/>
     <use style="fill:#ffa500;stroke:#ffa500;" x="171.505827" xlink:href="#mc8896797b7" y="162.628298"/>
     <use style="fill:#ffa500;stroke:#ffa500;" x="140.017064" xlink:href="#mc8896797b7" y="241.824012"/>
     <use style="fill:#ffa500;stroke:#ffa500;" x="132.056043" xlink:href="#mc8896797b7" y="104.281937"/>
     <use style="fill:#ffa500;stroke:#ffa500;" x="154.516521" xlink:href="#mc8896797b7" y="235.761215"/>
     <use style="fill:#ffa500;stroke:#ffa500;" x="174.60211" xlink:href="#mc8896797b7" y="167.462957"/>
     <use style="fill:#ffa500;stroke:#ffa500;" x="163.792718" xlink:href="#mc8896797b7" y="100.172816"/>
     <use style="fill:#ffa500;stroke:#ffa500;" x="163.560653" xlink:href="#mc8896797b7" y="151.578956"/>
     <use style="fill:#ffa500;stroke:#ffa500;" x="92.671718" xlink:href="#mc8896797b7" y="76.985914"/>
     <use style="fill:#ffa500;stroke:#ffa500;" x="165.579647" xlink:href="#mc8896797b7" y="218.059385"/>
     <use style="fill:#ffa500;stroke:#ffa500;" x="137.464357" xlink:href="#mc8896797b7" y="138.771706"/>
     <use style="fill:#ffa500;stroke:#ffa500;" x="160.567923" xlink:href="#mc8896797b7" y="193.059998"/>
     <use style="fill:#ffa500;stroke:#ffa500;" x="88.729866" xlink:href="#mc8896797b7" y="104.739022"/>
     <use style="fill:#ffa500;stroke:#ffa500;" x="124.294162" xlink:href="#mc8896797b7" y="248.465764"/>
     <use style="fill:#ffa500;stroke:#ffa500;" x="124.350796" xlink:href="#mc8896797b7" y="91.349555"/>
     <use style="fill:#ffa500;stroke:#ffa500;" x="163.372122" xlink:href="#mc8896797b7" y="212.843273"/>
     <use style="fill:#ffa500;stroke:#ffa500;" x="157.460168" xlink:href="#mc8896797b7" y="139.314131"/>
     <use style="fill:#ffa500;stroke:#ffa500;" x="171.711055" xlink:href="#mc8896797b7" y="184.280685"/>
     <use style="fill:#ffa500;stroke:#ffa500;" x="118.019367" xlink:href="#mc8896797b7" y="203.657926"/>
     <use style="fill:#ffa500;stroke:#ffa500;" x="229.643834" xlink:href="#mc8896797b7" y="246.410019"/>
     <use style="fill:#ffa500;stroke:#ffa500;" x="160.702073" xlink:href="#mc8896797b7" y="192.129839"/>
     <use style="fill:#ffa500;stroke:#ffa500;" x="172.301711" xlink:href="#mc8896797b7" y="233.827232"/>
     <use style="fill:#ffa500;stroke:#ffa500;" x="228.042043" xlink:href="#mc8896797b7" y="141.431896"/>
     <use style="fill:#ffa500;stroke:#ffa500;" x="101.4619" xlink:href="#mc8896797b7" y="172.031588"/>
     <use style="fill:#ffa500;stroke:#ffa500;" x="138.499614" xlink:href="#mc8896797b7" y="183.519025"/>
     <use style="fill:#ffa500;stroke:#ffa500;" x="149.229375" xlink:href="#mc8896797b7" y="122.927452"/>
     <use style="fill:#ffa500;stroke:#ffa500;" x="189.757239" xlink:href="#mc8896797b7" y="101.961392"/>
     <use style="fill:#ffa500;stroke:#ffa500;" x="187.778545" xlink:href="#mc8896797b7" y="227.019887"/>
     <use style="fill:#ffa500;stroke:#ffa500;" x="121.986489" xlink:href="#mc8896797b7" y="151.059991"/>
     <use style="fill:#ffa500;stroke:#ffa500;" x="136.968461" xlink:href="#mc8896797b7" y="94.552593"/>
     <use style="fill:#ffa500;stroke:#ffa500;" x="127.626985" xlink:href="#mc8896797b7" y="136.045713"/>
     <use style="fill:#ffa500;stroke:#ffa500;" x="167.356243" xlink:href="#mc8896797b7" y="223.537627"/>
     <use style="fill:#ffa500;stroke:#ffa500;" x="84.884224" xlink:href="#mc8896797b7" y="131.27849"/>
     <use style="fill:#ffa500;stroke:#ffa500;" x="167.650068" xlink:href="#mc8896797b7" y="218.046143"/>
     <use style="fill:#ffa500;stroke:#ffa500;" x="182.534028" xlink:href="#mc8896797b7" y="183.806668"/>
     <use style="fill:#ffa500;stroke:#ffa500;" x="185.685579" xlink:href="#mc8896797b7" y="247.221023"/>
     <use style="fill:#ffa500;stroke:#ffa500;" x="177.644344" xlink:href="#mc8896797b7" y="116.018603"/>
     <use style="fill:#ffa500;stroke:#ffa500;" x="177.41301" xlink:href="#mc8896797b7" y="207.529859"/>
     <use style="fill:#ffa500;stroke:#ffa500;" x="143.660548" xlink:href="#mc8896797b7" y="187.83627"/>
     <use style="fill:#ffa500;stroke:#ffa500;" x="173.181237" xlink:href="#mc8896797b7" y="106.664594"/>
     <use style="fill:#ffa500;stroke:#ffa500;" x="152.042378" xlink:href="#mc8896797b7" y="110.95326"/>
     <use style="fill:#ffa500;stroke:#ffa500;" x="185.736947" xlink:href="#mc8896797b7" y="174.37445"/>
     <use style="fill:#ffa500;stroke:#ffa500;" x="155.551285" xlink:href="#mc8896797b7" y="239.855282"/>
     <use style="fill:#ffa500;stroke:#ffa500;" x="155.477447" xlink:href="#mc8896797b7" y="212.720957"/>
     <use style="fill:#ffa500;stroke:#ffa500;" x="148.017564" xlink:href="#mc8896797b7" y="157.044167"/>
     <use style="fill:#ffa500;stroke:#ffa500;" x="166.364788" xlink:href="#mc8896797b7" y="248.191929"/>
     <use style="fill:#ffa500;stroke:#ffa500;" x="196.136219" xlink:href="#mc8896797b7" y="221.99969"/>
     <use style="fill:#ffa500;stroke:#ffa500;" x="158.618729" xlink:href="#mc8896797b7" y="75.34268"/>
     <use style="fill:#ffa500;stroke:#ffa500;" x="142.70519" xlink:href="#mc8896797b7" y="172.908452"/>
     <use style="fill:#ffa500;stroke:#ffa500;" x="100.720609" xlink:href="#mc8896797b7" y="242.876438"/>
     <use style="fill:#ffa500;stroke:#ffa500;" x="163.140291" xlink:href="#mc8896797b7" y="109.2736"/>
     <use style="fill:#ffa500;stroke:#ffa500;" x="195.764521" xlink:href="#mc8896797b7" y="222.800512"/>
     <use style="fill:#ffa500;stroke:#ffa500;" x="151.666465" xlink:href="#mc8896797b7" y="190.125361"/>
     <use style="fill:#ffa500;stroke:#ffa500;" x="91.790318" xlink:href="#mc8896797b7" y="125.72756"/>
     <use style="fill:#ffa500;stroke:#ffa500;" x="192.514684" xlink:href="#mc8896797b7" y="209.986073"/>
     <use style="fill:#ffa500;stroke:#ffa500;" x="195.05727" xlink:href="#mc8896797b7" y="271.951051"/>
     <use style="fill:#ffa500;stroke:#ffa500;" x="154.715875" xlink:href="#mc8896797b7" y="270.772961"/>
     <use style="fill:#ffa500;stroke:#ffa500;" x="189.875053" xlink:href="#mc8896797b7" y="117.26225"/>
     <use style="fill:#ffa500;stroke:#ffa500;" x="179.704512" xlink:href="#mc8896797b7" y="178.314789"/>
     <use style="fill:#ffa500;stroke:#ffa500;" x="188.118005" xlink:href="#mc8896797b7" y="107.250197"/>
     <use style="fill:#ffa500;stroke:#ffa500;" x="144.270361" xlink:href="#mc8896797b7" y="205.65374"/>
     <use style="fill:#ffa500;stroke:#ffa500;" x="222.95185" xlink:href="#mc8896797b7" y="198.915101"/>
    </g>
   </g>
   <g id="patch_3">
    <path d="M 54 384.48 
L 54 51.84 
" style="fill:none;stroke:#000000;stroke-linecap:square;stroke-linejoin:miter;stroke-width:0.8;"/>
   </g>
   <g id="patch_4">
    <path d="M 388.8 384.48 
L 388.8 51.84 
" style="fill:none;stroke:#000000;stroke-linecap:square;stroke-linejoin:miter;stroke-width:0.8;"/>
   </g>
   <g id="patch_5">
    <path d="M 54 384.48 
L 388.8 384.48 
" style="fill:none;stroke:#000000;stroke-linecap:square;stroke-linejoin:miter;stroke-width:0.8;"/>
   </g>
   <g id="patch_6">
    <path d="M 54 51.84 
L 388.8 51.84 
" style="fill:none;stroke:#000000;stroke-linecap:square;stroke-linejoin:miter;stroke-width:0.8;"/>
   </g>
   <g id="text_13">
    <!-- 0/1 Response -->
    <g transform="translate(181.02 45.84)scale(0.12 -0.12)">
     <defs>
      <path d="M 25.390625 72.90625 
L 33.6875 72.90625 
L 8.296875 -9.28125 
L 0 -9.28125 
z
" id="DejaVuSans-47"/>
      <path id="DejaVuSans-32"/>
      <path d="M 44.390625 34.1875 
Q 47.5625 33.109375 50.5625 29.59375 
Q 53.5625 26.078125 56.59375 19.921875 
L 66.609375 0 
L 56 0 
L 46.6875 18.703125 
Q 43.0625 26.03125 39.671875 28.421875 
Q 36.28125 30.8125 30.421875 30.8125 
L 19.671875 30.8125 
L 19.671875 0 
L 9.8125 0 
L 9.8125 72.90625 
L 32.078125 72.90625 
Q 44.578125 72.90625 50.734375 67.671875 
Q 56.890625 62.453125 56.890625 51.90625 
Q 56.890625 45.015625 53.6875 40.46875 
Q 50.484375 35.9375 44.390625 34.1875 
z
M 19.671875 64.796875 
L 19.671875 38.921875 
L 32.078125 38.921875 
Q 39.203125 38.921875 42.84375 42.21875 
Q 46.484375 45.515625 46.484375 51.90625 
Q 46.484375 58.296875 42.84375 61.546875 
Q 39.203125 64.796875 32.078125 64.796875 
z
" id="DejaVuSans-82"/>
      <path d="M 56.203125 29.59375 
L 56.203125 25.203125 
L 14.890625 25.203125 
Q 15.484375 15.921875 20.484375 11.0625 
Q 25.484375 6.203125 34.421875 6.203125 
Q 39.59375 6.203125 44.453125 7.46875 
Q 49.3125 8.734375 54.109375 11.28125 
L 54.109375 2.78125 
Q 49.265625 0.734375 44.1875 -0.34375 
Q 39.109375 -1.421875 33.890625 -1.421875 
Q 20.796875 -1.421875 13.15625 6.1875 
Q 5.515625 13.8125 5.515625 26.8125 
Q 5.515625 40.234375 12.765625 48.109375 
Q 20.015625 56 32.328125 56 
Q 43.359375 56 49.78125 48.890625 
Q 56.203125 41.796875 56.203125 29.59375 
z
M 47.21875 32.234375 
Q 47.125 39.59375 43.09375 43.984375 
Q 39.0625 48.390625 32.421875 48.390625 
Q 24.90625 48.390625 20.390625 44.140625 
Q 15.875 39.890625 15.1875 32.171875 
z
" id="DejaVuSans-101"/>
      <path d="M 44.28125 53.078125 
L 44.28125 44.578125 
Q 40.484375 46.53125 36.375 47.5 
Q 32.28125 48.484375 27.875 48.484375 
Q 21.1875 48.484375 17.84375 46.4375 
Q 14.5 44.390625 14.5 40.28125 
Q 14.5 37.15625 16.890625 35.375 
Q 19.28125 33.59375 26.515625 31.984375 
L 29.59375 31.296875 
Q 39.15625 29.25 43.1875 25.515625 
Q 47.21875 21.78125 47.21875 15.09375 
Q 47.21875 7.46875 41.1875 3.015625 
Q 35.15625 -1.421875 24.609375 -1.421875 
Q 20.21875 -1.421875 15.453125 -0.5625 
Q 10.6875 0.296875 5.421875 2 
L 5.421875 11.28125 
Q 10.40625 8.6875 15.234375 7.390625 
Q 20.0625 6.109375 24.8125 6.109375 
Q 31.15625 6.109375 34.5625 8.28125 
Q 37.984375 10.453125 37.984375 14.40625 
Q 37.984375 18.0625 35.515625 20.015625 
Q 33.0625 21.96875 24.703125 23.78125 
L 21.578125 24.515625 
Q 13.234375 26.265625 9.515625 29.90625 
Q 5.8125 33.546875 5.8125 39.890625 
Q 5.8125 47.609375 11.28125 51.796875 
Q 16.75 56 26.8125 56 
Q 31.78125 56 36.171875 55.265625 
Q 40.578125 54.546875 44.28125 53.078125 
z
" id="DejaVuSans-115"/>
      <path d="M 18.109375 8.203125 
L 18.109375 -20.796875 
L 9.078125 -20.796875 
L 9.078125 54.6875 
L 18.109375 54.6875 
L 18.109375 46.390625 
Q 20.953125 51.265625 25.265625 53.625 
Q 29.59375 56 35.59375 56 
Q 45.5625 56 51.78125 48.09375 
Q 58.015625 40.1875 58.015625 27.296875 
Q 58.015625 14.40625 51.78125 6.484375 
Q 45.5625 -1.421875 35.59375 -1.421875 
Q 29.59375 -1.421875 25.265625 0.953125 
Q 20.953125 3.328125 18.109375 8.203125 
z
M 48.6875 27.296875 
Q 48.6875 37.203125 44.609375 42.84375 
Q 40.53125 48.484375 33.40625 48.484375 
Q 26.265625 48.484375 22.1875 42.84375 
Q 18.109375 37.203125 18.109375 27.296875 
Q 18.109375 17.390625 22.1875 11.75 
Q 26.265625 6.109375 33.40625 6.109375 
Q 40.53125 6.109375 44.609375 11.75 
Q 48.6875 17.390625 48.6875 27.296875 
z
" id="DejaVuSans-112"/>
      <path d="M 30.609375 48.390625 
Q 23.390625 48.390625 19.1875 42.75 
Q 14.984375 37.109375 14.984375 27.296875 
Q 14.984375 17.484375 19.15625 11.84375 
Q 23.34375 6.203125 30.609375 6.203125 
Q 37.796875 6.203125 41.984375 11.859375 
Q 46.1875 17.53125 46.1875 27.296875 
Q 46.1875 37.015625 41.984375 42.703125 
Q 37.796875 48.390625 30.609375 48.390625 
z
M 30.609375 56 
Q 42.328125 56 49.015625 48.375 
Q 55.71875 40.765625 55.71875 27.296875 
Q 55.71875 13.875 49.015625 6.21875 
Q 42.328125 -1.421875 30.609375 -1.421875 
Q 18.84375 -1.421875 12.171875 6.21875 
Q 5.515625 13.875 5.515625 27.296875 
Q 5.515625 40.765625 12.171875 48.375 
Q 18.84375 56 30.609375 56 
z
" id="DejaVuSans-111"/>
      <path d="M 54.890625 33.015625 
L 54.890625 0 
L 45.90625 0 
L 45.90625 32.71875 
Q 45.90625 40.484375 42.875 44.328125 
Q 39.84375 48.1875 33.796875 48.1875 
Q 26.515625 48.1875 22.3125 43.546875 
Q 18.109375 38.921875 18.109375 30.90625 
L 18.109375 0 
L 9.078125 0 
L 9.078125 54.6875 
L 18.109375 54.6875 
L 18.109375 46.1875 
Q 21.34375 51.125 25.703125 53.5625 
Q 30.078125 56 35.796875 56 
Q 45.21875 56 50.046875 50.171875 
Q 54.890625 44.34375 54.890625 33.015625 
z
" id="DejaVuSans-110"/>
     </defs>
     <use xlink:href="#DejaVuSans-48"/>
     <use x="63.623047" xlink:href="#DejaVuSans-47"/>
     <use x="97.314453" xlink:href="#DejaVuSans-49"/>
     <use x="160.9375" xlink:href="#DejaVuSans-32"/>
     <use x="192.724609" xlink:href="#DejaVuSans-82"/>
     <use x="257.707031" xlink:href="#DejaVuSans-101"/>
     <use x="319.230469" xlink:href="#DejaVuSans-115"/>
     <use x="371.330078" xlink:href="#DejaVuSans-112"/>
     <use x="434.806641" xlink:href="#DejaVuSans-111"/>
     <use x="495.988281" xlink:href="#DejaVuSans-110"/>
     <use x="559.367188" xlink:href="#DejaVuSans-115"/>
     <use x="611.466797" xlink:href="#DejaVuSans-101"/>
    </g>
   </g>
  </g>
 </g>
 <defs>
  <clipPath id="p42d6e0ca05">
   <rect height="332.64" width="334.8" x="54" y="51.84"/>
  </clipPath>
 </defs>
</svg>
