<?xml version="1.0" encoding="utf-8" standalone="no"?>
<!DOCTYPE svg PUBLIC "-//W3C//DTD SVG 1.1//EN"
  "http://www.w3.org/Graphics/SVG/1.1/DTD/svg11.dtd">
<!-- Created with matplotlib (https://matplotlib.org/) -->
<svg height="432pt" version="1.1" viewBox="0 0 432 432" width="432pt" xmlns="http://www.w3.org/2000/svg" xmlns:xlink="http://www.w3.org/1999/xlink">
 <defs>
  <style type="text/css">
*{stroke-linecap:butt;stroke-linejoin:round;}
  </style>
 </defs>
 <g id="figure_1">
  <g id="patch_1">
   <path d="M 0 432 
L 432 432 
L 432 0 
L 0 0 
z
" style="fill:#ffffff;"/>
  </g>
  <g id="axes_1">
   <g id="patch_2">
    <path d="M 54 384.48 
L 388.8 384.48 
L 388.8 51.84 
L 54 51.84 
z
" style="fill:#ffffff;"/>
   </g>
   <g id="matplotlib.axis_1">
    <g id="xtick_1">
     <g id="line2d_1">
      <defs>
       <path d="M 0 0 
L 0 3.5 
" id="m7316345571" style="stroke:#000000;stroke-width:0.8;"/>
      </defs>
      <g>
       <use style="stroke:#000000;stroke-width:0.8;" x="62.003871" xlink:href="#m7316345571" y="384.48"/>
      </g>
     </g>
     <g id="text_1">
      <!-- −3 -->
      <defs>
       <path d="M 10.59375 35.5 
L 73.1875 35.5 
L 73.1875 27.203125 
L 10.59375 27.203125 
z
" id="DejaVuSans-8722"/>
       <path d="M 40.578125 39.3125 
Q 47.65625 37.796875 51.625 33 
Q 55.609375 28.21875 55.609375 21.1875 
Q 55.609375 10.40625 48.1875 4.484375 
Q 40.765625 -1.421875 27.09375 -1.421875 
Q 22.515625 -1.421875 17.65625 -0.515625 
Q 12.796875 0.390625 7.625 2.203125 
L 7.625 11.71875 
Q 11.71875 9.328125 16.59375 8.109375 
Q 21.484375 6.890625 26.8125 6.890625 
Q 36.078125 6.890625 40.9375 10.546875 
Q 45.796875 14.203125 45.796875 21.1875 
Q 45.796875 27.640625 41.28125 31.265625 
Q 36.765625 34.90625 28.71875 34.90625 
L 20.21875 34.90625 
L 20.21875 43.015625 
L 29.109375 43.015625 
Q 36.375 43.015625 40.234375 45.921875 
Q 44.09375 48.828125 44.09375 54.296875 
Q 44.09375 59.90625 40.109375 62.90625 
Q 36.140625 65.921875 28.71875 65.921875 
Q 24.65625 65.921875 20.015625 65.03125 
Q 15.375 64.15625 9.8125 62.3125 
L 9.8125 71.09375 
Q 15.4375 72.65625 20.34375 73.4375 
Q 25.25 74.21875 29.59375 74.21875 
Q 40.828125 74.21875 47.359375 69.109375 
Q 53.90625 64.015625 53.90625 55.328125 
Q 53.90625 49.265625 50.4375 45.09375 
Q 46.96875 40.921875 40.578125 39.3125 
z
" id="DejaVuSans-51"/>
      </defs>
      <g transform="translate(54.632777 399.078438)scale(0.1 -0.1)">
       <use xlink:href="#DejaVuSans-8722"/>
       <use x="83.789062" xlink:href="#DejaVuSans-51"/>
      </g>
     </g>
    </g>
    <g id="xtick_2">
     <g id="line2d_2">
      <g>
       <use style="stroke:#000000;stroke-width:0.8;" x="118.508495" xlink:href="#m7316345571" y="384.48"/>
      </g>
     </g>
     <g id="text_2">
      <!-- −2 -->
      <defs>
       <path d="M 19.1875 8.296875 
L 53.609375 8.296875 
L 53.609375 0 
L 7.328125 0 
L 7.328125 8.296875 
Q 12.9375 14.109375 22.625 23.890625 
Q 32.328125 33.6875 34.8125 36.53125 
Q 39.546875 41.84375 41.421875 45.53125 
Q 43.3125 49.21875 43.3125 52.78125 
Q 43.3125 58.59375 39.234375 62.25 
Q 35.15625 65.921875 28.609375 65.921875 
Q 23.96875 65.921875 18.8125 64.3125 
Q 13.671875 62.703125 7.8125 59.421875 
L 7.8125 69.390625 
Q 13.765625 71.78125 18.9375 73 
Q 24.125 74.21875 28.421875 74.21875 
Q 39.75 74.21875 46.484375 68.546875 
Q 53.21875 62.890625 53.21875 53.421875 
Q 53.21875 48.921875 51.53125 44.890625 
Q 49.859375 40.875 45.40625 35.40625 
Q 44.1875 33.984375 37.640625 27.21875 
Q 31.109375 20.453125 19.1875 8.296875 
z
" id="DejaVuSans-50"/>
      </defs>
      <g transform="translate(111.137401 399.078438)scale(0.1 -0.1)">
       <use xlink:href="#DejaVuSans-8722"/>
       <use x="83.789062" xlink:href="#DejaVuSans-50"/>
      </g>
     </g>
    </g>
    <g id="xtick_3">
     <g id="line2d_3">
      <g>
       <use style="stroke:#000000;stroke-width:0.8;" x="175.013119" xlink:href="#m7316345571" y="384.48"/>
      </g>
     </g>
     <g id="text_3">
      <!-- −1 -->
      <defs>
       <path d="M 12.40625 8.296875 
L 28.515625 8.296875 
L 28.515625 63.921875 
L 10.984375 60.40625 
L 10.984375 69.390625 
L 28.421875 72.90625 
L 38.28125 72.90625 
L 38.28125 8.296875 
L 54.390625 8.296875 
L 54.390625 0 
L 12.40625 0 
z
" id="DejaVuSans-49"/>
      </defs>
      <g transform="translate(167.642026 399.078438)scale(0.1 -0.1)">
       <use xlink:href="#DejaVuSans-8722"/>
       <use x="83.789062" xlink:href="#DejaVuSans-49"/>
      </g>
     </g>
    </g>
    <g id="xtick_4">
     <g id="line2d_4">
      <g>
       <use style="stroke:#000000;stroke-width:0.8;" x="231.517744" xlink:href="#m7316345571" y="384.48"/>
      </g>
     </g>
     <g id="text_4">
      <!-- 0 -->
      <defs>
       <path d="M 31.78125 66.40625 
Q 24.171875 66.40625 20.328125 58.90625 
Q 16.5 51.421875 16.5 36.375 
Q 16.5 21.390625 20.328125 13.890625 
Q 24.171875 6.390625 31.78125 6.390625 
Q 39.453125 6.390625 43.28125 13.890625 
Q 47.125 21.390625 47.125 36.375 
Q 47.125 51.421875 43.28125 58.90625 
Q 39.453125 66.40625 31.78125 66.40625 
z
M 31.78125 74.21875 
Q 44.046875 74.21875 50.515625 64.515625 
Q 56.984375 54.828125 56.984375 36.375 
Q 56.984375 17.96875 50.515625 8.265625 
Q 44.046875 -1.421875 31.78125 -1.421875 
Q 19.53125 -1.421875 13.0625 8.265625 
Q 6.59375 17.96875 6.59375 36.375 
Q 6.59375 54.828125 13.0625 64.515625 
Q 19.53125 74.21875 31.78125 74.21875 
z
" id="DejaVuSans-48"/>
      </defs>
      <g transform="translate(228.336494 399.078438)scale(0.1 -0.1)">
       <use xlink:href="#DejaVuSans-48"/>
      </g>
     </g>
    </g>
    <g id="xtick_5">
     <g id="line2d_5">
      <g>
       <use style="stroke:#000000;stroke-width:0.8;" x="288.022368" xlink:href="#m7316345571" y="384.48"/>
      </g>
     </g>
     <g id="text_5">
      <!-- 1 -->
      <g transform="translate(284.841118 399.078438)scale(0.1 -0.1)">
       <use xlink:href="#DejaVuSans-49"/>
      </g>
     </g>
    </g>
    <g id="xtick_6">
     <g id="line2d_6">
      <g>
       <use style="stroke:#000000;stroke-width:0.8;" x="344.526992" xlink:href="#m7316345571" y="384.48"/>
      </g>
     </g>
     <g id="text_6">
      <!-- 2 -->
      <g transform="translate(341.345742 399.078438)scale(0.1 -0.1)">
       <use xlink:href="#DejaVuSans-50"/>
      </g>
     </g>
    </g>
   </g>
   <g id="matplotlib.axis_2">
    <g id="ytick_1">
     <g id="line2d_7">
      <defs>
       <path d="M 0 0 
L -3.5 0 
" id="m60bee940b4" style="stroke:#000000;stroke-width:0.8;"/>
      </defs>
      <g>
       <use style="stroke:#000000;stroke-width:0.8;" x="54" xlink:href="#m60bee940b4" y="343.579131"/>
      </g>
     </g>
     <g id="text_7">
      <!-- −2 -->
      <g transform="translate(32.257812 347.37835)scale(0.1 -0.1)">
       <use xlink:href="#DejaVuSans-8722"/>
       <use x="83.789062" xlink:href="#DejaVuSans-50"/>
      </g>
     </g>
    </g>
    <g id="ytick_2">
     <g id="line2d_8">
      <g>
       <use style="stroke:#000000;stroke-width:0.8;" x="54" xlink:href="#m60bee940b4" y="291.236153"/>
      </g>
     </g>
     <g id="text_8">
      <!-- −1 -->
      <g transform="translate(32.257812 295.035372)scale(0.1 -0.1)">
       <use xlink:href="#DejaVuSans-8722"/>
       <use x="83.789062" xlink:href="#DejaVuSans-49"/>
      </g>
     </g>
    </g>
    <g id="ytick_3">
     <g id="line2d_9">
      <g>
       <use style="stroke:#000000;stroke-width:0.8;" x="54" xlink:href="#m60bee940b4" y="238.893175"/>
      </g>
     </g>
     <g id="text_9">
      <!-- 0 -->
      <g transform="translate(40.6375 242.692393)scale(0.1 -0.1)">
       <use xlink:href="#DejaVuSans-48"/>
      </g>
     </g>
    </g>
    <g id="ytick_4">
     <g id="line2d_10">
      <g>
       <use style="stroke:#000000;stroke-width:0.8;" x="54" xlink:href="#m60bee940b4" y="186.550196"/>
      </g>
     </g>
     <g id="text_10">
      <!-- 1 -->
      <g transform="translate(40.6375 190.349415)scale(0.1 -0.1)">
       <use xlink:href="#DejaVuSans-49"/>
      </g>
     </g>
    </g>
    <g id="ytick_5">
     <g id="line2d_11">
      <g>
       <use style="stroke:#000000;stroke-width:0.8;" x="54" xlink:href="#m60bee940b4" y="134.207218"/>
      </g>
     </g>
     <g id="text_11">
      <!-- 2 -->
      <g transform="translate(40.6375 138.006437)scale(0.1 -0.1)">
       <use xlink:href="#DejaVuSans-50"/>
      </g>
     </g>
    </g>
    <g id="ytick_6">
     <g id="line2d_12">
      <g>
       <use style="stroke:#000000;stroke-width:0.8;" x="54" xlink:href="#m60bee940b4" y="81.86424"/>
      </g>
     </g>
     <g id="text_12">
      <!-- 3 -->
      <g transform="translate(40.6375 85.663459)scale(0.1 -0.1)">
       <use xlink:href="#DejaVuSans-51"/>
      </g>
     </g>
    </g>
   </g>
   <g id="line2d_13">
    <defs>
     <path d="M 0 3 
C 0.795609 3 1.55874 2.683901 2.12132 2.12132 
C 2.683901 1.55874 3 0.795609 3 0 
C 3 -0.795609 2.683901 -1.55874 2.12132 -2.12132 
C 1.55874 -2.683901 0.795609 -3 0 -3 
C -0.795609 -3 -1.55874 -2.683901 -2.12132 -2.12132 
C -2.683901 -1.55874 -3 -0.795609 -3 0 
C -3 0.795609 -2.683901 1.55874 -2.12132 2.12132 
C -1.55874 2.683901 -0.795609 3 0 3 
z
" id="m8be8c59234" style="stroke:#1f77b4;"/>
    </defs>
    <g clip-path="url(#p57b39e0a83)">
     <use style="fill:#1f77b4;stroke:#1f77b4;" x="311.251789" xlink:href="#m8be8c59234" y="306.929333"/>
     <use style="fill:#1f77b4;stroke:#1f77b4;" x="366.766078" xlink:href="#m8be8c59234" y="176.145727"/>
     <use style="fill:#1f77b4;stroke:#1f77b4;" x="362.764926" xlink:href="#m8be8c59234" y="176.868382"/>
     <use style="fill:#1f77b4;stroke:#1f77b4;" x="268.45387" xlink:href="#m8be8c59234" y="295.701226"/>
     <use style="fill:#1f77b4;stroke:#1f77b4;" x="304.952674" xlink:href="#m8be8c59234" y="297.410643"/>
     <use style="fill:#1f77b4;stroke:#1f77b4;" x="293.781495" xlink:href="#m8be8c59234" y="315.873766"/>
     <use style="fill:#1f77b4;stroke:#1f77b4;" x="280.165855" xlink:href="#m8be8c59234" y="225.878711"/>
     <use style="fill:#1f77b4;stroke:#1f77b4;" x="327.160317" xlink:href="#m8be8c59234" y="209.967391"/>
     <use style="fill:#1f77b4;stroke:#1f77b4;" x="292.724974" xlink:href="#m8be8c59234" y="210.227916"/>
     <use style="fill:#1f77b4;stroke:#1f77b4;" x="292.429388" xlink:href="#m8be8c59234" y="250.681615"/>
     <use style="fill:#1f77b4;stroke:#1f77b4;" x="360.010561" xlink:href="#m8be8c59234" y="252.673941"/>
     <use style="fill:#1f77b4;stroke:#1f77b4;" x="319.589765" xlink:href="#m8be8c59234" y="291.000037"/>
     <use style="fill:#1f77b4;stroke:#1f77b4;" x="319.593703" xlink:href="#m8be8c59234" y="196.290655"/>
     <use style="fill:#1f77b4;stroke:#1f77b4;" x="323.55841" xlink:href="#m8be8c59234" y="159.831926"/>
     <use style="fill:#1f77b4;stroke:#1f77b4;" x="290.82463" xlink:href="#m8be8c59234" y="216.248062"/>
     <use style="fill:#1f77b4;stroke:#1f77b4;" x="325.841667" xlink:href="#m8be8c59234" y="216.285253"/>
     <use style="fill:#1f77b4;stroke:#1f77b4;" x="307.579368" xlink:href="#m8be8c59234" y="201.388279"/>
     <use style="fill:#1f77b4;stroke:#1f77b4;" x="336.268462" xlink:href="#m8be8c59234" y="119.294939"/>
     <use style="fill:#1f77b4;stroke:#1f77b4;" x="273.461671" xlink:href="#m8be8c59234" y="182.760203"/>
     <use style="fill:#1f77b4;stroke:#1f77b4;" x="288.211242" xlink:href="#m8be8c59234" y="276.736782"/>
     <use style="fill:#1f77b4;stroke:#1f77b4;" x="268.752375" xlink:href="#m8be8c59234" y="269.946492"/>
     <use style="fill:#1f77b4;stroke:#1f77b4;" x="299.788072" xlink:href="#m8be8c59234" y="369.36"/>
     <use style="fill:#1f77b4;stroke:#1f77b4;" x="329.123163" xlink:href="#m8be8c59234" y="266.938915"/>
     <use style="fill:#1f77b4;stroke:#1f77b4;" x="287.476136" xlink:href="#m8be8c59234" y="268.075774"/>
     <use style="fill:#1f77b4;stroke:#1f77b4;" x="290.204401" xlink:href="#m8be8c59234" y="174.979892"/>
     <use style="fill:#1f77b4;stroke:#1f77b4;" x="256.59849" xlink:href="#m8be8c59234" y="174.652588"/>
     <use style="fill:#1f77b4;stroke:#1f77b4;" x="253.089903" xlink:href="#m8be8c59234" y="267.517063"/>
     <use style="fill:#1f77b4;stroke:#1f77b4;" x="273.110284" xlink:href="#m8be8c59234" y="230.46892"/>
     <use style="fill:#1f77b4;stroke:#1f77b4;" x="294.52327" xlink:href="#m8be8c59234" y="238.591678"/>
     <use style="fill:#1f77b4;stroke:#1f77b4;" x="304.949625" xlink:href="#m8be8c59234" y="195.652236"/>
     <use style="fill:#1f77b4;stroke:#1f77b4;" x="304.278326" xlink:href="#m8be8c59234" y="179.322941"/>
     <use style="fill:#1f77b4;stroke:#1f77b4;" x="324.222357" xlink:href="#m8be8c59234" y="226.358683"/>
     <use style="fill:#1f77b4;stroke:#1f77b4;" x="218.434594" xlink:href="#m8be8c59234" y="298.182858"/>
     <use style="fill:#1f77b4;stroke:#1f77b4;" x="288.091469" xlink:href="#m8be8c59234" y="366.403335"/>
     <use style="fill:#1f77b4;stroke:#1f77b4;" x="286.746988" xlink:href="#m8be8c59234" y="285.104133"/>
     <use style="fill:#1f77b4;stroke:#1f77b4;" x="330.763493" xlink:href="#m8be8c59234" y="198.083668"/>
     <use style="fill:#1f77b4;stroke:#1f77b4;" x="308.813771" xlink:href="#m8be8c59234" y="342.050212"/>
     <use style="fill:#1f77b4;stroke:#1f77b4;" x="314.417874" xlink:href="#m8be8c59234" y="274.399777"/>
     <use style="fill:#1f77b4;stroke:#1f77b4;" x="331.527824" xlink:href="#m8be8c59234" y="232.852142"/>
     <use style="fill:#1f77b4;stroke:#1f77b4;" x="368.963617" xlink:href="#m8be8c59234" y="151.136629"/>
     <use style="fill:#1f77b4;stroke:#1f77b4;" x="274.291859" xlink:href="#m8be8c59234" y="255.766696"/>
     <use style="fill:#1f77b4;stroke:#1f77b4;" x="341.760348" xlink:href="#m8be8c59234" y="176.376161"/>
     <use style="fill:#1f77b4;stroke:#1f77b4;" x="286.677868" xlink:href="#m8be8c59234" y="227.192274"/>
     <use style="fill:#1f77b4;stroke:#1f77b4;" x="304.727666" xlink:href="#m8be8c59234" y="214.268457"/>
     <use style="fill:#1f77b4;stroke:#1f77b4;" x="312.719538" xlink:href="#m8be8c59234" y="243.251103"/>
     <use style="fill:#1f77b4;stroke:#1f77b4;" x="290.287292" xlink:href="#m8be8c59234" y="264.598973"/>
     <use style="fill:#1f77b4;stroke:#1f77b4;" x="285.099328" xlink:href="#m8be8c59234" y="265.335849"/>
     <use style="fill:#1f77b4;stroke:#1f77b4;" x="339.565933" xlink:href="#m8be8c59234" y="201.194974"/>
     <use style="fill:#1f77b4;stroke:#1f77b4;" x="283.317739" xlink:href="#m8be8c59234" y="206.568061"/>
     <use style="fill:#1f77b4;stroke:#1f77b4;" x="322.080789" xlink:href="#m8be8c59234" y="212.653915"/>
     <use style="fill:#1f77b4;stroke:#1f77b4;" x="325.711028" xlink:href="#m8be8c59234" y="330.884629"/>
     <use style="fill:#1f77b4;stroke:#1f77b4;" x="340.906484" xlink:href="#m8be8c59234" y="280.371804"/>
     <use style="fill:#1f77b4;stroke:#1f77b4;" x="267.002356" xlink:href="#m8be8c59234" y="280.893443"/>
     <use style="fill:#1f77b4;stroke:#1f77b4;" x="323.517213" xlink:href="#m8be8c59234" y="256.888757"/>
     <use style="fill:#1f77b4;stroke:#1f77b4;" x="253.48173" xlink:href="#m8be8c59234" y="149.681895"/>
     <use style="fill:#1f77b4;stroke:#1f77b4;" x="355.799444" xlink:href="#m8be8c59234" y="205.749462"/>
     <use style="fill:#1f77b4;stroke:#1f77b4;" x="343.445412" xlink:href="#m8be8c59234" y="205.193304"/>
     <use style="fill:#1f77b4;stroke:#1f77b4;" x="216.057906" xlink:href="#m8be8c59234" y="262.940942"/>
     <use style="fill:#1f77b4;stroke:#1f77b4;" x="284.935698" xlink:href="#m8be8c59234" y="300.059679"/>
     <use style="fill:#1f77b4;stroke:#1f77b4;" x="269.203088" xlink:href="#m8be8c59234" y="276.640076"/>
     <use style="fill:#1f77b4;stroke:#1f77b4;" x="313.694213" xlink:href="#m8be8c59234" y="189.113617"/>
     <use style="fill:#1f77b4;stroke:#1f77b4;" x="333.82681" xlink:href="#m8be8c59234" y="230.264366"/>
     <use style="fill:#1f77b4;stroke:#1f77b4;" x="313.91767" xlink:href="#m8be8c59234" y="284.490849"/>
     <use style="fill:#1f77b4;stroke:#1f77b4;" x="274.965437" xlink:href="#m8be8c59234" y="130.860239"/>
     <use style="fill:#1f77b4;stroke:#1f77b4;" x="283.075479" xlink:href="#m8be8c59234" y="230.792631"/>
     <use style="fill:#1f77b4;stroke:#1f77b4;" x="316.089388" xlink:href="#m8be8c59234" y="191.176603"/>
     <use style="fill:#1f77b4;stroke:#1f77b4;" x="270.998036" xlink:href="#m8be8c59234" y="165.87451"/>
     <use style="fill:#1f77b4;stroke:#1f77b4;" x="311.273457" xlink:href="#m8be8c59234" y="308.952152"/>
     <use style="fill:#1f77b4;stroke:#1f77b4;" x="298.591795" xlink:href="#m8be8c59234" y="233.042943"/>
     <use style="fill:#1f77b4;stroke:#1f77b4;" x="243.72167" xlink:href="#m8be8c59234" y="292.677249"/>
     <use style="fill:#1f77b4;stroke:#1f77b4;" x="310.323679" xlink:href="#m8be8c59234" y="213.814801"/>
     <use style="fill:#1f77b4;stroke:#1f77b4;" x="270.992445" xlink:href="#m8be8c59234" y="234.727341"/>
     <use style="fill:#1f77b4;stroke:#1f77b4;" x="324.279348" xlink:href="#m8be8c59234" y="193.350201"/>
     <use style="fill:#1f77b4;stroke:#1f77b4;" x="324.307017" xlink:href="#m8be8c59234" y="193.752913"/>
     <use style="fill:#1f77b4;stroke:#1f77b4;" x="348.760561" xlink:href="#m8be8c59234" y="196.569386"/>
     <use style="fill:#1f77b4;stroke:#1f77b4;" x="302.989253" xlink:href="#m8be8c59234" y="208.708443"/>
     <use style="fill:#1f77b4;stroke:#1f77b4;" x="279.51269" xlink:href="#m8be8c59234" y="335.857077"/>
     <use style="fill:#1f77b4;stroke:#1f77b4;" x="292.876929" xlink:href="#m8be8c59234" y="257.74038"/>
     <use style="fill:#1f77b4;stroke:#1f77b4;" x="355.252447" xlink:href="#m8be8c59234" y="300.897285"/>
     <use style="fill:#1f77b4;stroke:#1f77b4;" x="304.183872" xlink:href="#m8be8c59234" y="212.895834"/>
     <use style="fill:#1f77b4;stroke:#1f77b4;" x="293.485579" xlink:href="#m8be8c59234" y="182.453045"/>
     <use style="fill:#1f77b4;stroke:#1f77b4;" x="304.257793" xlink:href="#m8be8c59234" y="141.898381"/>
     <use style="fill:#1f77b4;stroke:#1f77b4;" x="277.096059" xlink:href="#m8be8c59234" y="294.160538"/>
     <use style="fill:#1f77b4;stroke:#1f77b4;" x="264.710907" xlink:href="#m8be8c59234" y="179.100215"/>
     <use style="fill:#1f77b4;stroke:#1f77b4;" x="277.501662" xlink:href="#m8be8c59234" y="227.466131"/>
     <use style="fill:#1f77b4;stroke:#1f77b4;" x="262.369973" xlink:href="#m8be8c59234" y="217.074038"/>
     <use style="fill:#1f77b4;stroke:#1f77b4;" x="312.854119" xlink:href="#m8be8c59234" y="300.379111"/>
     <use style="fill:#1f77b4;stroke:#1f77b4;" x="373.581818" xlink:href="#m8be8c59234" y="345.484053"/>
     <use style="fill:#1f77b4;stroke:#1f77b4;" x="323.129332" xlink:href="#m8be8c59234" y="185.537897"/>
     <use style="fill:#1f77b4;stroke:#1f77b4;" x="303.124165" xlink:href="#m8be8c59234" y="207.674375"/>
     <use style="fill:#1f77b4;stroke:#1f77b4;" x="366.409773" xlink:href="#m8be8c59234" y="315.605547"/>
     <use style="fill:#1f77b4;stroke:#1f77b4;" x="266.829856" xlink:href="#m8be8c59234" y="299.527172"/>
     <use style="fill:#1f77b4;stroke:#1f77b4;" x="326.581281" xlink:href="#m8be8c59234" y="287.127948"/>
     <use style="fill:#1f77b4;stroke:#1f77b4;" x="344.401114" xlink:href="#m8be8c59234" y="193.415802"/>
     <use style="fill:#1f77b4;stroke:#1f77b4;" x="247.462132" xlink:href="#m8be8c59234" y="308.962165"/>
     <use style="fill:#1f77b4;stroke:#1f77b4;" x="355.155871" xlink:href="#m8be8c59234" y="125.243912"/>
     <use style="fill:#1f77b4;stroke:#1f77b4;" x="341.653275" xlink:href="#m8be8c59234" y="159.794265"/>
     <use style="fill:#1f77b4;stroke:#1f77b4;" x="307.085017" xlink:href="#m8be8c59234" y="285.052308"/>
     <use style="fill:#1f77b4;stroke:#1f77b4;" x="307.370363" xlink:href="#m8be8c59234" y="236.381727"/>
     <use style="fill:#1f77b4;stroke:#1f77b4;" x="265.135157" xlink:href="#m8be8c59234" y="263.297247"/>
    </g>
   </g>
   <g id="line2d_14">
    <defs>
     <path d="M 0 3 
C 0.795609 3 1.55874 2.683901 2.12132 2.12132 
C 2.683901 1.55874 3 0.795609 3 0 
C 3 -0.795609 2.683901 -1.55874 2.12132 -2.12132 
C 1.55874 -2.683901 0.795609 -3 0 -3 
C -0.795609 -3 -1.55874 -2.683901 -2.12132 -2.12132 
C -2.683901 -1.55874 -3 -0.795609 -3 0 
C -3 0.795609 -2.683901 1.55874 -2.12132 2.12132 
C -1.55874 2.683901 -0.795609 3 0 3 
z
" id="mb6f8b5bf9b" style="stroke:#ffa500;"/>
    </defs>
    <g clip-path="url(#p57b39e0a83)">
     <use style="fill:#ffa500;stroke:#ffa500;" x="181.959953" xlink:href="#mb6f8b5bf9b" y="225.901015"/>
     <use style="fill:#ffa500;stroke:#ffa500;" x="313.252377" xlink:href="#mb6f8b5bf9b" y="167.62513"/>
     <use style="fill:#ffa500;stroke:#ffa500;" x="216.760056" xlink:href="#mb6f8b5bf9b" y="146.917245"/>
     <use style="fill:#ffa500;stroke:#ffa500;" x="272.559664" xlink:href="#mb6f8b5bf9b" y="95.623268"/>
     <use style="fill:#ffa500;stroke:#ffa500;" x="70.929687" xlink:href="#mb6f8b5bf9b" y="250.31068"/>
     <use style="fill:#ffa500;stroke:#ffa500;" x="85.812996" xlink:href="#mb6f8b5bf9b" y="252.93302"/>
     <use style="fill:#ffa500;stroke:#ffa500;" x="203.669137" xlink:href="#mb6f8b5bf9b" y="233.416412"/>
     <use style="fill:#ffa500;stroke:#ffa500;" x="236.330107" xlink:href="#mb6f8b5bf9b" y="121.397939"/>
     <use style="fill:#ffa500;stroke:#ffa500;" x="246.412014" xlink:href="#mb6f8b5bf9b" y="140.144794"/>
     <use style="fill:#ffa500;stroke:#ffa500;" x="69.218182" xlink:href="#mb6f8b5bf9b" y="194.669204"/>
     <use style="fill:#ffa500;stroke:#ffa500;" x="159.782917" xlink:href="#mb6f8b5bf9b" y="157.702311"/>
     <use style="fill:#ffa500;stroke:#ffa500;" x="171.815751" xlink:href="#mb6f8b5bf9b" y="242.089809"/>
     <use style="fill:#ffa500;stroke:#ffa500;" x="273.122453" xlink:href="#mb6f8b5bf9b" y="117.709624"/>
     <use style="fill:#ffa500;stroke:#ffa500;" x="229.471242" xlink:href="#mb6f8b5bf9b" y="141.369659"/>
     <use style="fill:#ffa500;stroke:#ffa500;" x="244.654124" xlink:href="#mb6f8b5bf9b" y="92.546245"/>
     <use style="fill:#ffa500;stroke:#ffa500;" x="257.222099" xlink:href="#mb6f8b5bf9b" y="95.63168"/>
     <use style="fill:#ffa500;stroke:#ffa500;" x="210.510237" xlink:href="#mb6f8b5bf9b" y="191.716712"/>
     <use style="fill:#ffa500;stroke:#ffa500;" x="116.47273" xlink:href="#mb6f8b5bf9b" y="247.792665"/>
     <use style="fill:#ffa500;stroke:#ffa500;" x="216.386285" xlink:href="#mb6f8b5bf9b" y="140.734073"/>
     <use style="fill:#ffa500;stroke:#ffa500;" x="88.12505" xlink:href="#mb6f8b5bf9b" y="216.019158"/>
     <use style="fill:#ffa500;stroke:#ffa500;" x="178.727001" xlink:href="#mb6f8b5bf9b" y="211.10606"/>
     <use style="fill:#ffa500;stroke:#ffa500;" x="143.113469" xlink:href="#mb6f8b5bf9b" y="207.25638"/>
     <use style="fill:#ffa500;stroke:#ffa500;" x="189.725448" xlink:href="#mb6f8b5bf9b" y="142.796004"/>
     <use style="fill:#ffa500;stroke:#ffa500;" x="210.105015" xlink:href="#mb6f8b5bf9b" y="223.424677"/>
     <use style="fill:#ffa500;stroke:#ffa500;" x="247.957964" xlink:href="#mb6f8b5bf9b" y="184.929851"/>
     <use style="fill:#ffa500;stroke:#ffa500;" x="103.019336" xlink:href="#mb6f8b5bf9b" y="231.286708"/>
     <use style="fill:#ffa500;stroke:#ffa500;" x="175.740993" xlink:href="#mb6f8b5bf9b" y="152.389815"/>
     <use style="fill:#ffa500;stroke:#ffa500;" x="215.049595" xlink:href="#mb6f8b5bf9b" y="120.028018"/>
     <use style="fill:#ffa500;stroke:#ffa500;" x="155.282457" xlink:href="#mb6f8b5bf9b" y="212.133272"/>
     <use style="fill:#ffa500;stroke:#ffa500;" x="197.018958" xlink:href="#mb6f8b5bf9b" y="184.962006"/>
     <use style="fill:#ffa500;stroke:#ffa500;" x="181.978795" xlink:href="#mb6f8b5bf9b" y="104.748839"/>
     <use style="fill:#ffa500;stroke:#ffa500;" x="239.219456" xlink:href="#mb6f8b5bf9b" y="124.829056"/>
     <use style="fill:#ffa500;stroke:#ffa500;" x="127.898723" xlink:href="#mb6f8b5bf9b" y="183.030921"/>
     <use style="fill:#ffa500;stroke:#ffa500;" x="109.490627" xlink:href="#mb6f8b5bf9b" y="241.000337"/>
     <use style="fill:#ffa500;stroke:#ffa500;" x="168.100043" xlink:href="#mb6f8b5bf9b" y="204.643052"/>
     <use style="fill:#ffa500;stroke:#ffa500;" x="232.790581" xlink:href="#mb6f8b5bf9b" y="249.474598"/>
     <use style="fill:#ffa500;stroke:#ffa500;" x="177.86487" xlink:href="#mb6f8b5bf9b" y="182.721817"/>
     <use style="fill:#ffa500;stroke:#ffa500;" x="257.917967" xlink:href="#mb6f8b5bf9b" y="200.31541"/>
     <use style="fill:#ffa500;stroke:#ffa500;" x="256.603259" xlink:href="#mb6f8b5bf9b" y="148.352795"/>
     <use style="fill:#ffa500;stroke:#ffa500;" x="240.770527" xlink:href="#mb6f8b5bf9b" y="145.244216"/>
     <use style="fill:#ffa500;stroke:#ffa500;" x="295.322764" xlink:href="#mb6f8b5bf9b" y="160.400635"/>
     <use style="fill:#ffa500;stroke:#ffa500;" x="225.711744" xlink:href="#mb6f8b5bf9b" y="218.983147"/>
     <use style="fill:#ffa500;stroke:#ffa500;" x="266.749784" xlink:href="#mb6f8b5bf9b" y="188.411595"/>
     <use style="fill:#ffa500;stroke:#ffa500;" x="243.934362" xlink:href="#mb6f8b5bf9b" y="243.049481"/>
     <use style="fill:#ffa500;stroke:#ffa500;" x="183.300947" xlink:href="#mb6f8b5bf9b" y="217.209798"/>
     <use style="fill:#ffa500;stroke:#ffa500;" x="227.266999" xlink:href="#mb6f8b5bf9b" y="66.96"/>
     <use style="fill:#ffa500;stroke:#ffa500;" x="161.138758" xlink:href="#mb6f8b5bf9b" y="192.314745"/>
     <use style="fill:#ffa500;stroke:#ffa500;" x="155.914571" xlink:href="#mb6f8b5bf9b" y="211.816808"/>
     <use style="fill:#ffa500;stroke:#ffa500;" x="209.157284" xlink:href="#mb6f8b5bf9b" y="100.785922"/>
     <use style="fill:#ffa500;stroke:#ffa500;" x="161.610951" xlink:href="#mb6f8b5bf9b" y="217.118124"/>
     <use style="fill:#ffa500;stroke:#ffa500;" x="282.771941" xlink:href="#mb6f8b5bf9b" y="172.08714"/>
     <use style="fill:#ffa500;stroke:#ffa500;" x="95.684585" xlink:href="#mb6f8b5bf9b" y="180.118898"/>
     <use style="fill:#ffa500;stroke:#ffa500;" x="229.628192" xlink:href="#mb6f8b5bf9b" y="155.921728"/>
     <use style="fill:#ffa500;stroke:#ffa500;" x="237.988033" xlink:href="#mb6f8b5bf9b" y="120.181541"/>
     <use style="fill:#ffa500;stroke:#ffa500;" x="172.64258" xlink:href="#mb6f8b5bf9b" y="186.095313"/>
     <use style="fill:#ffa500;stroke:#ffa500;" x="198.865844" xlink:href="#mb6f8b5bf9b" y="142.825517"/>
     <use style="fill:#ffa500;stroke:#ffa500;" x="126.055169" xlink:href="#mb6f8b5bf9b" y="230.70147"/>
     <use style="fill:#ffa500;stroke:#ffa500;" x="252.038409" xlink:href="#mb6f8b5bf9b" y="125.0523"/>
     <use style="fill:#ffa500;stroke:#ffa500;" x="231.188567" xlink:href="#mb6f8b5bf9b" y="176.115818"/>
     <use style="fill:#ffa500;stroke:#ffa500;" x="186.769205" xlink:href="#mb6f8b5bf9b" y="214.89192"/>
     <use style="fill:#ffa500;stroke:#ffa500;" x="179.732994" xlink:href="#mb6f8b5bf9b" y="245.462315"/>
     <use style="fill:#ffa500;stroke:#ffa500;" x="212.726006" xlink:href="#mb6f8b5bf9b" y="111.568534"/>
     <use style="fill:#ffa500;stroke:#ffa500;" x="220.194024" xlink:href="#mb6f8b5bf9b" y="150.007892"/>
     <use style="fill:#ffa500;stroke:#ffa500;" x="136.496467" xlink:href="#mb6f8b5bf9b" y="219.014556"/>
     <use style="fill:#ffa500;stroke:#ffa500;" x="213.774346" xlink:href="#mb6f8b5bf9b" y="253.447969"/>
     <use style="fill:#ffa500;stroke:#ffa500;" x="279.229055" xlink:href="#mb6f8b5bf9b" y="185.188267"/>
     <use style="fill:#ffa500;stroke:#ffa500;" x="181.805696" xlink:href="#mb6f8b5bf9b" y="194.31693"/>
     <use style="fill:#ffa500;stroke:#ffa500;" x="103.829915" xlink:href="#mb6f8b5bf9b" y="181.564187"/>
     <use style="fill:#ffa500;stroke:#ffa500;" x="245.686019" xlink:href="#mb6f8b5bf9b" y="178.526301"/>
     <use style="fill:#ffa500;stroke:#ffa500;" x="284.713477" xlink:href="#mb6f8b5bf9b" y="169.619567"/>
     <use style="fill:#ffa500;stroke:#ffa500;" x="212.693569" xlink:href="#mb6f8b5bf9b" y="189.718108"/>
     <use style="fill:#ffa500;stroke:#ffa500;" x="253.120484" xlink:href="#mb6f8b5bf9b" y="129.77924"/>
     <use style="fill:#ffa500;stroke:#ffa500;" x="227.629247" xlink:href="#mb6f8b5bf9b" y="210.647647"/>
     <use style="fill:#ffa500;stroke:#ffa500;" x="283.614659" xlink:href="#mb6f8b5bf9b" y="152.21998"/>
     <use style="fill:#ffa500;stroke:#ffa500;" x="241.038663" xlink:href="#mb6f8b5bf9b" y="188.049764"/>
     <use style="fill:#ffa500;stroke:#ffa500;" x="214.023808" xlink:href="#mb6f8b5bf9b" y="111.737786"/>
     <use style="fill:#ffa500;stroke:#ffa500;" x="299.243021" xlink:href="#mb6f8b5bf9b" y="197.176036"/>
     <use style="fill:#ffa500;stroke:#ffa500;" x="246.366355" xlink:href="#mb6f8b5bf9b" y="218.98576"/>
     <use style="fill:#ffa500;stroke:#ffa500;" x="289.799187" xlink:href="#mb6f8b5bf9b" y="130.714786"/>
     <use style="fill:#ffa500;stroke:#ffa500;" x="171.438865" xlink:href="#mb6f8b5bf9b" y="156.584807"/>
     <use style="fill:#ffa500;stroke:#ffa500;" x="203.450412" xlink:href="#mb6f8b5bf9b" y="212.859851"/>
     <use style="fill:#ffa500;stroke:#ffa500;" x="173.709418" xlink:href="#mb6f8b5bf9b" y="181.715157"/>
     <use style="fill:#ffa500;stroke:#ffa500;" x="246.414498" xlink:href="#mb6f8b5bf9b" y="158.944352"/>
     <use style="fill:#ffa500;stroke:#ffa500;" x="200.369659" xlink:href="#mb6f8b5bf9b" y="138.413399"/>
     <use style="fill:#ffa500;stroke:#ffa500;" x="214.658584" xlink:href="#mb6f8b5bf9b" y="201.367347"/>
     <use style="fill:#ffa500;stroke:#ffa500;" x="202.713242" xlink:href="#mb6f8b5bf9b" y="169.446348"/>
     <use style="fill:#ffa500;stroke:#ffa500;" x="114.705224" xlink:href="#mb6f8b5bf9b" y="208.979255"/>
     <use style="fill:#ffa500;stroke:#ffa500;" x="237.331264" xlink:href="#mb6f8b5bf9b" y="165.597552"/>
     <use style="fill:#ffa500;stroke:#ffa500;" x="117.687334" xlink:href="#mb6f8b5bf9b" y="243.683281"/>
     <use style="fill:#ffa500;stroke:#ffa500;" x="232.231774" xlink:href="#mb6f8b5bf9b" y="112.708344"/>
     <use style="fill:#ffa500;stroke:#ffa500;" x="174.419954" xlink:href="#mb6f8b5bf9b" y="176.841157"/>
     <use style="fill:#ffa500;stroke:#ffa500;" x="209.506134" xlink:href="#mb6f8b5bf9b" y="161.893326"/>
     <use style="fill:#ffa500;stroke:#ffa500;" x="208.324363" xlink:href="#mb6f8b5bf9b" y="262.194357"/>
     <use style="fill:#ffa500;stroke:#ffa500;" x="274.585768" xlink:href="#mb6f8b5bf9b" y="77.708978"/>
     <use style="fill:#ffa500;stroke:#ffa500;" x="264.466949" xlink:href="#mb6f8b5bf9b" y="157.438675"/>
     <use style="fill:#ffa500;stroke:#ffa500;" x="128.294428" xlink:href="#mb6f8b5bf9b" y="278.657017"/>
     <use style="fill:#ffa500;stroke:#ffa500;" x="152.479739" xlink:href="#mb6f8b5bf9b" y="182.727146"/>
     <use style="fill:#ffa500;stroke:#ffa500;" x="201.816286" xlink:href="#mb6f8b5bf9b" y="237.526218"/>
     <use style="fill:#ffa500;stroke:#ffa500;" x="107.246114" xlink:href="#mb6f8b5bf9b" y="226.370623"/>
     <use style="fill:#ffa500;stroke:#ffa500;" x="208.357364" xlink:href="#mb6f8b5bf9b" y="212.231106"/>
    </g>
   </g>
   <g id="patch_3">
    <path d="M 54 384.48 
L 54 51.84 
" style="fill:none;stroke:#000000;stroke-linecap:square;stroke-linejoin:miter;stroke-width:0.8;"/>
   </g>
   <g id="patch_4">
    <path d="M 388.8 384.48 
L 388.8 51.84 
" style="fill:none;stroke:#000000;stroke-linecap:square;stroke-linejoin:miter;stroke-width:0.8;"/>
   </g>
   <g id="patch_5">
    <path d="M 54 384.48 
L 388.8 384.48 
" style="fill:none;stroke:#000000;stroke-linecap:square;stroke-linejoin:miter;stroke-width:0.8;"/>
   </g>
   <g id="patch_6">
    <path d="M 54 51.84 
L 388.8 51.84 
" style="fill:none;stroke:#000000;stroke-linecap:square;stroke-linejoin:miter;stroke-width:0.8;"/>
   </g>
   <g id="text_13">
    <!-- 0/1 Response -->
    <defs>
     <path d="M 25.390625 72.90625 
L 33.6875 72.90625 
L 8.296875 -9.28125 
L 0 -9.28125 
z
" id="DejaVuSans-47"/>
     <path id="DejaVuSans-32"/>
     <path d="M 44.390625 34.1875 
Q 47.5625 33.109375 50.5625 29.59375 
Q 53.5625 26.078125 56.59375 19.921875 
L 66.609375 0 
L 56 0 
L 46.6875 18.703125 
Q 43.0625 26.03125 39.671875 28.421875 
Q 36.28125 30.8125 30.421875 30.8125 
L 19.671875 30.8125 
L 19.671875 0 
L 9.8125 0 
L 9.8125 72.90625 
L 32.078125 72.90625 
Q 44.578125 72.90625 50.734375 67.671875 
Q 56.890625 62.453125 56.890625 51.90625 
Q 56.890625 45.015625 53.6875 40.46875 
Q 50.484375 35.9375 44.390625 34.1875 
z
M 19.671875 64.796875 
L 19.671875 38.921875 
L 32.078125 38.921875 
Q 39.203125 38.921875 42.84375 42.21875 
Q 46.484375 45.515625 46.484375 51.90625 
Q 46.484375 58.296875 42.84375 61.546875 
Q 39.203125 64.796875 32.078125 64.796875 
z
" id="DejaVuSans-82"/>
     <path d="M 56.203125 29.59375 
L 56.203125 25.203125 
L 14.890625 25.203125 
Q 15.484375 15.921875 20.484375 11.0625 
Q 25.484375 6.203125 34.421875 6.203125 
Q 39.59375 6.203125 44.453125 7.46875 
Q 49.3125 8.734375 54.109375 11.28125 
L 54.109375 2.78125 
Q 49.265625 0.734375 44.1875 -0.34375 
Q 39.109375 -1.421875 33.890625 -1.421875 
Q 20.796875 -1.421875 13.15625 6.1875 
Q 5.515625 13.8125 5.515625 26.8125 
Q 5.515625 40.234375 12.765625 48.109375 
Q 20.015625 56 32.328125 56 
Q 43.359375 56 49.78125 48.890625 
Q 56.203125 41.796875 56.203125 29.59375 
z
M 47.21875 32.234375 
Q 47.125 39.59375 43.09375 43.984375 
Q 39.0625 48.390625 32.421875 48.390625 
Q 24.90625 48.390625 20.390625 44.140625 
Q 15.875 39.890625 15.1875 32.171875 
z
" id="DejaVuSans-101"/>
     <path d="M 44.28125 53.078125 
L 44.28125 44.578125 
Q 40.484375 46.53125 36.375 47.5 
Q 32.28125 48.484375 27.875 48.484375 
Q 21.1875 48.484375 17.84375 46.4375 
Q 14.5 44.390625 14.5 40.28125 
Q 14.5 37.15625 16.890625 35.375 
Q 19.28125 33.59375 26.515625 31.984375 
L 29.59375 31.296875 
Q 39.15625 29.25 43.1875 25.515625 
Q 47.21875 21.78125 47.21875 15.09375 
Q 47.21875 7.46875 41.1875 3.015625 
Q 35.15625 -1.421875 24.609375 -1.421875 
Q 20.21875 -1.421875 15.453125 -0.5625 
Q 10.6875 0.296875 5.421875 2 
L 5.421875 11.28125 
Q 10.40625 8.6875 15.234375 7.390625 
Q 20.0625 6.109375 24.8125 6.109375 
Q 31.15625 6.109375 34.5625 8.28125 
Q 37.984375 10.453125 37.984375 14.40625 
Q 37.984375 18.0625 35.515625 20.015625 
Q 33.0625 21.96875 24.703125 23.78125 
L 21.578125 24.515625 
Q 13.234375 26.265625 9.515625 29.90625 
Q 5.8125 33.546875 5.8125 39.890625 
Q 5.8125 47.609375 11.28125 51.796875 
Q 16.75 56 26.8125 56 
Q 31.78125 56 36.171875 55.265625 
Q 40.578125 54.546875 44.28125 53.078125 
z
" id="DejaVuSans-115"/>
     <path d="M 18.109375 8.203125 
L 18.109375 -20.796875 
L 9.078125 -20.796875 
L 9.078125 54.6875 
L 18.109375 54.6875 
L 18.109375 46.390625 
Q 20.953125 51.265625 25.265625 53.625 
Q 29.59375 56 35.59375 56 
Q 45.5625 56 51.78125 48.09375 
Q 58.015625 40.1875 58.015625 27.296875 
Q 58.015625 14.40625 51.78125 6.484375 
Q 45.5625 -1.421875 35.59375 -1.421875 
Q 29.59375 -1.421875 25.265625 0.953125 
Q 20.953125 3.328125 18.109375 8.203125 
z
M 48.6875 27.296875 
Q 48.6875 37.203125 44.609375 42.84375 
Q 40.53125 48.484375 33.40625 48.484375 
Q 26.265625 48.484375 22.1875 42.84375 
Q 18.109375 37.203125 18.109375 27.296875 
Q 18.109375 17.390625 22.1875 11.75 
Q 26.265625 6.109375 33.40625 6.109375 
Q 40.53125 6.109375 44.609375 11.75 
Q 48.6875 17.390625 48.6875 27.296875 
z
" id="DejaVuSans-112"/>
     <path d="M 30.609375 48.390625 
Q 23.390625 48.390625 19.1875 42.75 
Q 14.984375 37.109375 14.984375 27.296875 
Q 14.984375 17.484375 19.15625 11.84375 
Q 23.34375 6.203125 30.609375 6.203125 
Q 37.796875 6.203125 41.984375 11.859375 
Q 46.1875 17.53125 46.1875 27.296875 
Q 46.1875 37.015625 41.984375 42.703125 
Q 37.796875 48.390625 30.609375 48.390625 
z
M 30.609375 56 
Q 42.328125 56 49.015625 48.375 
Q 55.71875 40.765625 55.71875 27.296875 
Q 55.71875 13.875 49.015625 6.21875 
Q 42.328125 -1.421875 30.609375 -1.421875 
Q 18.84375 -1.421875 12.171875 6.21875 
Q 5.515625 13.875 5.515625 27.296875 
Q 5.515625 40.765625 12.171875 48.375 
Q 18.84375 56 30.609375 56 
z
" id="DejaVuSans-111"/>
     <path d="M 54.890625 33.015625 
L 54.890625 0 
L 45.90625 0 
L 45.90625 32.71875 
Q 45.90625 40.484375 42.875 44.328125 
Q 39.84375 48.1875 33.796875 48.1875 
Q 26.515625 48.1875 22.3125 43.546875 
Q 18.109375 38.921875 18.109375 30.90625 
L 18.109375 0 
L 9.078125 0 
L 9.078125 54.6875 
L 18.109375 54.6875 
L 18.109375 46.1875 
Q 21.34375 51.125 25.703125 53.5625 
Q 30.078125 56 35.796875 56 
Q 45.21875 56 50.046875 50.171875 
Q 54.890625 44.34375 54.890625 33.015625 
z
" id="DejaVuSans-110"/>
    </defs>
    <g transform="translate(180.75375 45.84)scale(0.12 -0.12)">
     <use xlink:href="#DejaVuSans-48"/>
     <use x="63.623047" xlink:href="#DejaVuSans-47"/>
     <use x="97.314453" xlink:href="#DejaVuSans-49"/>
     <use x="160.9375" xlink:href="#DejaVuSans-32"/>
     <use x="192.724609" xlink:href="#DejaVuSans-82"/>
     <use x="262.144531" xlink:href="#DejaVuSans-101"/>
     <use x="323.667969" xlink:href="#DejaVuSans-115"/>
     <use x="375.767578" xlink:href="#DejaVuSans-112"/>
     <use x="439.244141" xlink:href="#DejaVuSans-111"/>
     <use x="500.425781" xlink:href="#DejaVuSans-110"/>
     <use x="563.804688" xlink:href="#DejaVuSans-115"/>
     <use x="615.904297" xlink:href="#DejaVuSans-101"/>
    </g>
   </g>
  </g>
 </g>
 <defs>
  <clipPath id="p57b39e0a83">
   <rect height="332.64" width="334.8" x="54" y="51.84"/>
  </clipPath>
 </defs>
</svg>
