<?xml version="1.0" encoding="utf-8" standalone="no"?>
<!DOCTYPE svg PUBLIC "-//W3C//DTD SVG 1.1//EN"
  "http://www.w3.org/Graphics/SVG/1.1/DTD/svg11.dtd">
<!-- Created with matplotlib (https://matplotlib.org/) -->
<svg height="432pt" version="1.1" viewBox="0 0 432 432" width="432pt" xmlns="http://www.w3.org/2000/svg" xmlns:xlink="http://www.w3.org/1999/xlink">
 <metadata>
  <rdf:RDF xmlns:cc="http://creativecommons.org/ns#" xmlns:dc="http://purl.org/dc/elements/1.1/" xmlns:rdf="http://www.w3.org/1999/02/22-rdf-syntax-ns#">
   <cc:Work>
    <dc:type rdf:resource="http://purl.org/dc/dcmitype/StillImage"/>
    <dc:date>2020-09-23T11:01:19.054498</dc:date>
    <dc:format>image/svg+xml</dc:format>
    <dc:creator>
     <cc:Agent>
      <dc:title>Matplotlib v3.3.1, https://matplotlib.org/</dc:title>
     </cc:Agent>
    </dc:creator>
   </cc:Work>
  </rdf:RDF>
 </metadata>
 <defs>
  <style type="text/css">*{stroke-linecap:butt;stroke-linejoin:round;}</style>
 </defs>
 <g id="figure_1">
  <g id="patch_1">
   <path d="M 0 432 
L 432 432 
L 432 0 
L 0 0 
z
" style="fill:#ffffff;"/>
  </g>
  <g id="axes_1">
   <g id="patch_2">
    <path d="M 54 384.48 
L 388.8 384.48 
L 388.8 51.84 
L 54 51.84 
z
" style="fill:#ffffff;"/>
   </g>
   <g id="matplotlib.axis_1">
    <g id="xtick_1">
     <g id="line2d_1">
      <defs>
       <path d="M 0 0 
L 0 3.5 
" id="md8921a20f7" style="stroke:#000000;stroke-width:0.8;"/>
      </defs>
      <g>
       <use style="stroke:#000000;stroke-width:0.8;" x="56.001893" xlink:href="#md8921a20f7" y="384.48"/>
      </g>
     </g>
     <g id="text_1">
      <!-- −3 -->
      <g transform="translate(48.630799 399.078438)scale(0.1 -0.1)">
       <defs>
        <path d="M 10.59375 35.5 
L 73.1875 35.5 
L 73.1875 27.203125 
L 10.59375 27.203125 
z
" id="DejaVuSans-8722"/>
        <path d="M 40.578125 39.3125 
Q 47.65625 37.796875 51.625 33 
Q 55.609375 28.21875 55.609375 21.1875 
Q 55.609375 10.40625 48.1875 4.484375 
Q 40.765625 -1.421875 27.09375 -1.421875 
Q 22.515625 -1.421875 17.65625 -0.515625 
Q 12.796875 0.390625 7.625 2.203125 
L 7.625 11.71875 
Q 11.71875 9.328125 16.59375 8.109375 
Q 21.484375 6.890625 26.8125 6.890625 
Q 36.078125 6.890625 40.9375 10.546875 
Q 45.796875 14.203125 45.796875 21.1875 
Q 45.796875 27.640625 41.28125 31.265625 
Q 36.765625 34.90625 28.71875 34.90625 
L 20.21875 34.90625 
L 20.21875 43.015625 
L 29.109375 43.015625 
Q 36.375 43.015625 40.234375 45.921875 
Q 44.09375 48.828125 44.09375 54.296875 
Q 44.09375 59.90625 40.109375 62.90625 
Q 36.140625 65.921875 28.71875 65.921875 
Q 24.65625 65.921875 20.015625 65.03125 
Q 15.375 64.15625 9.8125 62.3125 
L 9.8125 71.09375 
Q 15.4375 72.65625 20.34375 73.4375 
Q 25.25 74.21875 29.59375 74.21875 
Q 40.828125 74.21875 47.359375 69.109375 
Q 53.90625 64.015625 53.90625 55.328125 
Q 53.90625 49.265625 50.4375 45.09375 
Q 46.96875 40.921875 40.578125 39.3125 
z
" id="DejaVuSans-51"/>
       </defs>
       <use xlink:href="#DejaVuSans-8722"/>
       <use x="83.789062" xlink:href="#DejaVuSans-51"/>
      </g>
     </g>
    </g>
    <g id="xtick_2">
     <g id="line2d_2">
      <g>
       <use style="stroke:#000000;stroke-width:0.8;" x="103.436646" xlink:href="#md8921a20f7" y="384.48"/>
      </g>
     </g>
     <g id="text_2">
      <!-- −2 -->
      <g transform="translate(96.065553 399.078438)scale(0.1 -0.1)">
       <defs>
        <path d="M 19.1875 8.296875 
L 53.609375 8.296875 
L 53.609375 0 
L 7.328125 0 
L 7.328125 8.296875 
Q 12.9375 14.109375 22.625 23.890625 
Q 32.328125 33.6875 34.8125 36.53125 
Q 39.546875 41.84375 41.421875 45.53125 
Q 43.3125 49.21875 43.3125 52.78125 
Q 43.3125 58.59375 39.234375 62.25 
Q 35.15625 65.921875 28.609375 65.921875 
Q 23.96875 65.921875 18.8125 64.3125 
Q 13.671875 62.703125 7.8125 59.421875 
L 7.8125 69.390625 
Q 13.765625 71.78125 18.9375 73 
Q 24.125 74.21875 28.421875 74.21875 
Q 39.75 74.21875 46.484375 68.546875 
Q 53.21875 62.890625 53.21875 53.421875 
Q 53.21875 48.921875 51.53125 44.890625 
Q 49.859375 40.875 45.40625 35.40625 
Q 44.1875 33.984375 37.640625 27.21875 
Q 31.109375 20.453125 19.1875 8.296875 
z
" id="DejaVuSans-50"/>
       </defs>
       <use xlink:href="#DejaVuSans-8722"/>
       <use x="83.789062" xlink:href="#DejaVuSans-50"/>
      </g>
     </g>
    </g>
    <g id="xtick_3">
     <g id="line2d_3">
      <g>
       <use style="stroke:#000000;stroke-width:0.8;" x="150.8714" xlink:href="#md8921a20f7" y="384.48"/>
      </g>
     </g>
     <g id="text_3">
      <!-- −1 -->
      <g transform="translate(143.500306 399.078438)scale(0.1 -0.1)">
       <defs>
        <path d="M 12.40625 8.296875 
L 28.515625 8.296875 
L 28.515625 63.921875 
L 10.984375 60.40625 
L 10.984375 69.390625 
L 28.421875 72.90625 
L 38.28125 72.90625 
L 38.28125 8.296875 
L 54.390625 8.296875 
L 54.390625 0 
L 12.40625 0 
z
" id="DejaVuSans-49"/>
       </defs>
       <use xlink:href="#DejaVuSans-8722"/>
       <use x="83.789062" xlink:href="#DejaVuSans-49"/>
      </g>
     </g>
    </g>
    <g id="xtick_4">
     <g id="line2d_4">
      <g>
       <use style="stroke:#000000;stroke-width:0.8;" x="198.306153" xlink:href="#md8921a20f7" y="384.48"/>
      </g>
     </g>
     <g id="text_4">
      <!-- 0 -->
      <g transform="translate(195.124903 399.078438)scale(0.1 -0.1)">
       <defs>
        <path d="M 31.78125 66.40625 
Q 24.171875 66.40625 20.328125 58.90625 
Q 16.5 51.421875 16.5 36.375 
Q 16.5 21.390625 20.328125 13.890625 
Q 24.171875 6.390625 31.78125 6.390625 
Q 39.453125 6.390625 43.28125 13.890625 
Q 47.125 21.390625 47.125 36.375 
Q 47.125 51.421875 43.28125 58.90625 
Q 39.453125 66.40625 31.78125 66.40625 
z
M 31.78125 74.21875 
Q 44.046875 74.21875 50.515625 64.515625 
Q 56.984375 54.828125 56.984375 36.375 
Q 56.984375 17.96875 50.515625 8.265625 
Q 44.046875 -1.421875 31.78125 -1.421875 
Q 19.53125 -1.421875 13.0625 8.265625 
Q 6.59375 17.96875 6.59375 36.375 
Q 6.59375 54.828125 13.0625 64.515625 
Q 19.53125 74.21875 31.78125 74.21875 
z
" id="DejaVuSans-48"/>
       </defs>
       <use xlink:href="#DejaVuSans-48"/>
      </g>
     </g>
    </g>
    <g id="xtick_5">
     <g id="line2d_5">
      <g>
       <use style="stroke:#000000;stroke-width:0.8;" x="245.740906" xlink:href="#md8921a20f7" y="384.48"/>
      </g>
     </g>
     <g id="text_5">
      <!-- 1 -->
      <g transform="translate(242.559656 399.078438)scale(0.1 -0.1)">
       <use xlink:href="#DejaVuSans-49"/>
      </g>
     </g>
    </g>
    <g id="xtick_6">
     <g id="line2d_6">
      <g>
       <use style="stroke:#000000;stroke-width:0.8;" x="293.17566" xlink:href="#md8921a20f7" y="384.48"/>
      </g>
     </g>
     <g id="text_6">
      <!-- 2 -->
      <g transform="translate(289.99441 399.078438)scale(0.1 -0.1)">
       <use xlink:href="#DejaVuSans-50"/>
      </g>
     </g>
    </g>
    <g id="xtick_7">
     <g id="line2d_7">
      <g>
       <use style="stroke:#000000;stroke-width:0.8;" x="340.610413" xlink:href="#md8921a20f7" y="384.48"/>
      </g>
     </g>
     <g id="text_7">
      <!-- 3 -->
      <g transform="translate(337.429163 399.078438)scale(0.1 -0.1)">
       <use xlink:href="#DejaVuSans-51"/>
      </g>
     </g>
    </g>
    <g id="xtick_8">
     <g id="line2d_8">
      <g>
       <use style="stroke:#000000;stroke-width:0.8;" x="388.045166" xlink:href="#md8921a20f7" y="384.48"/>
      </g>
     </g>
     <g id="text_8">
      <!-- 4 -->
      <g transform="translate(384.863916 399.078438)scale(0.1 -0.1)">
       <defs>
        <path d="M 37.796875 64.3125 
L 12.890625 25.390625 
L 37.796875 25.390625 
z
M 35.203125 72.90625 
L 47.609375 72.90625 
L 47.609375 25.390625 
L 58.015625 25.390625 
L 58.015625 17.1875 
L 47.609375 17.1875 
L 47.609375 0 
L 37.796875 0 
L 37.796875 17.1875 
L 4.890625 17.1875 
L 4.890625 26.703125 
z
" id="DejaVuSans-52"/>
       </defs>
       <use xlink:href="#DejaVuSans-52"/>
      </g>
     </g>
    </g>
   </g>
   <g id="matplotlib.axis_2">
    <g id="ytick_1">
     <g id="line2d_9">
      <defs>
       <path d="M 0 0 
L -3.5 0 
" id="me2f81ac779" style="stroke:#000000;stroke-width:0.8;"/>
      </defs>
      <g>
       <use style="stroke:#000000;stroke-width:0.8;" x="54" xlink:href="#me2f81ac779" y="347.47437"/>
      </g>
     </g>
     <g id="text_9">
      <!-- −2 -->
      <g transform="translate(32.257812 351.273588)scale(0.1 -0.1)">
       <use xlink:href="#DejaVuSans-8722"/>
       <use x="83.789062" xlink:href="#DejaVuSans-50"/>
      </g>
     </g>
    </g>
    <g id="ytick_2">
     <g id="line2d_10">
      <g>
       <use style="stroke:#000000;stroke-width:0.8;" x="54" xlink:href="#me2f81ac779" y="301.278421"/>
      </g>
     </g>
     <g id="text_10">
      <!-- −1 -->
      <g transform="translate(32.257812 305.077639)scale(0.1 -0.1)">
       <use xlink:href="#DejaVuSans-8722"/>
       <use x="83.789062" xlink:href="#DejaVuSans-49"/>
      </g>
     </g>
    </g>
    <g id="ytick_3">
     <g id="line2d_11">
      <g>
       <use style="stroke:#000000;stroke-width:0.8;" x="54" xlink:href="#me2f81ac779" y="255.082472"/>
      </g>
     </g>
     <g id="text_11">
      <!-- 0 -->
      <g transform="translate(40.6375 258.881691)scale(0.1 -0.1)">
       <use xlink:href="#DejaVuSans-48"/>
      </g>
     </g>
    </g>
    <g id="ytick_4">
     <g id="line2d_12">
      <g>
       <use style="stroke:#000000;stroke-width:0.8;" x="54" xlink:href="#me2f81ac779" y="208.886523"/>
      </g>
     </g>
     <g id="text_12">
      <!-- 1 -->
      <g transform="translate(40.6375 212.685742)scale(0.1 -0.1)">
       <use xlink:href="#DejaVuSans-49"/>
      </g>
     </g>
    </g>
    <g id="ytick_5">
     <g id="line2d_13">
      <g>
       <use style="stroke:#000000;stroke-width:0.8;" x="54" xlink:href="#me2f81ac779" y="162.690574"/>
      </g>
     </g>
     <g id="text_13">
      <!-- 2 -->
      <g transform="translate(40.6375 166.489793)scale(0.1 -0.1)">
       <use xlink:href="#DejaVuSans-50"/>
      </g>
     </g>
    </g>
    <g id="ytick_6">
     <g id="line2d_14">
      <g>
       <use style="stroke:#000000;stroke-width:0.8;" x="54" xlink:href="#me2f81ac779" y="116.494625"/>
      </g>
     </g>
     <g id="text_14">
      <!-- 3 -->
      <g transform="translate(40.6375 120.293844)scale(0.1 -0.1)">
       <use xlink:href="#DejaVuSans-51"/>
      </g>
     </g>
    </g>
    <g id="ytick_7">
     <g id="line2d_15">
      <g>
       <use style="stroke:#000000;stroke-width:0.8;" x="54" xlink:href="#me2f81ac779" y="70.298676"/>
      </g>
     </g>
     <g id="text_15">
      <!-- 4 -->
      <g transform="translate(40.6375 74.097895)scale(0.1 -0.1)">
       <use xlink:href="#DejaVuSans-52"/>
      </g>
     </g>
    </g>
   </g>
   <g id="line2d_16">
    <defs>
     <path d="M 0 3 
C 0.795609 3 1.55874 2.683901 2.12132 2.12132 
C 2.683901 1.55874 3 0.795609 3 0 
C 3 -0.795609 2.683901 -1.55874 2.12132 -2.12132 
C 1.55874 -2.683901 0.795609 -3 0 -3 
C -0.795609 -3 -1.55874 -2.683901 -2.12132 -2.12132 
C -2.683901 -1.55874 -3 -0.795609 -3 0 
C -3 0.795609 -2.683901 1.55874 -2.12132 2.12132 
C -1.55874 2.683901 -0.795609 3 0 3 
z
" id="m7068721348" style="stroke:#1f77b4;"/>
    </defs>
    <g clip-path="url(#p293d913231)">
     <use style="fill:#1f77b4;stroke:#1f77b4;" x="273.273491" xlink:href="#m7068721348" y="199.195796"/>
     <use style="fill:#1f77b4;stroke:#1f77b4;" x="292.469504" xlink:href="#m7068721348" y="302.117559"/>
     <use style="fill:#1f77b4;stroke:#1f77b4;" x="198.059478" xlink:href="#m7068721348" y="221.806663"/>
     <use style="fill:#1f77b4;stroke:#1f77b4;" x="310.054013" xlink:href="#m7068721348" y="197.224599"/>
     <use style="fill:#1f77b4;stroke:#1f77b4;" x="172.425811" xlink:href="#m7068721348" y="251.24024"/>
     <use style="fill:#1f77b4;stroke:#1f77b4;" x="235.244079" xlink:href="#m7068721348" y="262.885296"/>
     <use style="fill:#1f77b4;stroke:#1f77b4;" x="288.942172" xlink:href="#m7068721348" y="313.351235"/>
     <use style="fill:#1f77b4;stroke:#1f77b4;" x="145.544043" xlink:href="#m7068721348" y="284.993253"/>
     <use style="fill:#1f77b4;stroke:#1f77b4;" x="225.922732" xlink:href="#m7068721348" y="247.330081"/>
     <use style="fill:#1f77b4;stroke:#1f77b4;" x="289.951194" xlink:href="#m7068721348" y="296.771164"/>
     <use style="fill:#1f77b4;stroke:#1f77b4;" x="373.581818" xlink:href="#m7068721348" y="212.247938"/>
     <use style="fill:#1f77b4;stroke:#1f77b4;" x="279.184414" xlink:href="#m7068721348" y="319.599345"/>
     <use style="fill:#1f77b4;stroke:#1f77b4;" x="219.21018" xlink:href="#m7068721348" y="272.709139"/>
     <use style="fill:#1f77b4;stroke:#1f77b4;" x="256.259559" xlink:href="#m7068721348" y="227.15317"/>
     <use style="fill:#1f77b4;stroke:#1f77b4;" x="228.436996" xlink:href="#m7068721348" y="273.808588"/>
     <use style="fill:#1f77b4;stroke:#1f77b4;" x="210.80427" xlink:href="#m7068721348" y="251.079878"/>
     <use style="fill:#1f77b4;stroke:#1f77b4;" x="220.923228" xlink:href="#m7068721348" y="129.726238"/>
     <use style="fill:#1f77b4;stroke:#1f77b4;" x="320.414839" xlink:href="#m7068721348" y="345.132034"/>
     <use style="fill:#1f77b4;stroke:#1f77b4;" x="237.443539" xlink:href="#m7068721348" y="124.59169"/>
     <use style="fill:#1f77b4;stroke:#1f77b4;" x="306.691964" xlink:href="#m7068721348" y="293.432591"/>
     <use style="fill:#1f77b4;stroke:#1f77b4;" x="305.236974" xlink:href="#m7068721348" y="287.292817"/>
     <use style="fill:#1f77b4;stroke:#1f77b4;" x="221.224994" xlink:href="#m7068721348" y="244.287795"/>
     <use style="fill:#1f77b4;stroke:#1f77b4;" x="189.560773" xlink:href="#m7068721348" y="268.043014"/>
     <use style="fill:#1f77b4;stroke:#1f77b4;" x="251.900191" xlink:href="#m7068721348" y="246.222938"/>
     <use style="fill:#1f77b4;stroke:#1f77b4;" x="179.497717" xlink:href="#m7068721348" y="347.141822"/>
     <use style="fill:#1f77b4;stroke:#1f77b4;" x="251.792892" xlink:href="#m7068721348" y="125.612809"/>
     <use style="fill:#1f77b4;stroke:#1f77b4;" x="180.424827" xlink:href="#m7068721348" y="351.394384"/>
     <use style="fill:#1f77b4;stroke:#1f77b4;" x="353.626005" xlink:href="#m7068721348" y="221.222865"/>
     <use style="fill:#1f77b4;stroke:#1f77b4;" x="312.459369" xlink:href="#m7068721348" y="357.04035"/>
     <use style="fill:#1f77b4;stroke:#1f77b4;" x="267.831227" xlink:href="#m7068721348" y="303.245756"/>
     <use style="fill:#1f77b4;stroke:#1f77b4;" x="265.744033" xlink:href="#m7068721348" y="219.146219"/>
     <use style="fill:#1f77b4;stroke:#1f77b4;" x="216.023168" xlink:href="#m7068721348" y="248.031546"/>
     <use style="fill:#1f77b4;stroke:#1f77b4;" x="196.586183" xlink:href="#m7068721348" y="239.278182"/>
     <use style="fill:#1f77b4;stroke:#1f77b4;" x="315.419994" xlink:href="#m7068721348" y="304.590755"/>
     <use style="fill:#1f77b4;stroke:#1f77b4;" x="223.399321" xlink:href="#m7068721348" y="249.872902"/>
     <use style="fill:#1f77b4;stroke:#1f77b4;" x="238.484451" xlink:href="#m7068721348" y="142.758202"/>
     <use style="fill:#1f77b4;stroke:#1f77b4;" x="174.825759" xlink:href="#m7068721348" y="238.840045"/>
     <use style="fill:#1f77b4;stroke:#1f77b4;" x="291.489759" xlink:href="#m7068721348" y="198.295437"/>
     <use style="fill:#1f77b4;stroke:#1f77b4;" x="242.821148" xlink:href="#m7068721348" y="307.014888"/>
     <use style="fill:#1f77b4;stroke:#1f77b4;" x="259.055307" xlink:href="#m7068721348" y="123.077413"/>
     <use style="fill:#1f77b4;stroke:#1f77b4;" x="360.587753" xlink:href="#m7068721348" y="197.549388"/>
     <use style="fill:#1f77b4;stroke:#1f77b4;" x="197.338455" xlink:href="#m7068721348" y="236.963506"/>
     <use style="fill:#1f77b4;stroke:#1f77b4;" x="195.81714" xlink:href="#m7068721348" y="220.402328"/>
     <use style="fill:#1f77b4;stroke:#1f77b4;" x="181.726932" xlink:href="#m7068721348" y="248.895005"/>
     <use style="fill:#1f77b4;stroke:#1f77b4;" x="232.286927" xlink:href="#m7068721348" y="162.873008"/>
     <use style="fill:#1f77b4;stroke:#1f77b4;" x="210.696658" xlink:href="#m7068721348" y="209.961064"/>
     <use style="fill:#1f77b4;stroke:#1f77b4;" x="252.28917" xlink:href="#m7068721348" y="286.825679"/>
     <use style="fill:#1f77b4;stroke:#1f77b4;" x="280.69142" xlink:href="#m7068721348" y="226.029375"/>
     <use style="fill:#1f77b4;stroke:#1f77b4;" x="334.625423" xlink:href="#m7068721348" y="211.005282"/>
     <use style="fill:#1f77b4;stroke:#1f77b4;" x="269.621577" xlink:href="#m7068721348" y="312.526208"/>
     <use style="fill:#1f77b4;stroke:#1f77b4;" x="294.625197" xlink:href="#m7068721348" y="278.827358"/>
     <use style="fill:#1f77b4;stroke:#1f77b4;" x="182.854883" xlink:href="#m7068721348" y="267.858675"/>
     <use style="fill:#1f77b4;stroke:#1f77b4;" x="305.563846" xlink:href="#m7068721348" y="189.603792"/>
     <use style="fill:#1f77b4;stroke:#1f77b4;" x="202.854358" xlink:href="#m7068721348" y="239.205454"/>
     <use style="fill:#1f77b4;stroke:#1f77b4;" x="204.120217" xlink:href="#m7068721348" y="263.766102"/>
     <use style="fill:#1f77b4;stroke:#1f77b4;" x="172.763618" xlink:href="#m7068721348" y="266.022127"/>
     <use style="fill:#1f77b4;stroke:#1f77b4;" x="263.256657" xlink:href="#m7068721348" y="260.845064"/>
     <use style="fill:#1f77b4;stroke:#1f77b4;" x="221.109289" xlink:href="#m7068721348" y="277.231518"/>
     <use style="fill:#1f77b4;stroke:#1f77b4;" x="196.064952" xlink:href="#m7068721348" y="369.36"/>
     <use style="fill:#1f77b4;stroke:#1f77b4;" x="277.466061" xlink:href="#m7068721348" y="304.086995"/>
     <use style="fill:#1f77b4;stroke:#1f77b4;" x="265.709973" xlink:href="#m7068721348" y="314.922702"/>
     <use style="fill:#1f77b4;stroke:#1f77b4;" x="274.515362" xlink:href="#m7068721348" y="343.79678"/>
     <use style="fill:#1f77b4;stroke:#1f77b4;" x="243.405883" xlink:href="#m7068721348" y="312.436816"/>
     <use style="fill:#1f77b4;stroke:#1f77b4;" x="228.95315" xlink:href="#m7068721348" y="145.30525"/>
     <use style="fill:#1f77b4;stroke:#1f77b4;" x="234.911705" xlink:href="#m7068721348" y="356.693814"/>
     <use style="fill:#1f77b4;stroke:#1f77b4;" x="265.073621" xlink:href="#m7068721348" y="295.822763"/>
     <use style="fill:#1f77b4;stroke:#1f77b4;" x="258.638274" xlink:href="#m7068721348" y="325.851765"/>
     <use style="fill:#1f77b4;stroke:#1f77b4;" x="199.324327" xlink:href="#m7068721348" y="265.357443"/>
     <use style="fill:#1f77b4;stroke:#1f77b4;" x="290.574308" xlink:href="#m7068721348" y="225.163789"/>
     <use style="fill:#1f77b4;stroke:#1f77b4;" x="293.539051" xlink:href="#m7068721348" y="344.751212"/>
     <use style="fill:#1f77b4;stroke:#1f77b4;" x="239.689966" xlink:href="#m7068721348" y="257.036855"/>
     <use style="fill:#1f77b4;stroke:#1f77b4;" x="286.563064" xlink:href="#m7068721348" y="305.605943"/>
     <use style="fill:#1f77b4;stroke:#1f77b4;" x="177.678069" xlink:href="#m7068721348" y="317.29738"/>
     <use style="fill:#1f77b4;stroke:#1f77b4;" x="343.923259" xlink:href="#m7068721348" y="289.056082"/>
     <use style="fill:#1f77b4;stroke:#1f77b4;" x="291.546697" xlink:href="#m7068721348" y="329.79838"/>
     <use style="fill:#1f77b4;stroke:#1f77b4;" x="292.07599" xlink:href="#m7068721348" y="298.022952"/>
     <use style="fill:#1f77b4;stroke:#1f77b4;" x="219.021895" xlink:href="#m7068721348" y="262.157707"/>
     <use style="fill:#1f77b4;stroke:#1f77b4;" x="319.555971" xlink:href="#m7068721348" y="358.706664"/>
     <use style="fill:#1f77b4;stroke:#1f77b4;" x="278.450354" xlink:href="#m7068721348" y="319.381311"/>
     <use style="fill:#1f77b4;stroke:#1f77b4;" x="136.320165" xlink:href="#m7068721348" y="347.436789"/>
     <use style="fill:#1f77b4;stroke:#1f77b4;" x="209.358235" xlink:href="#m7068721348" y="263.214732"/>
     <use style="fill:#1f77b4;stroke:#1f77b4;" x="248.066715" xlink:href="#m7068721348" y="168.143016"/>
     <use style="fill:#1f77b4;stroke:#1f77b4;" x="224.421107" xlink:href="#m7068721348" y="150.16917"/>
     <use style="fill:#1f77b4;stroke:#1f77b4;" x="246.696528" xlink:href="#m7068721348" y="305.683615"/>
     <use style="fill:#1f77b4;stroke:#1f77b4;" x="310.728848" xlink:href="#m7068721348" y="205.710755"/>
     <use style="fill:#1f77b4;stroke:#1f77b4;" x="222.068724" xlink:href="#m7068721348" y="326.450746"/>
     <use style="fill:#1f77b4;stroke:#1f77b4;" x="237.204357" xlink:href="#m7068721348" y="334.600525"/>
     <use style="fill:#1f77b4;stroke:#1f77b4;" x="206.873221" xlink:href="#m7068721348" y="267.723346"/>
     <use style="fill:#1f77b4;stroke:#1f77b4;" x="159.13219" xlink:href="#m7068721348" y="265.820186"/>
     <use style="fill:#1f77b4;stroke:#1f77b4;" x="305.717561" xlink:href="#m7068721348" y="312.546936"/>
     <use style="fill:#1f77b4;stroke:#1f77b4;" x="250.280901" xlink:href="#m7068721348" y="147.012183"/>
     <use style="fill:#1f77b4;stroke:#1f77b4;" x="205.23661" xlink:href="#m7068721348" y="287.389688"/>
     <use style="fill:#1f77b4;stroke:#1f77b4;" x="284.973832" xlink:href="#m7068721348" y="226.584038"/>
     <use style="fill:#1f77b4;stroke:#1f77b4;" x="182.608811" xlink:href="#m7068721348" y="364.517946"/>
     <use style="fill:#1f77b4;stroke:#1f77b4;" x="256.808093" xlink:href="#m7068721348" y="168.565486"/>
     <use style="fill:#1f77b4;stroke:#1f77b4;" x="312.574057" xlink:href="#m7068721348" y="234.777136"/>
     <use style="fill:#1f77b4;stroke:#1f77b4;" x="277.452149" xlink:href="#m7068721348" y="253.971639"/>
     <use style="fill:#1f77b4;stroke:#1f77b4;" x="203.477963" xlink:href="#m7068721348" y="146.748301"/>
     <use style="fill:#1f77b4;stroke:#1f77b4;" x="137.159928" xlink:href="#m7068721348" y="248.447174"/>
     <use style="fill:#1f77b4;stroke:#1f77b4;" x="274.072642" xlink:href="#m7068721348" y="260.665453"/>
    </g>
   </g>
   <g id="line2d_17">
    <defs>
     <path d="M 0 3 
C 0.795609 3 1.55874 2.683901 2.12132 2.12132 
C 2.683901 1.55874 3 0.795609 3 0 
C 3 -0.795609 2.683901 -1.55874 2.12132 -2.12132 
C 1.55874 -2.683901 0.795609 -3 0 -3 
C -0.795609 -3 -1.55874 -2.683901 -2.12132 -2.12132 
C -2.683901 -1.55874 -3 -0.795609 -3 0 
C -3 0.795609 -2.683901 1.55874 -2.12132 2.12132 
C -1.55874 2.683901 -0.795609 3 0 3 
z
" id="m6dda7dfd62" style="stroke:#ffa500;"/>
    </defs>
    <g clip-path="url(#p293d913231)">
     <use style="fill:#ffa500;stroke:#ffa500;" x="268.551048" xlink:href="#m6dda7dfd62" y="268.030435"/>
     <use style="fill:#ffa500;stroke:#ffa500;" x="168.737578" xlink:href="#m6dda7dfd62" y="288.007566"/>
     <use style="fill:#ffa500;stroke:#ffa500;" x="163.33043" xlink:href="#m6dda7dfd62" y="287.899372"/>
     <use style="fill:#ffa500;stroke:#ffa500;" x="270.066691" xlink:href="#m6dda7dfd62" y="114.002092"/>
     <use style="fill:#ffa500;stroke:#ffa500;" x="225.945667" xlink:href="#m6dda7dfd62" y="173.36858"/>
     <use style="fill:#ffa500;stroke:#ffa500;" x="159.114065" xlink:href="#m6dda7dfd62" y="182.713888"/>
     <use style="fill:#ffa500;stroke:#ffa500;" x="108.908797" xlink:href="#m6dda7dfd62" y="308.796926"/>
     <use style="fill:#ffa500;stroke:#ffa500;" x="216.130781" xlink:href="#m6dda7dfd62" y="144.678784"/>
     <use style="fill:#ffa500;stroke:#ffa500;" x="149.742373" xlink:href="#m6dda7dfd62" y="295.150237"/>
     <use style="fill:#ffa500;stroke:#ffa500;" x="138.337921" xlink:href="#m6dda7dfd62" y="196.809295"/>
     <use style="fill:#ffa500;stroke:#ffa500;" x="123.347811" xlink:href="#m6dda7dfd62" y="315.733974"/>
     <use style="fill:#ffa500;stroke:#ffa500;" x="208.207101" xlink:href="#m6dda7dfd62" y="194.465455"/>
     <use style="fill:#ffa500;stroke:#ffa500;" x="106.704356" xlink:href="#m6dda7dfd62" y="289.816389"/>
     <use style="fill:#ffa500;stroke:#ffa500;" x="280.037405" xlink:href="#m6dda7dfd62" y="274.878479"/>
     <use style="fill:#ffa500;stroke:#ffa500;" x="168.083154" xlink:href="#m6dda7dfd62" y="178.618876"/>
     <use style="fill:#ffa500;stroke:#ffa500;" x="242.730522" xlink:href="#m6dda7dfd62" y="172.636734"/>
     <use style="fill:#ffa500;stroke:#ffa500;" x="302.571134" xlink:href="#m6dda7dfd62" y="284.761899"/>
     <use style="fill:#ffa500;stroke:#ffa500;" x="297.761697" xlink:href="#m6dda7dfd62" y="282.122196"/>
     <use style="fill:#ffa500;stroke:#ffa500;" x="281.776892" xlink:href="#m6dda7dfd62" y="268.313103"/>
     <use style="fill:#ffa500;stroke:#ffa500;" x="121.370905" xlink:href="#m6dda7dfd62" y="254.04335"/>
     <use style="fill:#ffa500;stroke:#ffa500;" x="180.624153" xlink:href="#m6dda7dfd62" y="368.185509"/>
     <use style="fill:#ffa500;stroke:#ffa500;" x="173.506829" xlink:href="#m6dda7dfd62" y="321.890612"/>
     <use style="fill:#ffa500;stroke:#ffa500;" x="198.741746" xlink:href="#m6dda7dfd62" y="187.243841"/>
     <use style="fill:#ffa500;stroke:#ffa500;" x="276.779689" xlink:href="#m6dda7dfd62" y="166.556449"/>
     <use style="fill:#ffa500;stroke:#ffa500;" x="141.143655" xlink:href="#m6dda7dfd62" y="334.634872"/>
     <use style="fill:#ffa500;stroke:#ffa500;" x="222.86742" xlink:href="#m6dda7dfd62" y="170.085803"/>
     <use style="fill:#ffa500;stroke:#ffa500;" x="302.289546" xlink:href="#m6dda7dfd62" y="247.418291"/>
     <use style="fill:#ffa500;stroke:#ffa500;" x="245.152269" xlink:href="#m6dda7dfd62" y="168.15896"/>
     <use style="fill:#ffa500;stroke:#ffa500;" x="252.550834" xlink:href="#m6dda7dfd62" y="228.352528"/>
     <use style="fill:#ffa500;stroke:#ffa500;" x="176.864186" xlink:href="#m6dda7dfd62" y="190.55583"/>
     <use style="fill:#ffa500;stroke:#ffa500;" x="253.530278" xlink:href="#m6dda7dfd62" y="155.52402"/>
     <use style="fill:#ffa500;stroke:#ffa500;" x="187.004522" xlink:href="#m6dda7dfd62" y="184.374334"/>
     <use style="fill:#ffa500;stroke:#ffa500;" x="69.218182" xlink:href="#m6dda7dfd62" y="283.36346"/>
     <use style="fill:#ffa500;stroke:#ffa500;" x="226.706887" xlink:href="#m6dda7dfd62" y="206.606985"/>
     <use style="fill:#ffa500;stroke:#ffa500;" x="193.081143" xlink:href="#m6dda7dfd62" y="162.86239"/>
     <use style="fill:#ffa500;stroke:#ffa500;" x="181.419525" xlink:href="#m6dda7dfd62" y="188.388865"/>
     <use style="fill:#ffa500;stroke:#ffa500;" x="174.318939" xlink:href="#m6dda7dfd62" y="187.523821"/>
     <use style="fill:#ffa500;stroke:#ffa500;" x="219.689467" xlink:href="#m6dda7dfd62" y="122.561767"/>
     <use style="fill:#ffa500;stroke:#ffa500;" x="245.859534" xlink:href="#m6dda7dfd62" y="193.139253"/>
     <use style="fill:#ffa500;stroke:#ffa500;" x="148.723439" xlink:href="#m6dda7dfd62" y="142.554068"/>
     <use style="fill:#ffa500;stroke:#ffa500;" x="193.897783" xlink:href="#m6dda7dfd62" y="189.861301"/>
     <use style="fill:#ffa500;stroke:#ffa500;" x="143.292308" xlink:href="#m6dda7dfd62" y="66.96"/>
     <use style="fill:#ffa500;stroke:#ffa500;" x="225.321017" xlink:href="#m6dda7dfd62" y="176.546041"/>
     <use style="fill:#ffa500;stroke:#ffa500;" x="150.206919" xlink:href="#m6dda7dfd62" y="111.325407"/>
     <use style="fill:#ffa500;stroke:#ffa500;" x="219.41415" xlink:href="#m6dda7dfd62" y="196.213762"/>
     <use style="fill:#ffa500;stroke:#ffa500;" x="215.031483" xlink:href="#m6dda7dfd62" y="201.385515"/>
     <use style="fill:#ffa500;stroke:#ffa500;" x="204.724961" xlink:href="#m6dda7dfd62" y="185.378947"/>
     <use style="fill:#ffa500;stroke:#ffa500;" x="139.929462" xlink:href="#m6dda7dfd62" y="353.411032"/>
     <use style="fill:#ffa500;stroke:#ffa500;" x="260.093255" xlink:href="#m6dda7dfd62" y="281.202332"/>
     <use style="fill:#ffa500;stroke:#ffa500;" x="160.537725" xlink:href="#m6dda7dfd62" y="93.042"/>
     <use style="fill:#ffa500;stroke:#ffa500;" x="157.46698" xlink:href="#m6dda7dfd62" y="349.526864"/>
     <use style="fill:#ffa500;stroke:#ffa500;" x="217.482006" xlink:href="#m6dda7dfd62" y="209.678872"/>
     <use style="fill:#ffa500;stroke:#ffa500;" x="131.750416" xlink:href="#m6dda7dfd62" y="180.547638"/>
     <use style="fill:#ffa500;stroke:#ffa500;" x="249.026473" xlink:href="#m6dda7dfd62" y="120.6165"/>
     <use style="fill:#ffa500;stroke:#ffa500;" x="88.645767" xlink:href="#m6dda7dfd62" y="282.151427"/>
     <use style="fill:#ffa500;stroke:#ffa500;" x="176.786433" xlink:href="#m6dda7dfd62" y="345.097778"/>
     <use style="fill:#ffa500;stroke:#ffa500;" x="91.721708" xlink:href="#m6dda7dfd62" y="287.656102"/>
     <use style="fill:#ffa500;stroke:#ffa500;" x="245.576619" xlink:href="#m6dda7dfd62" y="143.294443"/>
     <use style="fill:#ffa500;stroke:#ffa500;" x="247.16653" xlink:href="#m6dda7dfd62" y="154.677048"/>
     <use style="fill:#ffa500;stroke:#ffa500;" x="181.310977" xlink:href="#m6dda7dfd62" y="202.048152"/>
     <use style="fill:#ffa500;stroke:#ffa500;" x="236.037306" xlink:href="#m6dda7dfd62" y="121.738048"/>
     <use style="fill:#ffa500;stroke:#ffa500;" x="239.031435" xlink:href="#m6dda7dfd62" y="122.26837"/>
     <use style="fill:#ffa500;stroke:#ffa500;" x="129.93449" xlink:href="#m6dda7dfd62" y="333.969203"/>
     <use style="fill:#ffa500;stroke:#ffa500;" x="247.146438" xlink:href="#m6dda7dfd62" y="205.081288"/>
     <use style="fill:#ffa500;stroke:#ffa500;" x="229.356415" xlink:href="#m6dda7dfd62" y="112.012202"/>
     <use style="fill:#ffa500;stroke:#ffa500;" x="124.725898" xlink:href="#m6dda7dfd62" y="301.376721"/>
     <use style="fill:#ffa500;stroke:#ffa500;" x="150.473281" xlink:href="#m6dda7dfd62" y="93.237459"/>
     <use style="fill:#ffa500;stroke:#ffa500;" x="170.345009" xlink:href="#m6dda7dfd62" y="183.650286"/>
     <use style="fill:#ffa500;stroke:#ffa500;" x="220.28642" xlink:href="#m6dda7dfd62" y="137.85955"/>
     <use style="fill:#ffa500;stroke:#ffa500;" x="160.618314" xlink:href="#m6dda7dfd62" y="100.322187"/>
     <use style="fill:#ffa500;stroke:#ffa500;" x="255.335987" xlink:href="#m6dda7dfd62" y="116.622835"/>
     <use style="fill:#ffa500;stroke:#ffa500;" x="258.404339" xlink:href="#m6dda7dfd62" y="308.041209"/>
     <use style="fill:#ffa500;stroke:#ffa500;" x="176.071874" xlink:href="#m6dda7dfd62" y="208.343817"/>
     <use style="fill:#ffa500;stroke:#ffa500;" x="161.565058" xlink:href="#m6dda7dfd62" y="294.005661"/>
     <use style="fill:#ffa500;stroke:#ffa500;" x="321.040549" xlink:href="#m6dda7dfd62" y="268.598985"/>
     <use style="fill:#ffa500;stroke:#ffa500;" x="280.229749" xlink:href="#m6dda7dfd62" y="241.21952"/>
     <use style="fill:#ffa500;stroke:#ffa500;" x="249.739181" xlink:href="#m6dda7dfd62" y="200.254198"/>
     <use style="fill:#ffa500;stroke:#ffa500;" x="177.942335" xlink:href="#m6dda7dfd62" y="347.505935"/>
     <use style="fill:#ffa500;stroke:#ffa500;" x="244.245476" xlink:href="#m6dda7dfd62" y="149.177908"/>
     <use style="fill:#ffa500;stroke:#ffa500;" x="245.536023" xlink:href="#m6dda7dfd62" y="119.912577"/>
     <use style="fill:#ffa500;stroke:#ffa500;" x="139.058279" xlink:href="#m6dda7dfd62" y="89.484747"/>
     <use style="fill:#ffa500;stroke:#ffa500;" x="237.45635" xlink:href="#m6dda7dfd62" y="152.943238"/>
     <use style="fill:#ffa500;stroke:#ffa500;" x="120.271799" xlink:href="#m6dda7dfd62" y="276.448867"/>
     <use style="fill:#ffa500;stroke:#ffa500;" x="211.523428" xlink:href="#m6dda7dfd62" y="191.496608"/>
     <use style="fill:#ffa500;stroke:#ffa500;" x="191.207838" xlink:href="#m6dda7dfd62" y="289.489712"/>
     <use style="fill:#ffa500;stroke:#ffa500;" x="258.174488" xlink:href="#m6dda7dfd62" y="178.194111"/>
     <use style="fill:#ffa500;stroke:#ffa500;" x="284.318494" xlink:href="#m6dda7dfd62" y="142.171102"/>
     <use style="fill:#ffa500;stroke:#ffa500;" x="243.504829" xlink:href="#m6dda7dfd62" y="124.672503"/>
     <use style="fill:#ffa500;stroke:#ffa500;" x="174.023966" xlink:href="#m6dda7dfd62" y="138.863057"/>
     <use style="fill:#ffa500;stroke:#ffa500;" x="207.851437" xlink:href="#m6dda7dfd62" y="149.096707"/>
     <use style="fill:#ffa500;stroke:#ffa500;" x="231.452809" xlink:href="#m6dda7dfd62" y="204.170921"/>
     <use style="fill:#ffa500;stroke:#ffa500;" x="200.085937" xlink:href="#m6dda7dfd62" y="176.461354"/>
     <use style="fill:#ffa500;stroke:#ffa500;" x="140.638607" xlink:href="#m6dda7dfd62" y="108.014832"/>
     <use style="fill:#ffa500;stroke:#ffa500;" x="157.872877" xlink:href="#m6dda7dfd62" y="210.133827"/>
     <use style="fill:#ffa500;stroke:#ffa500;" x="224.51574" xlink:href="#m6dda7dfd62" y="134.164"/>
     <use style="fill:#ffa500;stroke:#ffa500;" x="176.682345" xlink:href="#m6dda7dfd62" y="167.750142"/>
     <use style="fill:#ffa500;stroke:#ffa500;" x="288.629279" xlink:href="#m6dda7dfd62" y="271.686992"/>
     <use style="fill:#ffa500;stroke:#ffa500;" x="82.618151" xlink:href="#m6dda7dfd62" y="283.940593"/>
     <use style="fill:#ffa500;stroke:#ffa500;" x="79.089568" xlink:href="#m6dda7dfd62" y="298.028258"/>
     <use style="fill:#ffa500;stroke:#ffa500;" x="218.970462" xlink:href="#m6dda7dfd62" y="203.82794"/>
    </g>
   </g>
   <g id="patch_3">
    <path d="M 54 384.48 
L 54 51.84 
" style="fill:none;stroke:#000000;stroke-linecap:square;stroke-linejoin:miter;stroke-width:0.8;"/>
   </g>
   <g id="patch_4">
    <path d="M 388.8 384.48 
L 388.8 51.84 
" style="fill:none;stroke:#000000;stroke-linecap:square;stroke-linejoin:miter;stroke-width:0.8;"/>
   </g>
   <g id="patch_5">
    <path d="M 54 384.48 
L 388.8 384.48 
" style="fill:none;stroke:#000000;stroke-linecap:square;stroke-linejoin:miter;stroke-width:0.8;"/>
   </g>
   <g id="patch_6">
    <path d="M 54 51.84 
L 388.8 51.84 
" style="fill:none;stroke:#000000;stroke-linecap:square;stroke-linejoin:miter;stroke-width:0.8;"/>
   </g>
   <g id="text_16">
    <!-- 0/1 Response -->
    <g transform="translate(181.02 45.84)scale(0.12 -0.12)">
     <defs>
      <path d="M 25.390625 72.90625 
L 33.6875 72.90625 
L 8.296875 -9.28125 
L 0 -9.28125 
z
" id="DejaVuSans-47"/>
      <path id="DejaVuSans-32"/>
      <path d="M 44.390625 34.1875 
Q 47.5625 33.109375 50.5625 29.59375 
Q 53.5625 26.078125 56.59375 19.921875 
L 66.609375 0 
L 56 0 
L 46.6875 18.703125 
Q 43.0625 26.03125 39.671875 28.421875 
Q 36.28125 30.8125 30.421875 30.8125 
L 19.671875 30.8125 
L 19.671875 0 
L 9.8125 0 
L 9.8125 72.90625 
L 32.078125 72.90625 
Q 44.578125 72.90625 50.734375 67.671875 
Q 56.890625 62.453125 56.890625 51.90625 
Q 56.890625 45.015625 53.6875 40.46875 
Q 50.484375 35.9375 44.390625 34.1875 
z
M 19.671875 64.796875 
L 19.671875 38.921875 
L 32.078125 38.921875 
Q 39.203125 38.921875 42.84375 42.21875 
Q 46.484375 45.515625 46.484375 51.90625 
Q 46.484375 58.296875 42.84375 61.546875 
Q 39.203125 64.796875 32.078125 64.796875 
z
" id="DejaVuSans-82"/>
      <path d="M 56.203125 29.59375 
L 56.203125 25.203125 
L 14.890625 25.203125 
Q 15.484375 15.921875 20.484375 11.0625 
Q 25.484375 6.203125 34.421875 6.203125 
Q 39.59375 6.203125 44.453125 7.46875 
Q 49.3125 8.734375 54.109375 11.28125 
L 54.109375 2.78125 
Q 49.265625 0.734375 44.1875 -0.34375 
Q 39.109375 -1.421875 33.890625 -1.421875 
Q 20.796875 -1.421875 13.15625 6.1875 
Q 5.515625 13.8125 5.515625 26.8125 
Q 5.515625 40.234375 12.765625 48.109375 
Q 20.015625 56 32.328125 56 
Q 43.359375 56 49.78125 48.890625 
Q 56.203125 41.796875 56.203125 29.59375 
z
M 47.21875 32.234375 
Q 47.125 39.59375 43.09375 43.984375 
Q 39.0625 48.390625 32.421875 48.390625 
Q 24.90625 48.390625 20.390625 44.140625 
Q 15.875 39.890625 15.1875 32.171875 
z
" id="DejaVuSans-101"/>
      <path d="M 44.28125 53.078125 
L 44.28125 44.578125 
Q 40.484375 46.53125 36.375 47.5 
Q 32.28125 48.484375 27.875 48.484375 
Q 21.1875 48.484375 17.84375 46.4375 
Q 14.5 44.390625 14.5 40.28125 
Q 14.5 37.15625 16.890625 35.375 
Q 19.28125 33.59375 26.515625 31.984375 
L 29.59375 31.296875 
Q 39.15625 29.25 43.1875 25.515625 
Q 47.21875 21.78125 47.21875 15.09375 
Q 47.21875 7.46875 41.1875 3.015625 
Q 35.15625 -1.421875 24.609375 -1.421875 
Q 20.21875 -1.421875 15.453125 -0.5625 
Q 10.6875 0.296875 5.421875 2 
L 5.421875 11.28125 
Q 10.40625 8.6875 15.234375 7.390625 
Q 20.0625 6.109375 24.8125 6.109375 
Q 31.15625 6.109375 34.5625 8.28125 
Q 37.984375 10.453125 37.984375 14.40625 
Q 37.984375 18.0625 35.515625 20.015625 
Q 33.0625 21.96875 24.703125 23.78125 
L 21.578125 24.515625 
Q 13.234375 26.265625 9.515625 29.90625 
Q 5.8125 33.546875 5.8125 39.890625 
Q 5.8125 47.609375 11.28125 51.796875 
Q 16.75 56 26.8125 56 
Q 31.78125 56 36.171875 55.265625 
Q 40.578125 54.546875 44.28125 53.078125 
z
" id="DejaVuSans-115"/>
      <path d="M 18.109375 8.203125 
L 18.109375 -20.796875 
L 9.078125 -20.796875 
L 9.078125 54.6875 
L 18.109375 54.6875 
L 18.109375 46.390625 
Q 20.953125 51.265625 25.265625 53.625 
Q 29.59375 56 35.59375 56 
Q 45.5625 56 51.78125 48.09375 
Q 58.015625 40.1875 58.015625 27.296875 
Q 58.015625 14.40625 51.78125 6.484375 
Q 45.5625 -1.421875 35.59375 -1.421875 
Q 29.59375 -1.421875 25.265625 0.953125 
Q 20.953125 3.328125 18.109375 8.203125 
z
M 48.6875 27.296875 
Q 48.6875 37.203125 44.609375 42.84375 
Q 40.53125 48.484375 33.40625 48.484375 
Q 26.265625 48.484375 22.1875 42.84375 
Q 18.109375 37.203125 18.109375 27.296875 
Q 18.109375 17.390625 22.1875 11.75 
Q 26.265625 6.109375 33.40625 6.109375 
Q 40.53125 6.109375 44.609375 11.75 
Q 48.6875 17.390625 48.6875 27.296875 
z
" id="DejaVuSans-112"/>
      <path d="M 30.609375 48.390625 
Q 23.390625 48.390625 19.1875 42.75 
Q 14.984375 37.109375 14.984375 27.296875 
Q 14.984375 17.484375 19.15625 11.84375 
Q 23.34375 6.203125 30.609375 6.203125 
Q 37.796875 6.203125 41.984375 11.859375 
Q 46.1875 17.53125 46.1875 27.296875 
Q 46.1875 37.015625 41.984375 42.703125 
Q 37.796875 48.390625 30.609375 48.390625 
z
M 30.609375 56 
Q 42.328125 56 49.015625 48.375 
Q 55.71875 40.765625 55.71875 27.296875 
Q 55.71875 13.875 49.015625 6.21875 
Q 42.328125 -1.421875 30.609375 -1.421875 
Q 18.84375 -1.421875 12.171875 6.21875 
Q 5.515625 13.875 5.515625 27.296875 
Q 5.515625 40.765625 12.171875 48.375 
Q 18.84375 56 30.609375 56 
z
" id="DejaVuSans-111"/>
      <path d="M 54.890625 33.015625 
L 54.890625 0 
L 45.90625 0 
L 45.90625 32.71875 
Q 45.90625 40.484375 42.875 44.328125 
Q 39.84375 48.1875 33.796875 48.1875 
Q 26.515625 48.1875 22.3125 43.546875 
Q 18.109375 38.921875 18.109375 30.90625 
L 18.109375 0 
L 9.078125 0 
L 9.078125 54.6875 
L 18.109375 54.6875 
L 18.109375 46.1875 
Q 21.34375 51.125 25.703125 53.5625 
Q 30.078125 56 35.796875 56 
Q 45.21875 56 50.046875 50.171875 
Q 54.890625 44.34375 54.890625 33.015625 
z
" id="DejaVuSans-110"/>
     </defs>
     <use xlink:href="#DejaVuSans-48"/>
     <use x="63.623047" xlink:href="#DejaVuSans-47"/>
     <use x="97.314453" xlink:href="#DejaVuSans-49"/>
     <use x="160.9375" xlink:href="#DejaVuSans-32"/>
     <use x="192.724609" xlink:href="#DejaVuSans-82"/>
     <use x="257.707031" xlink:href="#DejaVuSans-101"/>
     <use x="319.230469" xlink:href="#DejaVuSans-115"/>
     <use x="371.330078" xlink:href="#DejaVuSans-112"/>
     <use x="434.806641" xlink:href="#DejaVuSans-111"/>
     <use x="495.988281" xlink:href="#DejaVuSans-110"/>
     <use x="559.367188" xlink:href="#DejaVuSans-115"/>
     <use x="611.466797" xlink:href="#DejaVuSans-101"/>
    </g>
   </g>
  </g>
 </g>
 <defs>
  <clipPath id="p293d913231">
   <rect height="332.64" width="334.8" x="54" y="51.84"/>
  </clipPath>
 </defs>
</svg>
